<svg width="28" height="28" viewBox="0 0 28 28" fill="none" xmlns="http://www.w3.org/2000/svg">
<path fill-rule="evenodd" clip-rule="evenodd" d="M19.4161 16.4116L19.7051 16.2448C20.1821 15.9693 20.5689 16.1926 20.5689 16.7435L20.5689 17.0772C20.5689 17.628 20.1821 18.2979 19.7051 18.5733L19.4161 18.7402C18.939 19.0156 18.5523 18.7923 18.5523 18.2415L18.5523 17.9077C18.5523 17.3569 18.939 16.6871 19.4161 16.4116ZM19.7051 14.25C21.1362 13.4237 22.2964 14.0935 22.2964 15.7461L22.2964 16.0798C22.2964 17.7323 21.1362 19.7418 19.7051 20.5681L19.4161 20.7349C17.9849 21.5612 16.8248 20.8914 16.8248 19.2389L16.8248 18.9051C16.8248 17.2526 17.9849 15.2431 19.4161 14.4169L19.7051 14.25Z" fill="#E25740"/>
<path fill-rule="evenodd" clip-rule="evenodd" d="M15.4198 1.37284C14.5588 0.875721 13.1628 0.875721 12.3017 1.37284L2.94753 6.7735C2.55651 6.99926 2.34306 7.28871 2.30719 7.58401C2.24898 7.73919 2.21729 7.9242 2.21729 8.13606V18.9374C2.21729 19.9316 2.91529 21.1406 3.77632 21.6377L13.1305 27.0384C13.4998 27.2516 13.8391 27.2992 14.1061 27.2057C14.2815 27.1833 14.4723 27.1165 14.6719 27.0012L24.0261 21.6006C24.8871 21.1035 25.5851 19.8945 25.5851 18.9002V8.09893C25.5851 7.67006 25.4553 7.35121 25.2384 7.16715C25.1312 7.02422 24.9764 6.89033 24.774 6.7735L15.4198 1.37284ZM13.8608 2.723L5.28608 7.67361L13.8608 12.6242L22.4355 7.67361L13.8608 2.723ZM4.16608 9.71125L4.16608 19.6125L12.7408 24.5631V14.6619L4.16608 9.71125ZM15.0616 24.5259L23.6363 19.5753V9.67412L15.0616 14.6247V24.5259Z" fill="#081D25"/>
</svg>
