<svg width="28" height="28" viewBox="0 0 28 28" fill="none" xmlns="http://www.w3.org/2000/svg">
<path d="M10.0832 21.743V16.7841H12.1208V21.743H10.0832Z" fill="#081D25"/>
<path d="M14.9783 16.7841V21.743H17.0159V16.7841H14.9783Z" fill="#081D25"/>
<path fill-rule="evenodd" clip-rule="evenodd" d="M1.27304 2.89883L3.97158 5.63272C1.72175 5.98731 0 7.95862 0 10.3373C0 11.9633 0.804513 13.399 2.03227 14.258L4.82194 24.5351C5.21717 25.9911 6.524 27.0001 8.01456 27.0001H19.9847C21.4753 27.0001 22.7821 25.9911 23.1773 24.5351L25.9668 14.2586C27.1951 13.3997 28 11.9637 28 10.3373C28 7.70766 25.8958 5.57589 23.3001 5.57589H23.0553L25.6977 2.89883L23.8967 1.07422L19.4532 5.57589H7.51754L3.07406 1.07422L1.27304 2.89883ZM25.453 10.3373C25.453 11.5419 24.4891 12.5184 23.3001 12.5184H21.3422V15.0988H23.0972L20.7215 23.8509C20.6303 24.1869 20.3287 24.4197 19.9847 24.4197H8.01456C7.67059 24.4197 7.36901 24.1869 7.2778 23.8509L4.90208 15.0988H16.4474V12.5184H4.69988C3.51089 12.5184 2.54704 11.5419 2.54704 10.3373C2.54704 9.13277 3.5109 8.15629 4.69988 8.15629H23.3001C24.4891 8.15629 25.453 9.13277 25.453 10.3373Z" fill="#081D25"/>
</svg>
