<svg width="28" height="28" viewBox="0 0 28 28" fill="none" xmlns="http://www.w3.org/2000/svg">
<path fill-rule="evenodd" clip-rule="evenodd" d="M11.4697 0H14.7474C22.0722 0 27.9998 6.0472 27.9998 13.494C27.9998 20.9407 22.0722 26.988 14.7474 26.988H11.4697V24.9382H14.7474C20.943 24.9382 25.9758 19.8202 25.9758 13.494C25.9758 7.16774 20.943 2.04972 14.7474 2.04972H11.4697V0Z" fill="#081D25"/>
<path d="M25.9761 15.1807L25.8074 18.8915L20.5785 24.4578L18.7231 23.7831L21.9279 15.1807L25.9761 15.1807Z" fill="#081D25"/>
<path d="M25.9761 8.77148L25.9761 11.8076L21.9279 11.8076L21.9279 8.77148L25.9761 8.77148Z" fill="#081D25"/>
<path fill-rule="evenodd" clip-rule="evenodd" d="M11.8072 2.04972C6.52515 2.04972 2.0241 7.04265 2.0241 13.494C2.0241 19.9453 6.52515 24.9382 11.8072 24.9382C17.0893 24.9382 21.5904 19.9453 21.5904 13.494C21.5904 7.04265 17.0893 2.04972 11.8072 2.04972ZM0 13.494C0 6.17229 5.16529 0 11.8072 0C18.4492 0 23.6145 6.17229 23.6145 13.494C23.6145 20.8157 18.4492 26.988 11.8072 26.988C5.16529 26.988 0 20.8157 0 13.494Z" fill="#081D25"/>
<path d="M8.771 16.3821H10.9435V15.9098C10.9435 14.7313 10.966 13.8362 11.011 13.2245C11.056 12.6038 11.1414 12.1045 11.2674 11.7267C11.3933 11.3488 11.5867 10.9665 11.8476 10.5797L11.3483 10.2018C10.9795 10.6516 10.6422 10.9845 10.3363 11.2004C10.0304 11.4073 9.56714 11.6232 8.94642 11.8481V9.8645L11.5373 8.77148H12.9811V16.3821H15.1132V18.2173H8.771V16.3821Z" fill="#E25740"/>
</svg>
