<svg width="28" height="28" viewBox="0 0 28 28" fill="none" xmlns="http://www.w3.org/2000/svg">
<path fill-rule="evenodd" clip-rule="evenodd" d="M19.0073 24.1756L19.3914 22.4368C20.1479 22.5829 20.9246 22.6074 21.6916 22.5081C22.6769 22.3807 23.6255 22.0516 24.4781 21.5416C25.3309 21.0316 26.0694 20.3514 26.6476 19.5435C27.226 18.7356 27.6319 17.8173 27.8399 16.8457C28.0479 15.8742 28.0535 14.8702 27.8567 13.8963C27.6597 12.9225 27.2644 11.9996 26.6953 11.1852C26.1261 10.3707 25.3955 9.68222 24.5487 9.16248C23.8557 8.73712 23.097 8.43231 22.305 8.25959L22.3053 8.212C22.3053 5.00125 17.332 2.39844 11.197 2.39844C5.06219 2.39844 0.0888672 5.00125 0.0888672 8.212C0.0888672 8.42704 0.111229 8.63933 0.154678 8.84832L0.14958 8.84945L3.53545 24.1756C3.95581 26.0779 5.64208 27.4323 7.59032 27.4323H14.9525C16.9008 27.4323 18.587 26.0779 19.0073 24.1756ZM21.8975 11.0937L20.0068 19.6512C20.4415 19.7273 20.8862 19.7375 21.3257 19.6807C21.923 19.6034 22.4978 19.404 23.0146 19.0949C23.5314 18.7858 23.979 18.3736 24.3294 17.8839C24.6799 17.3943 24.9259 16.8377 25.052 16.2489C25.178 15.6601 25.1815 15.0516 25.0622 14.4614C24.9428 13.8712 24.7032 13.3118 24.3583 12.8182C24.0134 12.3247 23.5705 11.9074 23.0573 11.5924C22.696 11.3706 22.3052 11.2029 21.8975 11.0937ZM19.6951 8.212C19.6951 8.35851 19.5321 9.12541 17.8414 10.0102C16.2751 10.83 13.9301 11.4154 11.197 11.4154C8.46405 11.4154 6.11909 10.83 4.55273 10.0102C2.86206 9.12541 2.69904 8.35851 2.69904 8.212C2.69904 8.06549 2.86206 7.29859 4.55273 6.4138C6.11909 5.59398 8.46405 5.00861 11.197 5.00861C13.9301 5.00861 16.2751 5.59398 17.8414 6.4138C19.5321 7.29859 19.6951 8.06549 19.6951 8.212ZM18.9401 12.3805C16.9393 13.3986 14.2081 14.0256 11.197 14.0256C8.26905 14.0256 5.60558 13.4327 3.62119 12.4637L6.08422 23.6125C6.24028 24.3191 6.86664 24.8222 7.59032 24.8222H14.9525C15.6761 24.8222 16.3024 24.3191 16.4586 23.6125L18.9401 12.3805Z" fill="#081D25"/>
<path d="M14.4877 1.71977C17.003 -0.334566 20.8383 0.199276 20.8383 0.199276C20.8383 0.199276 20.5953 4.06385 18.0799 6.11819C15.5645 8.17252 11.7293 7.63868 11.7293 7.63868C11.7293 7.63868 11.9723 3.7741 14.4877 1.71977Z" fill="#E25740"/>
</svg>
