<svg width="28" height="28" viewBox="0 0 28 28" fill="none" xmlns="http://www.w3.org/2000/svg">
<g clip-path="url(#clip0_1005_16562)">
<path d="M20.9998 10.6249C23.783 8.35177 28.0266 8.94246 28.0266 8.94246C28.0266 8.94246 27.7578 13.2185 24.9745 15.4916C22.1913 17.7647 17.9477 17.174 17.9477 17.174C17.9477 17.174 18.2166 12.8979 20.9998 10.6249Z" fill="#E25740"/>
<path fill-rule="evenodd" clip-rule="evenodd" d="M3.11914 4.00033C3.11914 2.22733 4.55644 0.790039 6.32943 0.790039H21.3108C23.0838 0.790039 24.5211 2.22733 24.5211 4.00033V7.58003H22.3809V4.00033C22.3809 3.40933 21.9018 2.93023 21.3108 2.93023H6.32943C5.73843 2.93023 5.25933 3.40933 5.25933 4.00033V24.0005C5.25933 24.5915 5.73843 25.0706 6.32943 25.0706H21.3108C21.9018 25.0706 22.3809 24.5915 22.3809 24.0005V20.4212H24.5211V24.0005C24.5211 25.7735 23.0838 27.2108 21.3108 27.2108H6.32943C4.55643 27.2108 3.11914 25.7735 3.11914 24.0005V4.00033Z" fill="#081D25"/>
<path fill-rule="evenodd" clip-rule="evenodd" d="M17.7455 20.4527C18.05 21.0482 18.4231 21.8663 18.8761 22.968L20.8555 22.1541C20.1542 20.4488 19.5962 19.2966 19.1411 18.5644C18.9169 18.2037 18.6836 17.8884 18.4308 17.6578C18.2052 17.452 17.7587 17.129 17.1658 17.2286L17.1641 17.2288C16.7104 17.3058 16.4278 17.5919 16.2771 17.8152C16.1364 18.0239 16.0607 18.2464 16.0162 18.4004C15.9523 18.6218 15.8995 18.9113 15.858 19.1389C15.8451 19.2095 15.8334 19.2743 15.8226 19.3291C15.7776 19.5602 15.7352 19.7272 15.6914 19.8458C15.5342 19.7727 15.3531 19.6567 15.0756 19.4783L15.0707 19.4752C14.815 19.3109 14.4608 19.0833 14.0817 18.9319C13.6867 18.7743 13.1514 18.6519 12.5667 18.8315M15.8353 19.8989L15.8332 19.8986ZM16.9759 19.2284C16.9759 19.2284 16.9792 19.2316 16.9857 19.2365C16.9791 19.2306 16.9759 19.2284 16.9759 19.2284ZM17.7455 20.4527C17.6987 20.5957 17.6426 20.7406 17.5741 20.8802C17.3746 21.2869 17.0058 21.7756 16.3457 21.9655C15.7582 22.1341 15.2274 21.9792 14.8642 21.8203C14.5355 21.6765 14.214 21.4693 13.9754 21.3154C13.9559 21.3028 13.9369 21.2906 13.9185 21.2788C13.6359 21.0972 13.4483 20.9835 13.2883 20.9196C13.2749 20.9143 13.2627 20.9097 13.2517 20.9058C13.2379 20.9328 13.2214 20.9661 13.2022 21.0067C13.1953 21.0213 13.1878 21.0374 13.1797 21.0548C13.0494 21.336 12.7541 21.9729 12.0178 22.2961C11.4386 22.5506 10.7733 22.54 10.0503 22.3195C9.3381 22.1022 8.49795 21.6614 7.47982 20.9466L8.70963 19.195C9.63379 19.8439 10.2641 20.1472 10.6747 20.2724C10.952 20.357 11.0898 20.3494 11.139 20.3408C11.1572 20.3111 11.1969 20.2409 11.2676 20.0913C11.2729 20.0802 11.2785 20.0681 11.2845 20.0553C11.4192 19.7674 11.7383 19.0859 12.5667 18.8315M11.1569 20.3368C11.1611 20.335 11.1613 20.3353 11.1569 20.3368Z" fill="#081D25"/>
<path fill-rule="evenodd" clip-rule="evenodd" d="M15.9604 11.8599H8.46973V9.71973H15.9604V11.8599Z" fill="#081D25"/>
<path fill-rule="evenodd" clip-rule="evenodd" d="M19.1707 8.64996H8.46973V6.50977H19.1707V8.64996Z" fill="#081D25"/>
</g>
<defs>
<clipPath id="clip0_1005_16562">
<rect width="28" height="28" fill="white"/>
</clipPath>
</defs>
</svg>
