<svg width="28" height="28" viewBox="0 0 28 28" fill="none" xmlns="http://www.w3.org/2000/svg">
<path fill-rule="evenodd" clip-rule="evenodd" d="M19.7254 10.7336L13.4557 17.0033L11.8058 15.3534L20.6323 6.52689C21.1651 7.94005 20.8628 9.59625 19.7254 10.7336ZM19.5604 2.64902C20.2894 1.92004 21.4713 1.92004 22.2003 2.64902C25.1162 5.56493 25.1162 10.2926 22.2003 13.2085L13.5946 21.8142C13.5179 21.8909 13.3936 21.8909 13.3169 21.8142L7.39546 15.8928C7.09756 15.5949 7.09756 15.1119 7.39546 14.814L19.5604 2.64902ZM3.15093 24.2585C2.95706 25.0986 3.70997 25.8515 4.55005 25.6576L11.4046 24.0758C12.2975 23.8698 12.6152 22.762 11.9672 22.1141L6.69449 16.8414C6.04654 16.1934 4.93879 16.5111 4.73275 17.404L3.15093 24.2585Z" fill="#081D25"/>
</svg>
