<svg width="28" height="28" viewBox="0 0 28 28" fill="none" xmlns="http://www.w3.org/2000/svg">
<path d="M22.5591 19.9563L21.6618 19.059C22.1296 18.3526 22.4064 17.5031 22.4064 16.5867C22.4064 14.1049 20.3923 12.0908 17.9105 12.0908C15.4286 12.0908 13.4146 14.1049 13.4146 16.5867C13.4146 19.0685 15.4286 21.0826 17.9105 21.0826C18.8268 21.0826 19.6668 20.8058 20.3827 20.3381L21.28 21.2354C21.4614 21.4167 21.6905 21.5026 21.9291 21.5026C22.1677 21.5026 22.3968 21.4167 22.5782 21.2354C22.9123 20.8917 22.9123 20.319 22.5591 19.9563Z" fill="#081D25"/>
<path d="M21.4708 6.38228V8.50137C21.4708 9.27456 20.9935 10.2386 20.5163 10.7255L20.3445 10.8782C20.2108 11.0023 20.0104 11.0309 19.8385 10.9736C19.6476 10.9068 19.4567 10.8591 19.2658 10.8114C18.8458 10.7064 18.3972 10.6586 17.939 10.6586C14.6458 10.6586 11.9731 13.3314 11.9731 16.6246C11.9731 17.7127 12.269 18.7818 12.8322 19.6982C13.3095 20.5 13.9776 21.1682 14.7031 21.6168C14.9226 21.76 15.0085 22.0655 14.8176 22.2373C14.7508 22.2946 14.684 22.3423 14.6172 22.39L13.2808 23.2586C12.0399 24.0318 10.3313 23.1632 10.3313 21.6168V16.51C10.3313 15.8323 9.94946 14.9636 9.56764 14.4864L5.94991 10.63C5.47264 10.1432 5.09082 9.27456 5.09082 8.70183V6.47774C5.09082 5.32274 5.94991 4.4541 6.99037 4.4541H19.5713C20.6117 4.4541 21.4708 5.32274 21.4708 6.38228Z" fill="#081D25"/>
</svg>
