<svg width="28" height="28" viewBox="0 0 28 28" fill="none" xmlns="http://www.w3.org/2000/svg">
<g clip-path="url(#clip0_1005_16536)">
<path fill-rule="evenodd" clip-rule="evenodd" d="M0.444336 10.2995C0.444336 5.5749 4.24973 1.79492 8.88856 1.79492C11.0486 1.79492 13.0329 2.62138 14.5291 3.97532C16.0253 2.62138 18.0096 1.79492 20.1696 1.79492V4.61816C18.3125 4.61816 16.655 5.51992 15.6255 6.89434L14.5291 8.35802L13.4327 6.89434C12.4032 5.51992 10.7457 4.61816 8.88856 4.61816C5.7272 4.61816 3.20605 7.18255 3.20605 10.2995C3.20605 11.6522 3.42176 12.8984 3.79666 14.0558L3.79968 14.0651L3.79965 14.0651C4.70058 16.9128 6.55843 19.239 8.60619 20.9968C10.659 22.7589 12.8188 23.8772 14.1771 24.3387L14.1916 24.3437L14.1916 24.3438C14.1922 24.344 14.2014 24.3471 14.2206 24.3515C14.2402 24.3561 14.2663 24.3611 14.2989 24.3657C14.365 24.3751 14.4442 24.3809 14.5291 24.3809C14.614 24.3809 14.6932 24.3751 14.7593 24.3657C14.7919 24.3611 14.818 24.3561 14.8376 24.3515C14.8577 24.3469 14.8669 24.3437 14.8666 24.3438L14.8811 24.3387L14.8811 24.3387C16.2393 23.8772 18.3992 22.7589 20.452 20.9968C22.4998 19.239 24.3576 16.9128 25.2585 14.0651L27.8862 14.9339C26.78 18.4306 24.5408 21.1735 22.2279 23.1589C19.9229 25.1376 17.4618 26.4358 15.7586 27.0157C15.3544 27.1567 14.9085 27.2041 14.5291 27.2041C14.1497 27.2041 13.7038 27.1567 13.2996 27.0157C11.5964 26.4358 9.13528 25.1376 6.83025 23.1589C4.51842 21.1744 2.28022 18.4331 1.17343 14.9386C0.710794 13.5088 0.444336 11.9649 0.444336 10.2995Z" fill="#081D25"/>
<path d="M20.4766 5.70477C23.1201 3.54582 27.1506 4.10684 27.1506 4.10684C27.1506 4.10684 26.8953 8.16823 24.2518 10.3272C21.6083 12.4861 17.5777 11.9251 17.5777 11.9251C17.5777 11.9251 17.8331 7.86373 20.4766 5.70477Z" fill="#E25740"/>
</g>
<defs>
<clipPath id="clip0_1005_16536">
<rect width="28" height="28" fill="white"/>
</clipPath>
</defs>
</svg>
