<svg width="28" height="28" viewBox="0 0 28 28" fill="none" xmlns="http://www.w3.org/2000/svg">
<path fill-rule="evenodd" clip-rule="evenodd" d="M15.4702 8L15.4702 16L12.9731 16L12.9731 8L15.4702 8Z" fill="#081D25"/>
<path fill-rule="evenodd" clip-rule="evenodd" d="M19.9927 16H12.9731V13.5029L19.9927 13.5029V16Z" fill="#081D25"/>
<path fill-rule="evenodd" clip-rule="evenodd" d="M5.47656 7.49805L5.47656 12L7.97314 12L7.97314 7.49805L7.97315 5.00049L7.97315 5L5.47656 5L5.47656 5.00049L0.973145 5.00049L0.973145 7.49805L5.47656 7.49805Z" fill="#081D25"/>
<path fill-rule="evenodd" clip-rule="evenodd" d="M14.4731 4.25C12.8737 4.25 11.3632 4.61545 10.0173 5.26625L8.92898 3.01558C10.6068 2.20424 12.4887 1.75 14.4731 1.75C21.5148 1.75 27.2231 7.45837 27.2231 14.5C27.2231 21.5416 21.5148 27.25 14.4731 27.25C7.43151 27.25 1.72314 21.5416 1.72314 14.5C1.72314 11.1926 2.98415 8.17674 5.04948 5.9117L6.89681 7.59614C5.23493 9.41873 4.22314 11.8398 4.22314 14.5C4.22314 20.1609 8.81223 24.75 14.4731 24.75C20.1341 24.75 24.7231 20.1609 24.7231 14.5C24.7231 8.83908 20.1341 4.25 14.4731 4.25Z" fill="#081D25"/>
</svg>
