<?xml version="1.0" encoding="utf-8"?><svg xmlns="http://www.w3.org/2000/svg" xmlns:xlink="http://www.w3.org/1999/xlink"><symbol fill="none" viewBox="0 0 28 28" id="box" xmlns="http://www.w3.org/2000/svg"><path fill-rule="evenodd" clip-rule="evenodd" d="m19.416 16.412.29-.167c.476-.276.863-.052.863.498v.334c0 .551-.387 1.22-.864 1.496l-.289.167c-.477.276-.864.052-.864-.498v-.334c0-.551.387-1.22.864-1.496Zm.29-2.162c1.43-.826 2.59-.156 2.59 1.496v.334c0 1.652-1.16 3.662-2.59 4.488l-.29.167c-1.431.826-2.591.156-2.591-1.496v-.334c0-1.652 1.16-3.662 2.591-4.488l.29-.167Z" fill="#E25740"/><path fill-rule="evenodd" clip-rule="evenodd" d="M15.42 1.373c-.861-.497-2.257-.497-3.118 0l-9.354 5.4c-.391.226-.605.516-.64.811-.059.155-.09.34-.09.552v10.801c0 .995.697 2.204 1.558 2.7l9.354 5.401c.37.214.71.261.976.168.175-.023.366-.09.566-.205l9.354-5.4c.861-.497 1.56-1.706 1.56-2.7V8.098c0-.429-.13-.748-.348-.932a1.525 1.525 0 0 0-.464-.393L15.42 1.373Zm-1.56 1.35-8.574 4.95 8.575 4.951 8.575-4.95-8.575-4.951ZM4.167 9.711v9.902l8.575 4.95v-9.901l-8.575-4.95Zm10.896 14.815 8.574-4.95V9.673l-8.574 4.95v9.902Z" fill="currentColor"/></symbol><symbol fill="none" viewBox="0 0 28 28" id="cart" xmlns="http://www.w3.org/2000/svg"><path d="M10.083 21.743v-4.959h2.038v4.959h-2.038ZM14.978 16.784v4.959h2.038v-4.959h-2.038Z" fill="currentColor"/><path fill-rule="evenodd" clip-rule="evenodd" d="m1.273 2.899 2.699 2.734C1.722 5.987 0 7.959 0 10.337c0 1.626.805 3.062 2.032 3.921l2.79 10.277A3.318 3.318 0 0 0 8.015 27h11.97a3.318 3.318 0 0 0 3.192-2.465l2.79-10.276A4.774 4.774 0 0 0 28 10.337c0-2.63-2.104-4.761-4.7-4.761h-.245l2.643-2.677-1.801-1.825-4.444 4.502H7.518L3.074 1.074 1.273 2.9Zm24.18 7.438c0 1.205-.964 2.181-2.153 2.181h-1.958v2.58h1.755l-2.376 8.753a.766.766 0 0 1-.736.569H8.015a.766.766 0 0 1-.737-.57L4.902 15.1h11.545v-2.58H4.7c-1.19 0-2.153-.977-2.153-2.182 0-1.204.964-2.18 2.153-2.18h18.6c1.19 0 2.153.976 2.153 2.18Z" fill="currentColor"/></symbol><symbol fill="none" viewBox="0 0 28 28" id="catalog" xmlns="http://www.w3.org/2000/svg"><rect x="3.818" y="3.818" width="8.909" height="8.909" rx="1.273" fill="currentColor"/><rect x="3.818" y="15.273" width="8.909" height="8.909" rx="1.273" fill="currentColor"/><rect x="15.273" y="3.818" width="8.909" height="8.909" rx="1.273" fill="currentColor"/><rect x="15.273" y="15.273" width="8.909" height="8.909" rx="1.273" fill="currentColor"/></symbol><symbol fill="none" viewBox="0 0 22 22" id="check" xmlns="http://www.w3.org/2000/svg"><path fill-rule="evenodd" clip-rule="evenodd" d="M15.854 8.354 10.5 13.707 6.646 9.854l.708-.708 3.146 3.147 4.646-4.647.708.708Z" fill="#f4f3f2"/></symbol><symbol fill="none" viewBox="0 0 28 28" id="close" xmlns="http://www.w3.org/2000/svg"><path d="M3.62451 5.2959L22.7035 24.3749L24.3747 22.7036L5.29578 3.62463L3.62451 5.2959Z" fill="currentColor"/><path d="M24.3745 5.2959L5.29554 24.3749L3.62428 22.7036L22.7032 3.62463L24.3745 5.2959Z" fill="currentColor"/></symbol><symbol fill="none" viewBox="0 0 28 28" id="coin" xmlns="http://www.w3.org/2000/svg"><path fill-rule="evenodd" clip-rule="evenodd" d="M11.47 0h3.277C22.072 0 28 6.047 28 13.494s-5.928 13.494-13.253 13.494H11.47v-2.05h3.277c6.196 0 11.229-5.118 11.229-11.444 0-6.326-5.033-11.444-11.229-11.444H11.47V0Z" fill="currentColor"/><path d="m25.976 15.18-.169 3.712-5.229 5.566-1.855-.675 3.205-8.602h4.048ZM25.976 8.771v3.037h-4.048V8.77h4.048Z" fill="currentColor"/><path fill-rule="evenodd" clip-rule="evenodd" d="M11.807 2.05c-5.282 0-9.783 4.993-9.783 11.444 0 6.451 4.501 11.444 9.783 11.444 5.282 0 9.783-4.993 9.783-11.444 0-6.451-4.5-11.444-9.783-11.444ZM0 13.494C0 6.172 5.165 0 11.807 0s11.807 6.172 11.807 13.494-5.165 13.494-11.807 13.494S0 20.816 0 13.494Z" fill="currentColor"/><path d="M8.771 16.382h2.172v-.472c0-1.179.023-2.074.068-2.685.045-.621.13-1.12.256-1.498.126-.378.32-.76.58-1.147l-.499-.378c-.369.45-.706.783-1.012.998-.306.207-.769.423-1.39.648V9.864l2.591-1.093h1.444v7.611h2.132v1.835H8.771v-1.835Z" fill="#E25740"/></symbol><symbol fill="none" viewBox="0 0 28 28" id="cup" xmlns="http://www.w3.org/2000/svg"><path fill-rule="evenodd" clip-rule="evenodd" d="M19.0073 24.1756L19.3914 22.4368C20.1479 22.5829 20.9246 22.6074 21.6916 22.5081C22.6769 22.3807 23.6255 22.0516 24.4781 21.5416C25.3309 21.0316 26.0694 20.3514 26.6476 19.5435C27.226 18.7356 27.6319 17.8173 27.8399 16.8457C28.0479 15.8742 28.0535 14.8702 27.8567 13.8963C27.6597 12.9225 27.2644 11.9996 26.6953 11.1852C26.1261 10.3707 25.3955 9.68222 24.5487 9.16248C23.8557 8.73712 23.097 8.43231 22.305 8.25959L22.3053 8.212C22.3053 5.00125 17.332 2.39844 11.197 2.39844C5.06219 2.39844 0.0888672 5.00125 0.0888672 8.212C0.0888672 8.42704 0.111229 8.63933 0.154678 8.84832L0.14958 8.84945L3.53545 24.1756C3.95581 26.0779 5.64208 27.4323 7.59032 27.4323H14.9525C16.9008 27.4323 18.587 26.0779 19.0073 24.1756ZM21.8975 11.0937L20.0068 19.6512C20.4415 19.7273 20.8862 19.7375 21.3257 19.6807C21.923 19.6034 22.4978 19.404 23.0146 19.0949C23.5314 18.7858 23.979 18.3736 24.3294 17.8839C24.6799 17.3943 24.9259 16.8377 25.052 16.2489C25.178 15.6601 25.1815 15.0516 25.0622 14.4614C24.9428 13.8712 24.7032 13.3118 24.3583 12.8182C24.0134 12.3247 23.5705 11.9074 23.0573 11.5924C22.696 11.3706 22.3052 11.2029 21.8975 11.0937ZM19.6951 8.212C19.6951 8.35851 19.5321 9.12541 17.8414 10.0102C16.2751 10.83 13.9301 11.4154 11.197 11.4154C8.46405 11.4154 6.11909 10.83 4.55273 10.0102C2.86206 9.12541 2.69904 8.35851 2.69904 8.212C2.69904 8.06549 2.86206 7.29859 4.55273 6.4138C6.11909 5.59398 8.46405 5.00861 11.197 5.00861C13.9301 5.00861 16.2751 5.59398 17.8414 6.4138C19.5321 7.29859 19.6951 8.06549 19.6951 8.212ZM18.9401 12.3805C16.9393 13.3986 14.2081 14.0256 11.197 14.0256C8.26905 14.0256 5.60558 13.4327 3.62119 12.4637L6.08422 23.6125C6.24028 24.3191 6.86664 24.8222 7.59032 24.8222H14.9525C15.6761 24.8222 16.3024 24.3191 16.4586 23.6125L18.9401 12.3805Z" fill="currentColor"/><path d="M14.4877 1.71977C17.003 -0.334566 20.8383 0.199276 20.8383 0.199276C20.8383 0.199276 20.5953 4.06385 18.0799 6.11819C15.5645 8.17252 11.7293 7.63868 11.7293 7.63868C11.7293 7.63868 11.9723 3.7741 14.4877 1.71977Z" fill="#E25740"/></symbol><symbol fill="none" viewBox="0 0 28 28" id="doc" xmlns="http://www.w3.org/2000/svg"><g clip-path="url(#ga)"><path d="M21 10.625c2.783-2.273 7.027-1.683 7.027-1.683s-.27 4.277-3.053 6.55c-2.783 2.273-7.026 1.682-7.026 1.682s.269-4.276 3.052-6.55Z" fill="#E25740"/><path fill-rule="evenodd" clip-rule="evenodd" d="M3.12 4A3.21 3.21 0 0 1 6.33.79h14.98A3.21 3.21 0 0 1 24.522 4v3.58h-2.14V4c0-.59-.48-1.07-1.07-1.07H6.329c-.59 0-1.07.48-1.07 1.07v20c0 .591.48 1.07 1.07 1.07h14.982c.59 0 1.07-.479 1.07-1.07v-3.579h2.14v3.58a3.21 3.21 0 0 1-3.21 3.21H6.329A3.21 3.21 0 0 1 3.12 24V4Z" fill="currentColor"/><path fill-rule="evenodd" clip-rule="evenodd" d="M17.745 20.453a34.47 34.47 0 0 1 1.131 2.515l1.98-.814c-.702-1.705-1.26-2.857-1.715-3.59-.224-.36-.457-.676-.71-.906-.226-.206-.672-.529-1.265-.43h-.002a1.34 1.34 0 0 0-.887.587c-.14.209-.216.431-.26.585a8.2 8.2 0 0 0-.159.739l-.035.19a3.492 3.492 0 0 1-.132.517 5.802 5.802 0 0 1-.615-.368l-.005-.003c-.256-.164-.61-.392-.99-.543-.394-.158-.93-.28-1.514-.1m3.268 1.067h-.002Zm1.14-.67.01.008-.01-.009Zm.77 1.224a3.307 3.307 0 0 1-.17.427c-.2.407-.57.896-1.23 1.085-.587.17-1.118.014-1.48-.145a6.528 6.528 0 0 1-.947-.541c-.282-.182-.47-.296-.63-.36a1.098 1.098 0 0 0-.036-.013 3.652 3.652 0 0 0-.072.149c-.13.281-.426.918-1.162 1.241-.58.255-1.245.244-1.968.024-.712-.218-1.552-.659-2.57-1.373l1.23-1.752c.924.649 1.554.952 1.965 1.077.277.085.415.077.464.069.018-.03.058-.1.129-.25l.016-.036c.135-.288.454-.97 1.283-1.224m-1.41 1.506c.004-.002.004-.002 0 0ZM15.96 11.86H8.47V9.72h7.49v2.14ZM19.17 8.65H8.47V6.51h10.7v2.14Z" fill="currentColor"/></g><defs><clipPath id="ga"><path fill="#fff" d="M0 0h28v28H0z"/></clipPath></defs></symbol><symbol fill="none" viewBox="0 0 28 28" id="edit" xmlns="http://www.w3.org/2000/svg"><path fill-rule="evenodd" clip-rule="evenodd" d="m19.725 10.734-6.27 6.27-1.65-1.65 8.827-8.827a3.967 3.967 0 0 1-.907 4.207Zm-.165-8.085a1.867 1.867 0 0 1 2.64 0 7.467 7.467 0 0 1 0 10.56l-8.605 8.605a.196.196 0 0 1-.278 0l-5.922-5.921a.763.763 0 0 1 0-1.079L19.56 2.649ZM3.15 24.259a1.167 1.167 0 0 0 1.4 1.399l6.855-1.582a1.167 1.167 0 0 0 .562-1.962l-5.273-5.273a1.167 1.167 0 0 0-1.961.563L3.15 24.259Z" fill="currentColor"/></symbol><symbol fill="none" viewBox="0 0 28 28" id="exit" xmlns="http://www.w3.org/2000/svg"><path fill-rule="evenodd" clip-rule="evenodd" d="M3.124 1.643h11.521v2.5H5.624v19.715h9.021v2.5H3.124V1.643Z" fill="currentColor"/><path fill-rule="evenodd" clip-rule="evenodd" d="m14.388 8.682 9.5 5.216-9.5 5.217V15.15h-4.161v-2.5h4.161V8.681Z" fill="currentColor"/></symbol><symbol fill="none" viewBox="0 0 28 28" id="favorite" xmlns="http://www.w3.org/2000/svg"><path d="M20.16 2.05664C17.633 2.05664 15.3713 3.26452 13.9612 5.11752C12.5511 3.26452 10.2894 2.05664 7.76244 2.05664C3.47634 2.05664 0 5.48812 0 9.72943C0 11.3628 0.265263 12.8727 0.725983 14.2727C2.93186 21.1357 9.73097 25.2397 13.0956 26.3652C13.5703 26.5299 14.3521 26.5299 14.8268 26.3652C18.1915 25.2397 24.9906 21.1357 27.1965 14.2727C27.6572 12.8727 27.9224 11.3628 27.9224 9.72943C27.9224 5.48812 24.4461 2.05664 20.16 2.05664Z" fill="currentColor"/></symbol><symbol fill="none" viewBox="0 0 28 28" id="filter" xmlns="http://www.w3.org/2000/svg"><path d="m22.56 19.956-.898-.897a4.464 4.464 0 0 0 .744-2.472 4.497 4.497 0 0 0-4.495-4.496 4.497 4.497 0 0 0-4.496 4.496 4.497 4.497 0 0 0 4.495 4.496c.917 0 1.757-.277 2.473-.745l.897.897c.181.182.41.268.65.268a.902.902 0 0 0 .648-.268c.334-.343.334-.916-.019-1.279Z" fill="currentColor"/><path d="M21.47 6.382v2.12c0 .773-.476 1.737-.954 2.223l-.171.153a.512.512 0 0 1-.506.096 6.43 6.43 0 0 0-.573-.163 5.49 5.49 0 0 0-1.327-.152 5.968 5.968 0 0 0-5.966 5.966c0 1.088.296 2.157.86 3.073a5.719 5.719 0 0 0 1.87 1.919c.22.143.306.448.115.62a2.772 2.772 0 0 1-.2.153l-1.337.869c-1.241.773-2.95-.096-2.95-1.642V16.51c0-.678-.382-1.546-.763-2.024L5.95 10.63c-.477-.487-.86-1.355-.86-1.928V6.478c0-1.155.86-2.024 1.9-2.024h12.581c1.04 0 1.9.869 1.9 1.928Z" fill="currentColor"/></symbol><symbol fill="none" viewBox="0 0 28 28" id="heart" xmlns="http://www.w3.org/2000/svg"><g clip-path="url(#ka)"><path fill-rule="evenodd" clip-rule="evenodd" d="M.444 10.3c0-4.725 3.806-8.505 8.445-8.505 2.16 0 4.144.826 5.64 2.18a8.394 8.394 0 0 1 5.64-2.18v2.823a5.681 5.681 0 0 0-4.543 2.276l-1.097 1.464-1.096-1.464A5.681 5.681 0 0 0 3.206 10.3c0 1.353.216 2.6.59 3.757l.004.01c.9 2.847 2.758 5.173 4.806 6.93 2.053 1.763 4.213 2.881 5.571 3.343l.015.005.029.008c.02.004.045.01.078.014a1.667 1.667 0 0 0 .539-.014l.029-.008.014-.005c1.358-.462 3.518-1.58 5.571-3.342 2.048-1.758 3.906-4.084 4.806-6.932l2.628.869c-1.106 3.497-3.345 6.24-5.658 8.225-2.305 1.979-4.766 3.277-6.47 3.857-.404.14-.85.188-1.229.188-.38 0-.825-.047-1.23-.188-1.703-.58-4.164-1.878-6.469-3.857-2.312-1.985-4.55-4.726-5.657-8.22a14.975 14.975 0 0 1-.729-4.64Z" fill="currentColor"/><path d="M20.477 5.705c2.643-2.16 6.674-1.598 6.674-1.598s-.256 4.061-2.9 6.22c-2.643 2.16-6.673 1.598-6.673 1.598s.255-4.061 2.899-6.22Z" fill="#E25740"/></g><defs><clipPath id="ka"><path fill="#fff" d="M0 0h28v28H0z"/></clipPath></defs></symbol><symbol fill="none" viewBox="0 0 28 28" id="history" xmlns="http://www.w3.org/2000/svg"><path fill-rule="evenodd" clip-rule="evenodd" d="M15.47 8v8h-2.497V8h2.497Z" fill="currentColor"/><path fill-rule="evenodd" clip-rule="evenodd" d="M19.993 16h-7.02v-2.497h7.02V16ZM5.477 7.498V12h2.496V5h-7v2.498h4.504Z" fill="currentColor"/><path fill-rule="evenodd" clip-rule="evenodd" d="M14.473 4.25c-1.6 0-3.11.365-4.456 1.016L8.93 3.016a12.704 12.704 0 0 1 5.544-1.266c7.042 0 12.75 5.708 12.75 12.75s-5.708 12.75-12.75 12.75c-7.041 0-12.75-5.708-12.75-12.75 0-3.307 1.261-6.323 3.326-8.588l1.848 1.684A10.208 10.208 0 0 0 4.223 14.5c0 5.66 4.59 10.25 10.25 10.25 5.661 0 10.25-4.59 10.25-10.25S20.134 4.25 14.473 4.25Z" fill="currentColor"/></symbol><symbol fill="none" viewBox="0 0 28 28" id="lock" xmlns="http://www.w3.org/2000/svg"><path d="M12.635 15.927c1.98-1.616 4.998-1.196 4.998-1.196s-.191 3.041-2.171 4.658c-1.98 1.617-4.998 1.197-4.998 1.197s.191-3.042 2.17-4.659Z" fill="#E25740"/><path fill-rule="evenodd" clip-rule="evenodd" d="M22 12.5H6A1.5 1.5 0 0 0 4.5 14v8A1.5 1.5 0 0 0 6 23.5h16a1.5 1.5 0 0 0 1.5-1.5v-8a1.5 1.5 0 0 0-1.5-1.5ZM6 10a4 4 0 0 0-4 4v8a4 4 0 0 0 4 4h16a4 4 0 0 0 4-4v-8a4 4 0 0 0-4-4H6ZM15 1.75c2.9 0 5.25 2.35 5.25 5.25v3h-2.5V7A2.75 2.75 0 0 0 15 4.25h-2A2.75 2.75 0 0 0 10.25 7v3h-2.5V7c0-2.9 2.35-5.25 5.25-5.25h2Z" fill="currentColor"/></symbol><symbol fill="none" viewBox="0 0 28 28" id="mark" xmlns="http://www.w3.org/2000/svg"><path fill-rule="evenodd" clip-rule="evenodd" d="M20.24 15.332c.824-1.517 1.26-2.923 1.26-4.155 0-3.49-3.151-6.677-7.5-6.677s-7.5 3.187-7.5 6.677c0 1.232.436 2.638 1.26 4.155.815 1.502 1.935 2.972 3.107 4.289A38.541 38.541 0 0 0 14 22.739a38.541 38.541 0 0 0 3.133-3.118c1.172-1.317 2.292-2.787 3.108-4.29ZM14 26s10-7.636 10-14.823C24 6.108 19.523 2 14 2S4 6.108 4 11.177C4 18.364 14 26 14 26Z" fill="currentColor"/><path fill-rule="evenodd" clip-rule="evenodd" d="M14 12.5a1.5 1.5 0 1 0 0-3 1.5 1.5 0 0 0 0 3Zm0 2.5a4 4 0 1 0 0-8 4 4 0 0 0 0 8Z" fill="currentColor"/></symbol><symbol fill="none" viewBox="0 0 28 28" id="menu" xmlns="http://www.w3.org/2000/svg"><path fill-rule="evenodd" clip-rule="evenodd" d="M26.727 7.954H1.273V4.772h25.454v3.182ZM26.727 15.591H1.273v-3.182h25.454v3.182ZM26.727 23.228H1.273v-3.182h25.454v3.182Z" fill="currentColor"/></symbol><symbol fill="none" viewBox="0 0 28 28" id="money" xmlns="http://www.w3.org/2000/svg"><path fill-rule="evenodd" clip-rule="evenodd" d="M16.707 6.678h7.66c2.006 0 3.633 1.647 3.633 3.679v11.97c0 2.032-1.627 3.68-3.634 3.68H3.634C1.627 26.006 0 24.358 0 22.326v-11.97a3.67 3.67 0 0 1 2.805-3.582l1.648-2.89a3.713 3.713 0 0 1 5.105-1.384l7.149 4.178Zm-10.97 0 .874-1.531a1.238 1.238 0 0 1 1.701-.462l3.411 1.994H5.737Zm-3.453 3.679c0-.755.604-1.366 1.35-1.366h20.732c.746 0 1.35.611 1.35 1.366v11.97c0 .755-.604 1.367-1.35 1.367H3.634c-.746 0-1.35-.612-1.35-1.366V10.357Z" fill="currentColor"/><path fill-rule="evenodd" clip-rule="evenodd" d="M14 14.542a2.152 2.152 0 1 0 0 4.304 2.152 2.152 0 0 0 0-4.304Zm-4.5 2.152a4.5 4.5 0 1 1 9 0 4.5 4.5 0 0 1-9 0Z" fill="#E25740"/></symbol><symbol fill="none" viewBox="0 0 28 28" id="search" xmlns="http://www.w3.org/2000/svg"><path d="M20.409 12.01v-.001h2.562v.002a10.254 10.254 0 0 1-2.83 7.072l5.394 5.394-1.768 1.768-5.57-5.57a10.25 10.25 0 0 1-14.284-3.413A10.253 10.253 0 0 1 17.588 2.986l-1.217 2.255a7.69 7.69 0 1 0 4.038 6.77Z" fill="currentColor"/></symbol><symbol fill="none" viewBox="0 0 28 28" id="sorting" xmlns="http://www.w3.org/2000/svg"><path d="M5.88 19.065v1.323c0 2.024.764 2.839 2.698 2.839h15.12v-7H8.578c-1.934 0-2.698.814-2.698 2.838ZM12.244 9.519v1.323c0 2.024.776 2.839 2.698 2.839h8.756v-7h-8.756c-1.922 0-2.698.814-2.698 2.838Z" fill="currentColor"/><path d="M23.698 25.454c-.522 0-.954-.39-.954-.86V3.405c0-.47.432-.86.954-.86s.955.39.955.86v21.19c.013.47-.42.86-.955.86Z" fill="currentColor"/></symbol><symbol fill="none" viewBox="0 0 28 28" id="user" xmlns="http://www.w3.org/2000/svg"><path fill-rule="evenodd" clip-rule="evenodd" d="M19.814 6.222a6.222 6.222 0 1 1-12.445 0 6.222 6.222 0 0 1 12.445 0Zm-2.593 0a3.63 3.63 0 1 1-7.259 0 3.63 3.63 0 0 1 7.26 0Z" fill="currentColor"/><path fill-rule="evenodd" clip-rule="evenodd" d="M6.28 16.885 3.45 22.454C2.158 24.993 4.002 28 6.85 28h14.518c2.767 0 4.497-2.994 3.116-5.391l-3.501-6.076a7.648 7.648 0 0 0-6.627-3.83h-1.26a7.648 7.648 0 0 0-6.817 4.182Zm-.52 6.744L8.59 18.06a5.056 5.056 0 0 1 4.507-2.764h1.259c1.808 0 3.478.965 4.38 2.532l3.502 6.075a1.003 1.003 0 0 1-.87 1.504H6.851A1.224 1.224 0 0 1 5.76 23.63Z" fill="currentColor"/></symbol><symbol fill="none" viewBox="0 0 28 28" id="plus" xmlns="http://www.w3.org/2000/svg"><path d="M16.2108 0H11.7892V11.7904H0V16.2112H11.7892V28.0016H16.2108V16.2112H28V11.7904H16.2108V0Z" fill="currentColor"/></symbol><symbol fill="none" viewBox="0 0 28 28" id="minus" xmlns="http://www.w3.org/2000/svg"><path d="M28 12L28 16.4199L-1.9325e-07 16.4199L0 12L28 12Z" fill="currentColor"/></symbol></svg>