<svg width="28" height="28" viewBox="0 0 28 28" fill="none" xmlns="http://www.w3.org/2000/svg">
<path d="M12.6348 15.9274C14.6144 14.3106 17.6327 14.7308 17.6327 14.7308C17.6327 14.7308 17.4415 17.7722 15.4619 19.389C13.4822 21.0058 10.4639 20.5856 10.4639 20.5856C10.4639 20.5856 10.6551 17.5442 12.6348 15.9274Z" fill="#E25740"/>
<path fill-rule="evenodd" clip-rule="evenodd" d="M22 12.5H6C5.17157 12.5 4.5 13.1716 4.5 14V22C4.5 22.8284 5.17157 23.5 6 23.5H22C22.8284 23.5 23.5 22.8284 23.5 22V14C23.5 13.1716 22.8284 12.5 22 12.5ZM6 10C3.79086 10 2 11.7909 2 14V22C2 24.2091 3.79086 26 6 26H22C24.2091 26 26 24.2091 26 22V14C26 11.7909 24.2091 10 22 10H6Z" fill="#081D25"/>
<path fill-rule="evenodd" clip-rule="evenodd" d="M15 1.75C17.8995 1.75 20.25 4.10051 20.25 7L20.25 10L17.75 10L17.75 7C17.75 5.48122 16.5188 4.25 15 4.25L13 4.25C11.4812 4.25 10.25 5.48122 10.25 7L10.25 10L7.75 10L7.75 7C7.75 4.1005 10.1005 1.75 13 1.75L15 1.75Z" fill="#081D25"/>
</svg>
