<svg width="33" height="54" viewBox="0 0 33 54" fill="none" xmlns="http://www.w3.org/2000/svg">
<path d="M18.4712 51.0304L14.4775 27.0781L17.9183 26.6677L19.6714 50.8872C19.6947 51.2096 19.4605 51.4934 19.1396 51.5316C18.8187 51.5699 18.5243 51.3492 18.4712 51.0304Z" fill="#9DAFB6"/>
<ellipse cx="16.7264" cy="28.8512" rx="13.5718" ry="6.06402" transform="rotate(-6.80301 16.7264 28.8512)" fill="#E25740"/>
<ellipse cx="15.879" cy="26.6231" rx="7.21907" ry="3.17639" transform="rotate(-6.80301 15.879 26.6231)" fill="#E25740"/>
<path d="M2.33594 8.17188L24.7009 5.50383L23.0468 25.7671L8.71035 27.4773L2.33594 8.17188Z" fill="#E25740"/>
<ellipse cx="13.4847" cy="6.54819" rx="11.2617" ry="4.90897" transform="rotate(-6.80301 13.4847 6.54819)" fill="#E25740"/>
<path d="M13.7335 8.62568C12.3553 8.79083 11.0772 9.42865 10.1163 10.431C9.15614 11.4332 8.57242 12.7373 8.46597 14.1215C8.35951 15.5057 8.73552 16.8836 9.53067 18.0217C10.3257 19.1591 11.4914 19.9855 12.8282 20.3602C14.165 20.735 15.5902 20.6346 16.8608 20.0763C18.1315 19.5179 19.1696 18.5367 19.7982 17.2984C20.4267 16.0601 20.6063 14.6435 20.3069 13.2876C20.0076 11.9325 19.2476 10.7228 18.1558 9.8646C16.9042 8.88318 15.314 8.43714 13.7335 8.62568ZM16.1691 11.8214C15.0598 11.1453 11.2623 11.2286 11.2569 14.657C11.2512 17.3696 14.4758 18.6936 16.7237 17.0161C19.522 14.9277 18.0979 11.5261 18.0979 11.5261L18.3559 11.3931C18.3559 11.3931 19.9443 13.4428 18.6905 16.3317C17.4967 19.0794 13.4541 20.0855 11.2246 17.8166C8.87465 15.4258 9.85141 12.1497 11.7643 10.8649C13.4977 9.7008 16.3978 9.62529 17.2057 11.8007C17.7009 13.1361 17.5053 14.7281 16.1991 15.8442C15.0556 16.8231 12.8822 16.8979 12.3449 15.1177C14.2074 15.5135 16.3728 14.5461 16.1679 11.8112L16.1691 11.8214ZM15.3205 12.3939C15.1857 13.497 14.2635 14.5384 12.2649 14.1737C12.5874 12.4361 14.3025 12.1856 15.32 12.3895L15.3205 12.3939Z" fill="white"/>
</svg>
