<svg width="28" height="28" viewBox="0 0 28 28" fill="none" xmlns="http://www.w3.org/2000/svg">
<path fill-rule="evenodd" clip-rule="evenodd" d="M20.2405 15.3318C21.0639 13.8152 21.5 12.4092 21.5 11.1765C21.5 7.68707 18.3487 4.5 14 4.5C9.65127 4.5 6.5 7.68707 6.5 11.1765C6.5 12.4092 6.93607 13.8152 7.75953 15.3318C8.57533 16.8343 9.69453 18.3041 10.8671 19.6209C11.9929 20.8852 13.1261 21.9619 14 22.7388C14.8739 21.9619 16.0071 20.8852 17.1329 19.6209C18.3055 18.3041 19.4247 16.8343 20.2405 15.3318ZM14 26C14 26 24 18.3636 24 11.1765C24 6.10845 19.5228 2 14 2C8.47715 2 4 6.10845 4 11.1765C4 18.3636 14 26 14 26Z" fill="#081D25"/>
<path fill-rule="evenodd" clip-rule="evenodd" d="M14 12.5C14.8284 12.5 15.5 11.8284 15.5 11C15.5 10.1716 14.8284 9.5 14 9.5C13.1716 9.5 12.5 10.1716 12.5 11C12.5 11.8284 13.1716 12.5 14 12.5ZM14 15C16.2091 15 18 13.2091 18 11C18 8.79086 16.2091 7 14 7C11.7909 7 10 8.79086 10 11C10 13.2091 11.7909 15 14 15Z" fill="#081D25"/>
</svg>
