<svg width="28" height="28" viewBox="0 0 28 28" fill="none" xmlns="http://www.w3.org/2000/svg">
<path fill-rule="evenodd" clip-rule="evenodd" d="M16.7067 6.6785H24.3661C26.3731 6.6785 28 8.3254 28 10.357V22.3276C28 24.3592 26.3731 26.0061 24.3661 26.0061H3.63386C1.62694 26.0061 0 24.3592 0 22.3276V10.357C0 8.61413 1.19735 7.15439 2.80479 6.77467L4.45257 3.88558C5.4847 2.07593 7.77064 1.45589 9.55835 2.5007L16.7067 6.6785ZM5.73691 6.6785L6.61053 5.14677C6.95457 4.54356 7.71655 4.33688 8.31245 4.68515L11.7232 6.6785H5.73691ZM2.28414 10.357C2.28414 9.60239 2.88843 8.99068 3.63386 8.99068H24.3661C25.1116 8.99068 25.7159 9.60239 25.7159 10.357V22.3276C25.7159 23.0822 25.1116 23.6939 24.3661 23.6939H3.63386C2.88843 23.6939 2.28414 23.0822 2.28414 22.3276V10.357Z" fill="#081D25"/>
<path fill-rule="evenodd" clip-rule="evenodd" d="M14 14.5422C12.8114 14.5422 11.8478 15.5057 11.8478 16.6943C11.8478 17.8829 12.8114 18.8465 14 18.8465C15.1886 18.8465 16.1522 17.8829 16.1522 16.6943C16.1522 15.5057 15.1886 14.5422 14 14.5422ZM9.5 16.6943C9.5 14.2091 11.5147 12.1943 14 12.1943C16.4853 12.1943 18.5 14.2091 18.5 16.6943C18.5 19.1796 16.4853 21.1943 14 21.1943C11.5147 21.1943 9.5 19.1796 9.5 16.6943Z" fill="#E25740"/>
</svg>
