<svg width="28" height="28" viewBox="0 0 28 28" fill="none" xmlns="http://www.w3.org/2000/svg">
<path d="M20.409 12.0105L20.409 12.0089L22.9714 12.0089V12.0105C22.9712 13.0334 22.8181 14.0435 22.5227 15.0089C22.1701 16.1612 21.6148 17.25 20.8749 18.2214C20.6453 18.5229 20.4 18.8102 20.1405 19.0825L25.535 24.477L23.7672 26.2447L18.1976 20.6751C17.3498 21.2111 16.4226 21.6233 15.4429 21.8933C13.2791 22.4897 10.9794 22.3597 8.89668 21.5231C6.81395 20.6865 5.06328 19.1895 3.91332 17.262C2.76336 15.3345 2.27765 13.083 2.53073 10.8528C2.78381 8.62263 3.7617 6.53713 5.31433 4.91632C6.86695 3.29551 8.90853 2.22895 11.1258 1.88032C12.3319 1.69066 13.5538 1.71916 14.7354 1.95623C15.7258 2.15494 16.6878 2.5002 17.5885 2.98634L16.3714 5.24124L16.3701 5.24055C14.8889 4.4414 13.1864 4.1502 11.5238 4.41163C9.86068 4.67313 8.32932 5.47314 7.16473 6.68888C6.00013 7.90462 5.26663 9.46892 5.0768 11.1417C4.88697 12.8145 5.25129 14.5034 6.11385 15.9492C6.97642 17.395 8.28957 18.5178 9.85179 19.1453C11.414 19.7728 13.139 19.8704 14.762 19.423C16.385 18.9757 17.8164 18.0081 18.8365 16.6688C19.8562 15.3299 20.4086 13.6935 20.409 12.0105Z" fill="#081d25"/>
</svg>
