<svg width="28" height="28" viewBox="0 0 28 28" fill="none" xmlns="http://www.w3.org/2000/svg">
<path d="M5.87988 19.0647V20.3884C5.87988 22.412 6.64352 23.2266 8.57806 23.2266H23.6981V16.2266H8.57806C6.64352 16.2266 5.87988 17.0411 5.87988 19.0647Z" fill="#081D25"/>
<path d="M12.2437 9.51885V10.8425C12.2437 12.8661 13.02 13.6807 14.9418 13.6807H23.6982V6.68066H14.9418C13.02 6.68066 12.2437 7.49521 12.2437 9.51885Z" fill="#081D25"/>
<path d="M23.6982 25.454C23.1764 25.454 22.7437 25.0646 22.7437 24.5949V3.40401C22.7437 2.93438 23.1764 2.54492 23.6982 2.54492C24.22 2.54492 24.6527 2.93438 24.6527 3.40401V24.5949C24.6655 25.0646 24.2327 25.454 23.6982 25.454Z" fill="#081D25"/>
</svg>
