<svg width="28" height="28" viewBox="0 0 28 28" fill="none" xmlns="http://www.w3.org/2000/svg">
<path fill-rule="evenodd" clip-rule="evenodd" d="M14.0001 4.62441L11.7519 8.12458C11.1426 9.07333 10.1992 9.75872 9.10856 10.0451L5.08498 11.1016L7.71911 14.3214C8.43312 15.1941 8.79345 16.3031 8.7288 17.4288L8.49026 21.582L12.3664 20.0717C13.4171 19.6624 14.5831 19.6624 15.6338 20.0717L19.51 21.582L19.2714 17.4288C19.2068 16.3031 19.5671 15.1941 20.2811 14.3214L22.9152 11.1016L18.8916 10.0451C17.801 9.75872 16.8577 9.07333 16.2483 8.12458L14.0001 4.62441ZM15.6829 2.61836C14.8957 1.39284 13.1045 1.39284 12.3173 2.61836L9.64846 6.77351C9.37762 7.19518 8.95835 7.49979 8.47363 7.62708L3.69712 8.8813C2.28833 9.25123 1.73481 10.9548 2.65711 12.0821L5.78416 15.9044C6.1015 16.2923 6.26165 16.7852 6.23291 17.2855L5.94973 22.2158C5.86621 23.6699 7.31536 24.7228 8.67253 24.194L13.274 22.4012C13.741 22.2192 14.2592 22.2192 14.7262 22.4012L19.3277 24.194C20.6849 24.7228 22.134 23.6699 22.0505 22.2158L21.7673 17.2855C21.7386 16.7852 21.8987 16.2923 22.216 15.9044L25.3431 12.0821C26.2654 10.9548 25.7119 9.25123 24.3031 8.8813L19.5266 7.62708C19.0419 7.4998 18.6226 7.19518 18.3517 6.77351L15.6829 2.61836Z" fill="#081D25"/>
</svg>
