<svg width="28" height="28" viewBox="0 0 28 28" fill="none" xmlns="http://www.w3.org/2000/svg">
<path fill-rule="evenodd" clip-rule="evenodd" d="M19.8138 6.22222C19.8138 9.65866 17.028 12.4444 13.5916 12.4444C10.1552 12.4444 7.36938 9.65866 7.36938 6.22222C7.36938 2.78578 10.1552 0 13.5916 0C17.028 0 19.8138 2.78578 19.8138 6.22222ZM17.2212 6.22222C17.2212 8.22681 15.5962 9.85185 13.5916 9.85185C11.587 9.85185 9.96198 8.22681 9.96198 6.22222C9.96198 4.21763 11.587 2.59259 13.5916 2.59259C15.5962 2.59259 17.2212 4.21763 17.2212 6.22222Z" fill="#081D25"/>
<path fill-rule="evenodd" clip-rule="evenodd" d="M6.28016 16.8854L3.44885 22.4536C2.1578 24.9927 4.00243 28 6.85087 28H21.3694C24.1361 28 25.8663 25.0061 24.4849 22.6089L20.9836 16.5331C19.6182 14.1638 17.0916 12.7037 14.357 12.7037H13.0976C10.2193 12.7037 7.58474 14.3197 6.28016 16.8854ZM5.75984 23.6287L8.59116 18.0604C9.45351 16.3645 11.195 15.2963 13.0976 15.2963H14.357C16.1646 15.2963 17.8347 16.2614 18.7373 17.8276L22.2386 23.9034C22.624 24.5721 22.1413 25.4074 21.3694 25.4074H6.85087C5.93738 25.4074 5.34581 24.443 5.75984 23.6287Z" fill="#081D25"/>
</svg>
