<svg width="347" height="110" viewBox="0 0 347 110" fill="none" xmlns="http://www.w3.org/2000/svg">
<path d="M0.00570398 54.876C-0.432167 25.0148 24.3374 -0.89479 56.1094 0.0237304C84.0109 0.829778 110.384 24.1151 108.777 58.4113C107.552 84.5009 85.2652 112.094 50.1461 109.874C24.0406 108.229 -0.406194 85.5094 0.00570398 54.876ZM1.91302 54.786C1.40093 84.6546 25.7884 108.097 54.2614 108.232C67.9728 108.3 80.1702 103.396 90.2562 93.761C100.342 84.126 106.064 72.234 106.825 58.1864C108.588 25.6334 82.7752 2.60307 55.8533 1.90574C25.6659 1.12594 1.41578 26.267 1.91302 54.786Z" fill="#76856D"/>
<path d="M346.973 55.276C347.949 84.1884 322.401 111.899 288.656 109.898C262.436 108.343 235.756 86.0261 237.408 52.3111C238.746 25.0393 261.482 0.0255891 294.084 0.840282C322.54 1.55454 347.358 24.9463 346.973 55.276ZM239.311 55.276C239.045 84.2888 262.574 108.187 292.271 108.131C321.362 108.094 345.126 85.4606 345.265 55.5736C345.403 26.1851 322.356 3.76054 294.162 2.71892C263.056 1.58802 238.937 26.9477 239.311 55.3058L239.311 55.276Z" fill="#76856D"/>
<path d="M173.704 109.98C144.446 110.818 116.819 85.7686 118.764 52.1525C120.337 25.0547 142.78 0.0317003 175.467 0.839976C203.146 1.52534 230.149 24.753 228.237 59.196C226.762 85.7872 203.855 110.333 173.704 109.98ZM226.313 55.5234C226.769 26.3323 202.627 3.59259 175.661 2.73589C144.031 1.72647 122.036 26.5931 120.669 52.1785C118.925 84.8076 145.024 108.46 173.697 108.341C202.627 108.214 226.698 84.6623 226.313 55.5234Z" fill="#76856D"/>
<path d="M55.8234 45.1484C52.1052 42.4602 49.5519 38.8157 48.7297 33.9538C47.6608 27.7854 48.5332 21.4143 51.2109 15.8273C52.8121 12.371 54.2726 8.85325 55.9893 4.92457C57.641 7.34399 59.3071 9.46771 60.6414 11.8065C63.0469 16.0309 64.713 20.5126 64.6517 25.6087C64.5904 30.5052 63.0433 34.7718 60.3854 38.6659C58.9248 40.7973 57.4138 42.8941 55.8234 45.1484Z" fill="#76856D"/>
<path d="M32.9106 99.3281C27.8757 87.9837 29.7035 75.6324 41.5934 68.9686C44.3179 67.4489 46.993 65.8191 50.0823 64.0296C50.7169 65.8457 51.6213 67.6845 52.0013 69.6297C53.3427 76.4417 51.0019 82.2849 46.4876 87.2162C44.8005 89.055 42.3875 90.2556 40.2178 91.6233C37.1855 93.5039 34.5256 95.7113 32.9106 99.3281Z" fill="#E25740"/>
<path d="M96.5708 30.3716C95.4999 38.3975 91.2236 44.2832 84.6824 48.6363C77.8464 53.1805 70.5403 51.7702 63.0177 50.2262C62.9808 47.2727 63.8371 44.3795 65.4693 41.9442C68.4544 37.358 72.6859 34.5947 78.089 34.0368C80.201 33.8189 82.3503 33.9909 84.4809 34.0023C88.8243 34.0291 92.8655 33.0736 96.5708 30.3716Z" fill="#76856D"/>
<path d="M288.538 5.74546C290.953 8.66907 293.395 11.1686 295.278 14.0246C297.751 17.7777 299.462 21.906 299.531 26.5522C299.611 31.4837 297.724 35.7208 295.149 39.7741C294.053 41.4967 293.034 43.2719 291.904 45.1484C286.75 42.2436 283.707 37.8526 282.688 31.889C281.368 24.1953 284.118 17.3723 286.872 10.4968C287.401 9.16822 287.815 7.82839 288.538 5.74546Z" fill="#76856D"/>
<path d="M283.983 59.1026C283.608 68.8267 276.343 75.2427 268.132 76.7133C264.92 77.2875 261.557 76.9949 258.262 77.1616C255.579 77.2949 253.008 77.8395 250.573 79.625C250.52 79.0619 250.363 78.5989 250.46 78.1951C251.642 73.2275 253.721 68.634 257.32 64.9556C260.157 62.0513 263.7 59.9213 267.877 59.6286C273.224 59.2545 278.598 59.2582 283.983 59.1026Z" fill="#E25740"/>
<path d="M341.271 53.6786C335.746 59.8025 329.286 62.7265 321.241 63.1728C312.775 63.648 307.002 59.1059 301.17 54.103C303.826 50.5114 307.39 47.8594 312.357 47.054C318.015 46.1398 322.983 47.6562 327.632 50.613C331.594 53.138 335.897 54.5819 341.271 53.6786Z" fill="#76856D"/>
<path d="M182.502 51.3839C184.885 46.1118 188.963 42.6398 194.863 41.4197C199.841 40.3878 204.417 41.6117 208.967 43.6603C213.057 45.5093 217.373 46.3641 221.785 44.4511C221.614 47.5504 215.837 53.3986 209.696 56.1251C199.688 60.5536 190.841 57.7782 182.502 51.3839Z" fill="#76856D"/>
<path d="M166.946 46.793C163.104 46.5225 159.112 45.9177 155.702 43.1304C149.982 38.4535 147.308 32.0975 145.909 25.009C145.301 21.9287 144.686 18.8521 144.038 15.5989C148.439 16.3209 152.68 17.8375 156.56 20.0767C162.172 23.3937 165.502 28.311 166.78 34.7271C166.883 35.2113 166.941 35.7041 166.953 36.1996C166.953 39.6782 166.946 43.1416 166.946 46.793Z" fill="#E25740"/>
<path d="M179.024 104.254C174.723 101.826 171.876 98.4438 169.565 94.5294C167.836 91.5965 166.722 88.3475 166.994 85.0651C167.273 81.7195 168.261 78.3368 169.435 75.151C170.609 71.9653 172.416 68.9617 174.034 65.6718C176.218 66.6569 178.316 68.0769 179.769 70.1326C184.67 76.9911 185.628 84.2585 181.729 91.9719C179.84 95.7152 178.278 99.5813 179.024 104.254Z" fill="#76856D"/>
</svg>
