<svg width="207" height="206" viewBox="0 0 207 206" fill="none" xmlns="http://www.w3.org/2000/svg">
<path d="M98.1661 1.95727C101.174 -0.652422 105.643 -0.652423 108.651 1.95727L123.405 14.7577C125.261 16.3679 127.754 17.0359 130.167 16.5694L149.344 12.8609C153.254 12.1048 157.125 14.3395 158.425 18.1035L164.802 36.5659C165.604 38.8885 167.429 40.7135 169.752 41.5157L188.214 47.8927C191.978 49.1929 194.213 53.0635 193.457 56.9733L189.748 76.1507C189.282 78.5632 189.95 81.0562 191.56 82.9123L204.36 97.6661C206.97 100.674 206.97 105.143 204.36 108.151L191.56 122.905C189.95 124.761 189.282 127.254 189.748 129.667L193.457 148.844C194.213 152.754 191.978 156.625 188.214 157.925L169.752 164.302C167.429 165.104 165.604 166.929 164.802 169.252L158.425 187.714C157.125 191.478 153.254 193.713 149.344 192.957L130.167 189.248C127.754 188.782 125.261 189.45 123.405 191.06L108.651 203.86C105.643 206.47 101.174 206.47 98.1661 203.86L83.4123 191.06C81.5562 189.45 79.0632 188.782 76.6507 189.248L57.4733 192.957C53.5635 193.713 49.6929 191.478 48.3927 187.714L42.0157 169.252C41.2135 166.929 39.3885 165.104 37.0659 164.302L18.6035 157.925C14.8395 156.625 12.6048 152.754 13.3609 148.844L17.0694 129.667C17.5359 127.254 16.8679 124.761 15.2577 122.905L2.45727 108.151C-0.152422 105.143 -0.152423 100.674 2.45727 97.6661L15.2577 82.9123C16.8679 81.0562 17.5359 78.5632 17.0694 76.1507L13.3609 56.9733C12.6048 53.0635 14.8395 49.1929 18.6035 47.8927L37.0659 41.5157C39.3885 40.7135 41.2135 38.8885 42.0157 36.5659L48.3927 18.1035C49.6929 14.3395 53.5635 12.1048 57.4733 12.8609L76.6507 16.5694C79.0632 17.0359 81.5562 16.3679 83.4123 14.7577L98.1661 1.95727Z" fill="#F4F3F2"/>
<path d="M163.464 116.446C163.629 115.678 163.908 114.995 164.302 114.398C164.704 113.802 165.191 113.316 165.76 112.94C166.33 112.563 166.96 112.307 167.652 112.17C168.341 112.043 169.06 112.06 169.81 112.221C170.559 112.382 171.222 112.661 171.799 113.059C172.373 113.467 172.842 113.96 173.207 114.537C173.57 115.123 173.808 115.769 173.921 116.475C174.044 117.183 174.023 117.922 173.858 118.69C173.699 119.429 173.423 120.098 173.03 120.695C172.647 121.295 172.159 121.765 171.566 122.106L171.027 121.273C171.546 120.947 171.952 120.55 172.245 120.084C172.548 119.62 172.763 119.096 172.888 118.513C173.02 117.9 173.035 117.308 172.933 116.737C172.842 116.168 172.643 115.647 172.337 115.174C172.041 114.704 171.659 114.301 171.191 113.967C170.731 113.644 170.194 113.417 169.581 113.286C168.968 113.154 168.38 113.14 167.818 113.244C167.264 113.359 166.75 113.569 166.277 113.875C165.814 114.183 165.419 114.576 165.092 115.055C164.775 115.537 164.55 116.084 164.419 116.697C164.293 117.28 164.274 117.846 164.36 118.393C164.446 118.941 164.658 119.47 164.997 119.98L164.163 120.519C163.763 119.965 163.506 119.335 163.393 118.629C163.28 117.923 163.304 117.195 163.464 116.446Z" fill="#C1B59F"/>
<path d="M160.861 125.011C161.156 124.25 161.573 123.644 162.112 123.191C162.661 122.742 163.276 122.463 163.959 122.355C164.652 122.25 165.36 122.338 166.084 122.618C166.808 122.899 167.389 123.3 167.827 123.822C168.261 124.354 168.532 124.95 168.638 125.61C168.751 126.283 168.675 126.958 168.412 127.635C168.146 128.321 167.752 128.868 167.231 129.274C166.716 129.693 166.116 129.946 165.431 130.032C164.755 130.123 164.05 130.025 163.317 129.741C163.271 129.723 163.221 129.699 163.169 129.668C163.123 129.65 163.072 129.63 163.016 129.608L165.486 123.251L166.223 123.537L163.959 129.366L163.818 128.863C164.347 129.068 164.861 129.134 165.36 129.06C165.864 129 166.307 128.82 166.691 128.52C167.074 128.221 167.365 127.816 167.563 127.306C167.758 126.805 167.816 126.31 167.739 125.821C167.662 125.333 167.458 124.896 167.127 124.511C166.795 124.127 166.361 123.83 165.822 123.621L165.669 123.562C165.112 123.346 164.573 123.276 164.053 123.351C163.538 123.44 163.075 123.655 162.664 123.997C162.259 124.353 161.947 124.813 161.727 125.379C161.554 125.824 161.473 126.267 161.483 126.709C161.49 127.16 161.601 127.587 161.818 127.991L160.961 128.299C160.698 127.823 160.559 127.3 160.546 126.73C160.529 126.168 160.634 125.595 160.861 125.011Z" fill="#C1B59F"/>
<path d="M156.568 133.936C156.908 133.351 157.349 132.9 157.891 132.581C158.441 132.268 159.053 132.117 159.726 132.128C160.403 132.152 161.111 132.38 161.852 132.809C162.592 133.239 163.136 133.739 163.484 134.309C163.841 134.884 164.015 135.486 164.007 136.114C163.998 136.742 163.822 137.353 163.477 137.946C163.102 138.591 162.62 139.083 162.033 139.42C161.448 139.772 160.809 139.941 160.113 139.929C159.427 139.921 158.744 139.72 158.063 139.326C157.375 138.926 156.857 138.43 156.51 137.838C156.164 137.245 155.994 136.606 156.002 135.92C156.004 135.243 156.193 134.581 156.568 133.936ZM156.16 129.023L165.445 134.412L164.935 135.289L162.895 134.105L161.591 133.228L160.147 132.562L155.627 129.939L156.16 129.023ZM157.419 134.344C157.139 134.826 156.996 135.318 156.992 135.822C156.995 136.33 157.13 136.811 157.396 137.265C157.671 137.723 158.071 138.105 158.596 138.409C159.121 138.714 159.647 138.87 160.173 138.876C160.699 138.882 161.184 138.761 161.628 138.512C162.072 138.264 162.434 137.899 162.714 137.417C162.994 136.935 163.134 136.436 163.135 135.919C163.132 135.41 162.997 134.929 162.731 134.476C162.46 134.031 162.062 133.656 161.536 133.351C161.011 133.046 160.484 132.884 159.954 132.864C159.428 132.858 158.943 132.979 158.499 133.228C158.059 133.49 157.699 133.862 157.419 134.344Z" fill="#C1B59F"/>
<path d="M153.208 139.381L159.287 144.329L157.098 147.013C156.539 147.699 155.967 148.133 155.384 148.312C154.795 148.5 154.245 148.386 153.736 147.971C153.242 147.569 153.013 147.069 153.051 146.471C153.097 145.88 153.371 145.276 153.875 144.659L153.986 145.018C153.395 145.743 152.826 146.166 152.279 146.285C151.732 146.405 151.204 146.257 150.694 145.842C150.169 145.415 149.917 144.889 149.938 144.265C149.961 143.654 150.299 142.948 150.953 142.146L153.208 139.381ZM153.205 140.707L151.63 142.639C151.209 143.156 150.972 143.611 150.92 144.005C150.87 144.414 151.03 144.769 151.401 145.07C151.771 145.372 152.139 145.472 152.504 145.371C152.868 145.27 153.262 144.962 153.683 144.445L155.324 142.432L153.205 140.707ZM155.938 142.931L154.447 144.759C154.064 145.23 153.86 145.661 153.837 146.052C153.807 146.451 153.961 146.789 154.301 147.065C154.641 147.342 154.999 147.422 155.377 147.305C155.748 147.197 156.125 146.907 156.509 146.437L157.999 144.609L155.938 142.931Z" fill="#C1B59F"/>
<path d="M147.204 146.502L152.438 152.335L151.649 153.042L147.491 148.409L147.745 156.539L147.045 157.166L141.811 151.333L142.6 150.626L146.768 155.27L146.493 147.139L147.204 146.502Z" fill="#C1B59F"/>
<path d="M136.445 155.021C137.094 154.595 137.769 154.354 138.471 154.298C139.17 154.256 139.829 154.389 140.448 154.696C141.073 155.012 141.599 155.495 142.025 156.143C142.457 156.8 142.691 157.473 142.728 158.163C142.765 158.853 142.622 159.506 142.301 160.122C141.971 160.744 141.481 161.267 140.832 161.694C140.275 162.06 139.7 162.282 139.109 162.361C138.517 162.44 137.95 162.348 137.408 162.085L137.774 161.201C138.218 161.386 138.658 161.449 139.095 161.388C139.531 161.328 139.945 161.169 140.336 160.912C140.802 160.606 141.151 160.222 141.384 159.76C141.621 159.307 141.723 158.818 141.688 158.293C141.652 157.769 141.465 157.249 141.126 156.733C140.787 156.218 140.384 155.84 139.916 155.599C139.448 155.359 138.956 155.253 138.439 155.283C137.928 155.321 137.44 155.493 136.974 155.799C136.583 156.056 136.273 156.372 136.044 156.749C135.815 157.125 135.695 157.549 135.683 158.021L134.726 158.007C134.705 157.413 134.846 156.857 135.148 156.337C135.455 155.826 135.887 155.388 136.445 155.021Z" fill="#C1B59F"/>
<path d="M132.31 157.703L135.605 164.812L134.643 165.257L133.187 162.116L128.701 164.191L130.157 167.333L129.195 167.778L125.9 160.669L126.862 160.224L128.318 163.365L132.804 161.29L131.348 158.148L132.31 157.703Z" fill="#C1B59F"/>
<path d="M118.045 163.196L118.53 164.858L118.653 165.118L119.463 167.897C119.65 168.537 119.975 168.976 120.439 169.214C120.892 169.455 121.473 169.472 122.18 169.266C122.668 169.124 123.108 168.908 123.5 168.618C123.893 168.327 124.203 168.004 124.431 167.647L125.111 168.273C124.823 168.709 124.437 169.091 123.952 169.419C123.469 169.756 122.932 170.011 122.339 170.184C121.364 170.468 120.543 170.443 119.875 170.109C119.2 169.787 118.72 169.134 118.433 168.15L117.07 163.48L118.045 163.196ZM120.62 162.369C121.184 162.205 121.702 162.152 122.176 162.211C122.643 162.282 123.033 162.448 123.348 162.709C123.665 162.979 123.887 163.329 124.012 163.759C124.126 164.151 124.139 164.531 124.049 164.899C123.952 165.279 123.722 165.626 123.357 165.939C122.985 166.265 122.441 166.533 121.724 166.741L119.129 167.497L118.907 166.738L121.474 165.99C122.2 165.779 122.669 165.502 122.881 165.161C123.083 164.822 123.128 164.462 123.017 164.08C122.891 163.65 122.624 163.355 122.214 163.195C121.804 163.034 121.298 163.042 120.696 163.217C120.123 163.384 119.668 163.656 119.332 164.034C118.989 164.424 118.795 164.895 118.749 165.447L118.315 164.812C118.361 164.26 118.58 163.766 118.971 163.331C119.353 162.898 119.903 162.578 120.62 162.369Z" fill="#C1B59F"/>
<path d="M109.747 164.719L110.147 167.51L109.923 167.316L112.555 166.939C113.55 166.796 114.36 166.901 114.984 167.254C115.608 167.607 115.979 168.197 116.098 169.024C116.225 169.91 116.02 170.613 115.481 171.133C114.943 171.662 114.172 171.999 113.166 172.143L109.899 172.611L108.786 164.856L109.747 164.719ZM115.423 163.905L113.723 167.194L112.629 167.35L114.285 164.068L115.423 163.905ZM110.192 167.82L110.773 171.868L110.536 171.585L113.005 171.231C113.725 171.128 114.267 170.91 114.631 170.576C114.986 170.244 115.119 169.767 115.029 169.147C114.864 167.995 114.047 167.524 112.579 167.735L110.036 168.099L110.192 167.82Z" fill="#C1B59F"/>
<path d="M101.09 165.187L100.516 173L93.4859 172.484L94.06 164.671L95.1176 164.749L94.5904 171.922L94.3431 171.619L99.7945 172.019L99.5056 172.282L100.033 165.109L101.09 165.187Z" fill="#C1B59F"/>
<path d="M88.6834 163.524C89.4214 163.691 90.0492 164.007 90.5667 164.471C91.0723 164.942 91.4291 165.507 91.6369 166.167C91.8426 166.835 91.8596 167.548 91.688 168.305C91.5141 169.071 91.1913 169.707 90.7194 170.212C90.2476 170.718 89.6829 171.069 89.0255 171.267C88.3681 171.465 87.6655 171.48 86.9178 171.31C86.1604 171.139 85.5278 170.822 85.02 170.36C84.5024 169.896 84.1446 169.336 83.9465 168.679C83.7386 168.02 83.7216 167.307 83.8954 166.541C84.067 165.784 84.3899 165.148 84.864 164.633C85.3261 164.126 85.8919 163.769 86.5612 163.564C87.2283 163.368 87.9358 163.355 88.6834 163.524ZM88.4755 164.441C87.922 164.316 87.4042 164.326 86.9219 164.472C86.4375 164.627 86.0232 164.901 85.6793 165.292C85.3234 165.691 85.0784 166.186 84.9441 166.778C84.8077 167.38 84.8152 167.932 84.9664 168.436C85.108 168.937 85.3649 169.357 85.7371 169.697C86.1072 170.046 86.5641 170.282 87.1079 170.405C87.6516 170.528 88.1657 170.512 88.6502 170.356C89.1325 170.21 89.5504 169.943 89.9041 169.554C90.2578 169.164 90.5028 168.669 90.6392 168.068C90.7735 167.476 90.766 166.923 90.617 166.41C90.4657 165.907 90.2051 165.48 89.835 165.131C89.4628 164.792 89.0096 164.562 88.4755 164.441Z" fill="#C1B59F"/>
<path d="M77.5837 160.578L75.2432 166.537L78.7606 167.917L79.4823 166.324C79.6936 165.841 79.9152 165.372 80.147 164.918C80.3696 164.46 80.61 164.052 80.8684 163.694C81.1138 163.341 81.3737 163.074 81.648 162.893C81.9187 162.721 82.2003 162.672 82.4929 162.744L83.4091 163.311C83.1254 163.189 82.849 163.198 82.58 163.339C82.3073 163.488 82.0455 163.733 81.7944 164.073C81.5433 164.412 81.3001 164.814 81.0646 165.277C80.8255 165.75 80.592 166.236 80.3641 166.734L79.3121 169.127L73.9179 167.012L76.5967 160.191L77.5837 160.578ZM84.7461 160.806L83.7149 163.431L75.3039 160.133L76.335 157.508L77.2665 157.873L76.5736 159.637L83.1217 162.205L83.8146 160.44L84.7461 160.806Z" fill="#C1B59F"/>
<path d="M69.2602 156.256L66.0626 161.804L69.3369 163.688L70.2866 162.22C70.5672 161.773 70.8558 161.342 71.1524 160.927C71.4403 160.507 71.7386 160.139 72.0471 159.823C72.3421 159.511 72.6387 159.285 72.9368 159.147C73.2299 159.017 73.5158 159.009 73.7945 159.124L74.6165 159.821C74.354 159.658 74.0793 159.626 73.7925 159.725C73.5006 159.833 73.2054 160.036 72.9068 160.335C72.6081 160.634 72.3081 160.995 72.0065 161.418C71.7 161.85 71.3972 162.296 71.098 162.755L69.703 164.966L64.6816 162.077L68.3414 155.727L69.2602 156.256ZM76.3099 157.541L74.9012 159.985L67.0714 155.479L68.4802 153.035L69.3473 153.534L68.4007 155.176L74.4962 158.684L75.4428 157.042L76.3099 157.541Z" fill="#C1B59F"/>
<path d="M63.5965 151.536C64.235 152.044 64.6903 152.622 64.9622 153.271C65.2279 153.928 65.3109 154.598 65.2113 155.282C65.1054 155.974 64.8106 156.623 64.3267 157.23C63.8428 157.837 63.2863 158.271 62.6571 158.534C62.0201 158.79 61.3703 158.87 60.7077 158.776C60.0311 158.682 59.4085 158.409 58.84 157.957C58.2637 157.498 57.8591 156.96 57.6262 156.342C57.3792 155.726 57.3164 155.078 57.4378 154.399C57.5531 153.727 57.8557 153.084 58.3458 152.469C58.3768 152.431 58.4148 152.391 58.4599 152.35C58.4909 152.311 58.525 152.269 58.5622 152.222L63.9006 156.471L63.4074 157.09L58.5129 153.194L59.0354 153.209C58.6818 153.653 58.4659 154.123 58.3876 154.62C58.2953 155.119 58.3352 155.596 58.5072 156.051C58.6792 156.506 58.9793 156.904 59.4077 157.245C59.8282 157.579 60.2834 157.783 60.7734 157.855C61.2633 157.927 61.7414 157.862 62.2074 157.661C62.6735 157.459 63.0864 157.133 63.4462 156.682L63.5486 156.553C63.9208 156.086 64.1484 155.593 64.2312 155.074C64.3001 154.557 64.2322 154.051 64.0275 153.558C63.8088 153.066 63.4619 152.63 62.9869 152.252C62.6131 151.955 62.2138 151.745 61.789 151.623C61.3565 151.495 60.9148 151.474 60.4641 151.561L60.4249 150.652C60.958 150.542 61.4992 150.566 62.0484 150.723C62.5898 150.874 63.1058 151.145 63.5965 151.536Z" fill="#C1B59F"/>
<path d="M56.313 144.762C56.7704 145.261 57.0703 145.816 57.2127 146.428C57.3478 147.047 57.3098 147.675 57.0987 148.314C56.8735 148.952 56.4453 149.56 55.814 150.138C55.1827 150.716 54.5429 151.086 53.8945 151.248C53.2389 151.416 52.6123 151.403 52.0147 151.208C51.4172 151.013 50.8864 150.662 50.4222 150.156C49.9177 149.606 49.5918 149 49.4445 148.339C49.2832 147.677 49.312 147.017 49.5311 146.357C49.7428 145.705 50.1386 145.113 50.7185 144.582C51.3057 144.044 51.9339 143.698 52.6031 143.545C53.2722 143.391 53.9334 143.419 54.5865 143.631C55.233 143.835 55.8085 144.212 56.313 144.762ZM61.1284 145.838L53.2117 153.087L52.5256 152.339L54.2653 150.746L55.492 149.765L56.5583 148.586L60.412 145.057L61.1284 145.838ZM55.6697 145.453C55.293 145.042 54.865 144.759 54.3855 144.604C53.8986 144.457 53.399 144.442 52.8864 144.56C52.3665 144.685 51.8827 144.953 51.4349 145.363C50.9871 145.773 50.6819 146.228 50.5191 146.728C50.3563 147.228 50.3275 147.726 50.4326 148.224C50.5377 148.721 50.7787 149.175 51.1553 149.586C51.532 149.997 51.9672 150.28 52.4607 150.435C52.9475 150.583 53.4472 150.598 53.9598 150.479C54.4656 150.354 54.9424 150.086 55.3902 149.676C55.838 149.266 56.1503 148.811 56.3271 148.312C56.4899 147.812 56.5187 147.313 56.4136 146.816C56.2944 146.318 56.0464 145.863 55.6697 145.453Z" fill="#C1B59F"/>
<path d="M47.1802 132.33L45.3313 136.672L44.419 136.206L46.5027 131.257L47.1802 132.33ZM46.6002 137.954L45.8298 138.44L44.5066 136.345L45.2771 135.859L46.6002 137.954ZM44.8684 135.799L45.2841 136.737L40.6054 136.6L39.9917 135.628L44.8684 135.799ZM52.1382 140.179L52.8157 141.252L47.4479 141.002L47.4276 139.991L52.1382 140.179ZM49.3802 135.813L49.9462 136.709L43.3156 140.89L42.7496 139.994L49.3802 135.813ZM46.8154 138.295L48.1306 140.377L47.3602 140.863L46.045 138.781L46.8154 138.295ZM48.0009 140.759L46.0655 145.244L45.4518 144.272L47.3485 140.006L48.0009 140.759Z" fill="#C1B59F"/>
<path d="M43.5279 124.053L41.1916 128.525L40.3692 127.914L43.0435 122.897L43.5279 124.053ZM45.748 129.353L38.5153 132.378L38.1059 131.4L45.3386 128.375L45.748 129.353ZM42.2417 130.027L41.4013 130.378L40.4268 128.052L41.2672 127.7L42.2417 130.027ZM40.8856 127.601L41.1284 128.567L36.3413 127.188L35.8973 126.128L40.8856 127.601Z" fill="#C1B59F"/>
<path d="M41.4516 117.037L39.7794 117.49L39.5173 117.607L36.7208 118.364C36.077 118.539 35.6315 118.855 35.3845 119.314C35.1349 119.763 35.1065 120.342 35.2992 121.053C35.432 121.543 35.64 121.986 35.9232 122.384C36.2063 122.781 36.5241 123.097 36.8765 123.331L36.2375 123.999C35.8066 123.704 35.4318 123.31 35.113 122.82C34.7845 122.331 34.5396 121.789 34.3781 121.194C34.1125 120.215 34.1531 119.395 34.5 118.734C34.8347 118.066 35.4969 117.598 36.4867 117.33L41.1859 116.058L41.4516 117.037ZM42.2307 119.624C42.3843 120.191 42.4271 120.71 42.3591 121.182C42.2789 121.647 42.1054 122.034 41.8386 122.344C41.5621 122.655 41.2077 122.87 40.7752 122.987C40.3812 123.094 40.0009 123.099 39.6343 123.002C39.2555 122.899 38.9127 122.662 38.6059 122.291C38.2869 121.914 38.0298 121.365 37.8344 120.645L37.1274 118.038L37.8914 117.831L38.5906 120.409C38.7885 121.139 39.0563 121.613 39.3939 121.83C39.7289 122.039 40.0886 122.091 40.473 121.987C40.9054 121.87 41.2058 121.608 41.3741 121.201C41.5424 120.795 41.5445 120.29 41.3805 119.685C41.2242 119.108 40.9604 118.649 40.5889 118.306C40.2053 117.957 39.7375 117.754 39.1857 117.697L39.8296 117.275C40.3814 117.332 40.8713 117.56 41.2994 117.959C41.7249 118.349 42.0354 118.904 42.2307 119.624Z" fill="#C1B59F"/>
<path d="M36.8786 104.594C36.8847 104.793 36.8408 104.983 36.7468 105.165C36.6525 105.337 36.5223 105.476 36.3562 105.58C36.1901 105.685 35.9926 105.741 35.7637 105.748C35.5547 105.754 35.3641 105.71 35.1918 105.616C35.0196 105.522 34.8811 105.392 34.7764 105.226C34.6713 105.05 34.6157 104.863 34.6096 104.664C34.6034 104.465 34.6475 104.279 34.7418 104.107C34.8361 103.935 34.9663 103.797 35.1324 103.692C35.2982 103.578 35.4856 103.517 35.6945 103.511C35.9234 103.503 36.1242 103.552 36.2967 103.656C36.469 103.75 36.6075 103.88 36.7122 104.046C36.817 104.212 36.8724 104.395 36.8786 104.594Z" fill="#C1B59F"/>
<path d="M41.5282 88.1561C41.3573 88.9232 41.073 89.604 40.6754 90.1984C40.2681 90.7907 39.7782 91.2728 39.2057 91.6449C38.6332 92.017 38.0008 92.2687 37.3085 92.4002C36.6184 92.5218 35.8992 92.4995 35.1508 92.3331C34.4025 92.1666 33.7417 91.8821 33.1684 91.4794C32.5972 91.067 32.1314 90.571 31.7709 89.9914C31.4126 89.4022 31.1795 88.7541 31.0718 88.0473C30.9543 87.3383 30.981 86.6003 31.1519 85.8331C31.3163 85.0951 31.5973 84.4289 31.9949 83.8345C32.3828 83.2379 32.8744 82.7714 33.4695 82.4349L34.0022 83.2719C33.4815 83.5943 33.0727 83.9875 32.7755 84.4514C32.4687 84.9131 32.2503 85.4353 32.1205 86.018C31.9843 86.6297 31.9646 87.2216 32.0616 87.7935C32.1489 88.3633 32.3437 88.8856 32.6459 89.3605C32.9384 89.8332 33.3173 90.2385 33.7826 90.5764C34.2404 90.9025 34.7754 91.1336 35.3877 91.2697C36 91.4059 36.5875 91.4244 37.1501 91.3254C37.7053 91.2144 38.2205 91.0079 38.6957 90.706C39.1613 90.4018 39.5594 90.0114 39.89 89.5345C40.2109 89.0555 40.4395 88.5102 40.5758 87.8984C40.7055 87.3157 40.7295 86.7503 40.6476 86.2021C40.5657 85.654 40.3575 85.1235 40.0229 84.6109L40.8605 84.0786C41.2567 84.6356 41.5086 85.2674 41.6164 85.9743C41.7241 86.6811 41.6947 87.4083 41.5282 88.1561Z" fill="#C1B59F"/>
<path d="M44.1818 79.6274C43.8807 80.3857 43.459 80.9891 42.9167 81.4377C42.3651 81.8826 41.7474 82.1568 41.0636 82.2603C40.3706 82.3602 39.6631 82.267 38.9413 81.9809C38.2194 81.6947 37.6414 81.289 37.2073 80.7637C36.7769 80.2291 36.5108 79.6313 36.4091 78.9703C36.3018 78.2963 36.3822 77.6218 36.6503 76.9467C36.922 76.2624 37.3198 75.7191 37.8438 75.3168C38.3622 74.9015 38.9642 74.6532 39.6499 74.5719C40.3264 74.4868 41.0301 74.5892 41.7613 74.8791C41.8075 74.8974 41.8566 74.9222 41.9084 74.9535C41.9547 74.9718 42.0056 74.992 42.0612 75.014L39.5441 81.3529L38.8083 81.0612L41.1161 75.2494L41.2534 75.7534C40.7259 75.5443 40.2126 75.4746 39.7136 75.5443C39.2091 75.6012 38.764 75.7779 38.3784 76.0746C37.9928 76.3712 37.699 76.7738 37.4971 77.2824C37.2988 77.7818 37.2364 78.2761 37.3099 78.7655C37.3833 79.2548 37.5843 79.693 37.9126 80.08C38.2409 80.4671 38.6735 80.767 39.2102 80.9798L39.3629 81.0403C39.9182 81.2604 40.4565 81.3347 40.9776 81.263C41.4932 81.1784 41.9576 80.9665 42.3708 80.6273C42.7785 80.2752 43.0943 79.8171 43.3182 79.253C43.4945 78.8091 43.5792 78.3665 43.5724 77.9249C43.5693 77.4742 43.4609 77.0459 43.2471 76.6401L44.106 76.3384C44.3662 76.8162 44.5008 77.3404 44.5098 77.9112C44.5224 78.4728 44.4131 79.0449 44.1818 79.6274Z" fill="#C1B59F"/>
<path d="M48.4565 70.8572C48.1122 71.4397 47.6679 71.888 47.1236 72.2022C46.5707 72.5114 45.9579 72.6581 45.285 72.6422C44.6086 72.6127 43.9018 72.3804 43.1646 71.9452C42.4273 71.5101 41.8869 71.0062 41.5431 70.4335C41.1908 69.8558 41.0211 69.253 41.0339 68.6251C41.0466 67.9971 41.2277 67.3876 41.5772 66.7966C41.957 66.1542 42.442 65.6663 43.0322 65.333C43.619 64.9861 44.2599 64.8213 44.955 64.8387C45.6415 64.8511 46.3234 65.0572 47.0006 65.4569C47.6864 65.8617 48.2004 66.3615 48.5425 66.9563C48.8847 67.5512 49.0496 68.1915 49.0372 68.8775C49.0299 69.5549 48.8363 70.2148 48.4565 70.8572ZM48.8283 75.7736L39.5829 70.3164L40.0994 69.4427L42.1311 70.6419L43.4281 71.5288L44.8671 72.2049L49.3676 74.8613L48.8283 75.7736ZM47.6085 70.4433C47.892 69.9636 48.0381 69.4721 48.0466 68.9687C48.0465 68.4603 47.9152 67.9783 47.6525 67.5229C47.3813 67.0624 46.9842 66.6778 46.4613 66.3691C45.9384 66.0605 45.4139 65.9011 44.8879 65.8911C44.3619 65.881 43.8761 65.9986 43.4304 66.2439C42.9847 66.4893 42.62 66.8518 42.3364 67.3314C42.0528 67.8111 41.9085 68.3094 41.9035 68.8264C41.9036 69.3349 42.035 69.8168 42.2976 70.2723C42.5654 70.7192 42.9607 71.0969 43.4836 71.4056C44.0065 71.7142 44.5327 71.8804 45.0622 71.9041C45.5882 71.9142 46.0741 71.7965 46.5198 71.5512C46.962 71.2923 47.3249 70.923 47.6085 70.4433Z" fill="#C1B59F"/>
<path d="M51.8324 65.4162L45.7896 60.4241L47.9974 57.7559C48.5621 57.0736 49.1366 56.6446 49.7211 56.4691C50.3119 56.286 50.8605 56.4036 51.367 56.822C51.858 57.2277 52.0824 57.7293 52.0401 58.3269C51.9902 58.9181 51.7114 59.5204 51.2038 60.1338L51.0954 59.7731C51.6917 59.0524 52.2638 58.6343 52.8115 58.5188C53.3592 58.4033 53.8863 58.5548 54.3927 58.9732C54.9145 59.4042 55.1626 59.9319 55.137 60.5561C55.11 61.1663 54.7666 61.8702 54.1068 62.6675L51.8324 65.4162ZM51.8444 64.0902L53.4337 62.1695C53.8588 61.6559 54.0986 61.2021 54.1532 60.8083C54.2064 60.4005 54.0489 60.0444 53.6805 59.7402C53.3122 59.4359 52.9453 59.3328 52.5798 59.4311C52.2143 59.5293 51.8191 59.8352 51.394 60.3489L49.7381 62.35L51.8444 64.0902ZM49.1281 61.8461L50.6317 60.029C51.0187 59.5613 51.2255 59.1319 51.252 58.7407C51.2849 58.3419 51.1325 58.003 50.7949 57.7241C50.4572 57.4452 50.0993 57.3625 49.7212 57.4761C49.3493 57.5819 48.9699 57.8687 48.5829 58.3364L47.0793 60.1535L49.1281 61.8461Z" fill="#C1B59F"/>
<path d="M57.8543 58.3263L52.663 52.4552L53.4576 51.7537L57.581 56.4171L57.3861 48.2857L58.0912 47.6633L63.2825 53.5345L62.4879 54.2359L58.3546 49.5614L58.5706 57.694L57.8543 58.3263Z" fill="#C1B59F"/>
<path d="M68.7701 49.7859C68.118 50.2073 67.4408 50.4434 66.7386 50.4943C66.0394 50.5314 65.3813 50.3939 64.7643 50.0817C64.1419 49.7612 63.6198 49.2751 63.1981 48.6235C62.771 47.9635 62.5416 47.2884 62.5098 46.5981C62.4781 45.9078 62.6253 45.2558 62.9515 44.6423C63.2861 44.0233 63.7794 43.5032 64.4316 43.0818C64.9917 42.7199 65.5679 42.5017 66.1599 42.4272C66.7519 42.3527 67.3181 42.4489 67.8584 42.7159L67.4857 43.5964C67.0437 43.4081 66.6041 43.3427 66.167 43.4C65.7298 43.4574 65.3148 43.613 64.9218 43.8669C64.4536 44.1694 64.1017 44.5508 63.866 45.0111C63.6249 45.463 63.52 45.9513 63.5513 46.4761C63.5826 47.0008 63.7659 47.5221 64.1011 48.0401C64.4363 48.558 64.8369 48.9389 65.303 49.1828C65.7691 49.4266 66.2605 49.5356 66.7773 49.5097C67.2887 49.4754 67.7785 49.3071 68.2467 49.0046C68.6396 48.7507 68.952 48.4363 69.1837 48.0615C69.4154 47.6867 69.5387 47.2635 69.5536 46.7918L70.5102 46.8135C70.5268 47.407 70.3823 47.9624 70.0768 48.4797C69.7658 48.9886 69.3303 49.424 68.7701 49.7859Z" fill="#C1B59F"/>
<path d="M72.7635 47.1938L69.5217 40.0605L70.4872 39.6224L71.9197 42.7747L76.4208 40.7325L74.9882 37.5802L75.9537 37.1421L79.1955 44.2755L78.23 44.7135L76.7975 41.5613L72.2964 43.6035L73.729 46.7557L72.7635 47.1938Z" fill="#C1B59F"/>
<path d="M87.0914 41.7612L86.6193 40.0957L86.4988 39.8351L85.7093 37.0497C85.5275 36.4084 85.2057 35.9669 84.744 35.7254C84.2919 35.4811 83.7114 35.4593 83.0025 35.6599C82.5139 35.7982 82.0724 36.011 81.6778 36.2984C81.2833 36.5859 80.9708 36.907 80.7402 37.2617L80.0647 36.6309C80.3556 36.197 80.7449 35.818 81.2325 35.4939C81.7174 35.1602 82.2568 34.9093 82.8507 34.7413C83.8279 34.4647 84.6491 34.496 85.3143 34.835C85.9864 35.1618 86.4622 35.8181 86.7417 36.804L88.0685 41.4846L87.0914 41.7612ZM84.5109 42.569C83.9457 42.729 83.4266 42.7777 82.9535 42.7151C82.4873 42.6402 82.0979 42.4713 81.7854 42.2082C81.4701 41.9355 81.2514 41.5838 81.1293 41.1531C81.018 40.7607 81.0086 40.3807 81.1011 40.0134C81.2004 39.6337 81.4337 39.2885 81.801 38.9778C82.1751 38.6548 82.7213 38.3916 83.4398 38.1883L86.0407 37.4522L86.2564 38.2132L83.6843 38.9411C82.9562 39.1471 82.4851 39.42 82.271 39.7598C82.0664 40.0969 82.0184 40.4568 82.127 40.8397C82.2491 41.2704 82.5144 41.5676 82.9229 41.7311C83.3315 41.8947 83.8375 41.8911 84.441 41.7203C85.0158 41.5576 85.4725 41.2888 85.8112 40.9137C86.1567 40.5264 86.3547 40.0568 86.4052 39.5049L86.8346 40.1433C86.7841 40.6953 86.5614 41.1874 86.1665 41.6197C85.7812 42.0492 85.2294 42.3657 84.5109 42.569Z" fill="#C1B59F"/>
<path d="M95.3824 40.2722L95.003 37.4774L95.2255 37.6731L92.5912 38.0302C91.5948 38.1653 90.7859 38.0541 90.1646 37.6965C89.5434 37.339 89.1765 36.7462 89.0641 35.9181C88.9436 35.0309 89.1549 34.3296 89.6978 33.8143C90.2394 33.2891 91.0134 32.9583 92.0197 32.8219L95.2903 32.3786L96.3444 40.1418L95.3824 40.2722ZM89.6996 41.0425L91.4251 37.7666L92.5202 37.6182L90.8391 40.888L89.6996 41.0425ZM94.9608 37.1669L94.4107 33.1152L94.6453 33.3997L92.1738 33.7347C91.4536 33.8323 90.91 34.0465 90.5429 34.3774C90.1858 34.7069 90.0493 35.1822 90.1337 35.8033C90.2903 36.9567 91.1036 37.4337 92.5736 37.2345L95.1191 36.8894L94.9608 37.1669Z" fill="#C1B59F"/>
<path d="M103.957 39.8086L104.591 32L111.617 32.5699L110.983 40.3785L109.926 40.2928L110.508 33.1237L110.753 33.4281L105.305 32.9862L105.596 32.7253L105.014 39.8944L103.957 39.8086Z" fill="#C1B59F"/>
<path d="M116.424 41.5331C115.688 41.3604 115.062 41.0401 114.548 40.5722C114.046 40.0969 113.694 39.5289 113.491 38.8682C113.29 38.1979 113.279 37.485 113.456 36.7295C113.636 35.9644 113.964 35.331 114.439 34.8294C114.915 34.3278 115.482 33.9805 116.141 33.7876C116.8 33.5946 117.503 33.5856 118.249 33.7606C119.005 33.9378 119.635 34.2592 120.14 34.7249C120.654 35.1928 121.007 35.7559 121.2 36.4143C121.403 37.0749 121.415 37.7878 121.235 38.553C121.058 39.3085 120.73 39.9418 120.252 40.4531C119.786 40.957 119.218 41.3091 118.547 41.5095C117.878 41.7002 117.171 41.708 116.424 41.5331ZM116.639 40.6178C117.192 40.7473 117.71 40.741 118.193 40.5989C118.679 40.447 119.095 40.1767 119.442 39.788C119.801 39.3919 120.049 38.8984 120.188 38.3076C120.329 37.7071 120.326 37.1545 120.179 36.6499C120.041 36.1476 119.787 35.7254 119.418 35.3833C119.05 35.0315 118.595 34.792 118.052 34.6647C117.509 34.5375 116.995 34.5498 116.51 34.7016C116.026 34.8438 115.606 35.1081 115.25 35.4945C114.893 35.881 114.644 36.3744 114.503 36.9749C114.364 37.5657 114.368 38.1183 114.513 38.6326C114.66 39.1372 114.918 39.5654 115.285 39.9172C115.655 40.2593 116.106 40.4928 116.639 40.6178Z" fill="#C1B59F"/>
<path d="M127.654 44.5832L130.04 38.6416L126.533 37.2361L125.799 38.8232C125.584 39.3052 125.359 39.7724 125.124 40.2247C124.898 40.6808 124.654 41.087 124.393 41.4433C124.145 41.7941 123.883 42.0589 123.608 42.2379C123.336 42.4076 123.054 42.4553 122.762 42.3812L121.85 41.8067C122.133 41.9307 122.409 41.9236 122.679 41.7853C122.953 41.6378 123.216 41.3951 123.47 41.0573C123.724 40.7194 123.97 40.3197 124.209 39.8581C124.452 39.3873 124.689 38.9035 124.92 38.4067L125.99 36.0219L131.368 38.1773L128.639 44.9776L127.654 44.5832ZM120.494 44.3021L121.545 41.6845L129.931 45.0454L128.88 47.663L127.951 47.2908L128.657 45.5319L122.129 42.9154L121.423 44.6743L120.494 44.3021Z" fill="#C1B59F"/>
<path d="M135.867 48.904L139.105 43.3802L135.845 41.4719L134.884 42.9331C134.6 43.378 134.309 43.8068 134.009 44.2194C133.718 44.6371 133.417 45.0028 133.106 45.3166C132.809 45.6269 132.511 45.8501 132.212 45.9864C131.918 46.114 131.632 46.1196 131.354 46.003L130.537 45.3001C130.798 45.4646 131.073 45.4984 131.36 45.4015C131.653 45.2961 131.95 45.095 132.25 44.7984C132.551 44.5018 132.854 44.1429 133.159 43.7216C133.468 43.2918 133.774 42.8484 134.077 42.3914L135.488 40.1909L140.488 43.1174L136.782 49.4395L135.867 48.904ZM128.827 47.5678L130.253 45.1342L138.05 49.6975L136.623 52.131L135.76 51.6257L136.718 49.9904L130.649 46.4379L129.69 48.0731L128.827 47.5678Z" fill="#C1B59F"/>
<path d="M141.331 53.4981C140.694 52.9874 140.241 52.4072 139.971 51.7574C139.708 51.0997 139.627 50.4292 139.73 49.7458C139.838 49.0545 140.135 48.4063 140.621 47.8012C141.107 47.196 141.666 46.7634 142.296 46.5034C142.934 46.2496 143.584 46.1713 144.246 46.2687C144.922 46.3645 145.544 46.6397 146.111 47.0943C146.685 47.5551 147.088 48.0948 147.319 48.7136C147.563 49.3308 147.624 49.9787 147.5 50.6575C147.382 51.3285 147.077 51.9705 146.585 52.5834C146.554 52.6222 146.515 52.6617 146.47 52.7021C146.439 52.7409 146.405 52.7835 146.367 52.8301L141.045 48.5616L141.54 47.9448L146.42 51.8583L145.898 51.8412C146.253 51.399 146.471 50.9293 146.551 50.4323C146.645 49.9337 146.607 49.4567 146.436 49.0012C146.266 48.5457 145.967 48.1467 145.54 47.8042C145.121 47.468 144.667 47.2629 144.177 47.1892C143.687 47.1154 143.209 47.1783 142.742 47.378C142.275 47.5777 141.861 47.9026 141.5 48.3526L141.397 48.4806C141.023 48.9461 140.794 49.4382 140.709 49.957C140.638 50.4743 140.704 50.9801 140.907 51.4745C141.124 51.9674 141.469 52.4037 141.943 52.7835C142.316 53.0824 142.714 53.2936 143.139 53.417C143.571 53.5466 144.012 53.5691 144.463 53.4843L144.499 54.3933C143.966 54.5012 143.425 54.4755 142.876 54.3161C142.335 54.163 141.82 53.8903 141.331 53.4981Z" fill="#C1B59F"/>
<path d="M148.642 60.3108C148.186 59.8104 147.888 59.254 147.748 58.6417C147.615 58.0228 147.656 57.3944 147.869 56.7566C148.097 56.1194 148.527 55.513 149.16 54.9373C149.794 54.3615 150.435 53.9939 151.084 53.8344C151.74 53.6682 152.367 53.6837 152.963 53.881C153.56 54.0782 154.09 54.4306 154.552 54.9384C155.055 55.4903 155.378 56.0972 155.523 56.759C155.682 57.4214 155.651 58.0819 155.429 58.7405C155.215 59.3924 154.817 59.9827 154.236 60.5116C153.646 61.0472 153.017 61.3907 152.347 61.5421C151.678 61.6936 151.017 61.6624 150.364 61.4485C149.718 61.2419 149.144 60.8627 148.642 60.3108ZM143.83 59.2173L151.773 51.9972L152.457 52.7478L150.711 54.3344L149.481 55.3116L148.41 56.4864L144.544 60.001L143.83 59.2173ZM149.288 59.6229C149.663 60.035 150.09 60.3193 150.569 60.4757C151.055 60.6255 151.555 60.642 152.068 60.5254C152.588 60.4021 153.073 60.1362 153.522 59.7279C153.971 59.3195 154.278 58.8657 154.443 58.3664C154.607 57.8671 154.638 57.3686 154.535 56.8707C154.431 56.3729 154.192 55.9179 153.817 55.5058C153.442 55.0937 153.008 54.8091 152.515 54.652C152.028 54.5023 151.529 54.4857 151.016 54.6024C150.509 54.7263 150.032 54.9925 149.582 55.4009C149.133 55.8092 148.819 56.2627 148.641 56.7613C148.476 57.2606 148.445 57.7592 148.549 58.257C148.666 58.7555 148.912 59.2108 149.288 59.6229Z" fill="#C1B59F"/>
<path d="M157.857 72.9612L159.738 68.6327L160.647 69.1051L158.527 74.0388L157.857 72.9612ZM158.479 67.3414L159.253 66.8612L160.56 68.9657L159.786 69.4459L158.479 67.3414ZM160.195 69.5088L159.786 68.568L164.463 68.7399L165.07 69.7161L160.195 69.5088ZM152.957 65.0758L152.288 63.9982L157.653 64.2877L157.666 65.2985L152.957 65.0758ZM155.683 69.4622L155.124 68.5621L161.785 64.4296L162.344 65.3297L155.683 69.4622ZM158.266 66.9991L156.966 64.9073L157.74 64.4271L159.04 66.5189L158.266 66.9991ZM157.099 64.5265L159.067 60.0558L159.673 61.032L157.745 65.2845L157.099 64.5265Z" fill="#C1B59F"/>
<path d="M161.504 81.3364L163.873 76.8826L164.691 77.4992L161.979 82.4963L161.504 81.3364ZM159.323 76.0203L166.578 73.0495L166.981 74.0299L159.725 77.0007L159.323 76.0203ZM162.835 75.3728L163.678 75.0276L164.635 77.3611L163.792 77.7063L162.835 75.3728ZM164.172 77.8084L163.937 76.8405L168.714 78.2551L169.15 79.3183L164.172 77.8084Z" fill="#C1B59F"/>
<path d="M163.53 88.3444L165.205 87.9044L165.468 87.789L168.27 87.053C168.916 86.8836 169.363 86.5705 169.614 86.1138C169.867 85.6668 169.9 85.0873 169.712 84.3753C169.583 83.8846 169.379 83.4394 169.099 83.0399C168.818 82.6403 168.503 82.3219 168.153 82.0849L168.797 81.422C169.225 81.7208 169.597 82.1169 169.912 82.6102C170.237 83.1009 170.478 83.6446 170.635 84.2411C170.893 85.2225 170.846 86.0423 170.494 86.7004C170.154 87.3657 169.489 87.8286 168.497 88.0891L163.788 89.3258L163.53 88.3444ZM162.77 85.7512C162.621 85.1835 162.582 84.664 162.654 84.1926C162.737 83.7283 162.914 83.3425 163.183 83.0352C163.462 82.7254 163.818 82.5136 164.251 82.3998C164.646 82.2961 165.026 82.2939 165.392 82.3932C165.77 82.4997 166.111 82.7393 166.415 83.112C166.731 83.4919 166.984 84.0426 167.174 84.7642L167.861 87.3765L167.096 87.5775L166.416 84.9942C166.224 84.2629 165.96 83.7871 165.624 83.5668C165.29 83.356 164.931 83.3013 164.546 83.4024C164.113 83.5162 163.81 83.7757 163.639 84.1807C163.467 84.5857 163.462 85.0913 163.621 85.6975C163.773 86.2748 164.033 86.7361 164.402 87.0816C164.783 87.4341 165.249 87.6408 165.801 87.7017L165.154 88.1185C164.602 88.0576 164.114 87.8258 163.689 87.4232C163.266 87.0301 162.96 86.4728 162.77 85.7512Z" fill="#C1B59F"/>
<path d="M168.026 100.667C168.021 100.468 168.065 100.278 168.16 100.096C168.255 99.9242 168.386 99.7864 168.552 99.6823C168.719 99.5783 168.916 99.5232 169.145 99.5171C169.354 99.5114 169.545 99.556 169.717 99.6509C169.889 99.7458 170.027 99.8764 170.131 100.043C170.235 100.219 170.29 100.407 170.295 100.606C170.301 100.804 170.256 100.99 170.161 101.162C170.066 101.333 169.935 101.471 169.769 101.575C169.602 101.689 169.415 101.749 169.206 101.755C168.977 101.761 168.776 101.711 168.604 101.607C168.432 101.512 168.294 101.381 168.19 101.215C168.086 101.048 168.031 100.866 168.026 100.667Z" fill="#C1B59F"/>
<path d="M117.681 86.372H122.407L111.187 118.4H106.461L117.681 86.372Z" fill="#E25740"/>
<path d="M81.608 111.089V115.577H63.622V112.007L72.802 103.337C73.7767 102.408 74.434 101.614 74.774 100.957C75.114 100.277 75.284 99.6085 75.284 98.9511C75.284 97.9991 74.9553 97.2738 74.298 96.7751C73.6633 96.2538 72.7227 95.9931 71.476 95.9931C70.4333 95.9931 69.4927 96.1971 68.654 96.6051C67.8153 96.9905 67.1127 97.5798 66.546 98.3731L62.534 95.7891C63.4633 94.4065 64.744 93.3298 66.376 92.5591C68.008 91.7658 69.878 91.3691 71.986 91.3691C73.754 91.3691 75.2953 91.6638 76.61 92.2531C77.9473 92.8198 78.9787 93.6358 79.704 94.7011C80.452 95.7438 80.826 96.9791 80.826 98.4071C80.826 99.6991 80.554 100.912 80.01 102.045C79.466 103.178 78.412 104.47 76.848 105.921L71.374 111.089H81.608ZM105.343 110.579H101.467V115.577H96.0947V110.579H83.2767V106.873L94.4967 91.7771H100.277L89.8727 106.091H96.2647V101.637H101.467V106.091H105.343V110.579Z" fill="#081D25"/>
<path d="M142.458 91.7771V95.3471L133.618 115.577H127.634L136.168 96.2651H128.28V100.141H123.384V91.7771H142.458Z" fill="#081D25"/>
</svg>
