<svg width="27" height="20" viewBox="0 0 27 20" fill="none" xmlns="http://www.w3.org/2000/svg">
<g clip-path="url(#clip0_1302_20336)">
<path d="M4.89364 19.9561V18.6288C4.89364 18.1211 4.56938 17.7886 4.01274 17.7886C3.73441 17.7886 3.43177 17.8762 3.22371 18.1649C3.06158 17.9226 2.82919 17.7886 2.48061 17.7886C2.24823 17.7886 2.01584 17.8556 1.83209 18.0979V17.8324H1.3457V19.9561H1.83209V18.7834C1.83209 18.4071 2.04016 18.2293 2.36442 18.2293C2.68868 18.2293 2.85081 18.4278 2.85081 18.7834V19.9561H3.3372V18.7834C3.3372 18.4071 3.56958 18.2293 3.86952 18.2293C4.19378 18.2293 4.35591 18.4278 4.35591 18.7834V19.9561H4.89364ZM12.1084 17.8324H11.3194V17.1906H10.833V17.8324H10.3925V18.2525H10.833V19.2267C10.833 19.7138 11.0411 19.9999 11.5977 19.9999C11.8058 19.9999 12.0382 19.9329 12.2003 19.8453L12.0598 19.4458C11.9193 19.5334 11.7571 19.5566 11.6409 19.5566C11.4086 19.5566 11.3167 19.4226 11.3167 19.2035V18.2525H12.1057V17.8324H12.1084ZM16.2373 17.786C15.959 17.786 15.7725 17.92 15.6564 18.0953V17.8298H15.17V19.9535H15.6564V18.7577C15.6564 18.4046 15.8185 18.2035 16.1211 18.2035C16.213 18.2035 16.3292 18.2267 16.4238 18.2473L16.5643 17.804C16.467 17.786 16.3292 17.786 16.2373 17.786ZM9.99803 18.0077C9.76564 17.853 9.44138 17.786 9.0928 17.786C8.53616 17.786 8.16596 18.0515 8.16596 18.4716C8.16596 18.8247 8.44428 19.0257 8.93067 19.0901L9.16306 19.1133C9.41706 19.1571 9.55757 19.2241 9.55757 19.335C9.55757 19.4896 9.37112 19.6004 9.04686 19.6004C8.7226 19.6004 8.4659 19.4896 8.30377 19.3788L8.07138 19.7319C8.32539 19.9097 8.67397 19.9973 9.02255 19.9973C9.67106 19.9973 10.044 19.7087 10.044 19.3118C10.044 18.9355 9.74132 18.737 9.27925 18.67L9.04686 18.6468C8.8388 18.6236 8.67667 18.5798 8.67667 18.4484C8.67667 18.2937 8.8388 18.2061 9.0955 18.2061C9.37383 18.2061 9.65215 18.3169 9.79266 18.3839L9.99803 18.0077ZM22.9387 17.786C22.6604 17.786 22.4739 17.92 22.3577 18.0953V17.8298H21.8713V19.9535H22.3577V18.7577C22.3577 18.4046 22.5198 18.2035 22.8225 18.2035C22.9144 18.2035 23.0306 18.2267 23.1251 18.2473L23.2656 17.8092C23.1711 17.786 23.0333 17.786 22.9387 17.786ZM16.7237 18.8942C16.7237 19.536 17.1885 19.9999 17.9073 19.9999C18.2315 19.9999 18.4639 19.9329 18.6963 19.7577L18.4639 19.3814C18.2774 19.5154 18.0937 19.5798 17.8829 19.5798C17.4884 19.5798 17.2101 19.3144 17.2101 18.8942C17.2101 18.4948 17.4884 18.2293 17.8829 18.2087C18.091 18.2087 18.2774 18.2757 18.4639 18.4071L18.6963 18.0308C18.4639 17.853 18.2315 17.7886 17.9073 17.7886C17.1885 17.786 16.7237 18.2525 16.7237 18.8942ZM21.2228 18.8942V17.8324H20.7364V18.0979C20.5743 17.8994 20.3419 17.7886 20.0393 17.7886C19.4124 17.7886 18.926 18.2525 18.926 18.8942C18.926 19.536 19.4124 19.9999 20.0393 19.9999C20.3635 19.9999 20.5959 19.8891 20.7364 19.6906V19.9561H21.2228V18.8942ZM19.4367 18.8942C19.4367 18.518 19.6907 18.2087 20.1095 18.2087C20.504 18.2087 20.7824 18.4973 20.7824 18.8942C20.7824 19.2705 20.504 19.5798 20.1095 19.5798C19.6934 19.5566 19.4367 19.268 19.4367 18.8942ZM13.6162 17.786C12.9677 17.786 12.5029 18.2293 12.5029 18.8917C12.5029 19.5566 12.9677 19.9973 13.6405 19.9973C13.9648 19.9973 14.2891 19.9097 14.5458 19.7087L14.3134 19.3762C14.1269 19.5102 13.8945 19.5979 13.6649 19.5979C13.3622 19.5979 13.0623 19.4638 12.992 19.0901H14.6376C14.6376 19.0231 14.6376 18.9793 14.6376 18.9123C14.6593 18.2293 14.2404 17.786 13.6162 17.786ZM13.6162 18.1855C13.9189 18.1855 14.1269 18.3633 14.1729 18.6932H13.0136C13.0596 18.4071 13.2676 18.1855 13.6162 18.1855ZM25.7003 18.8942V16.9922H25.2139V18.0979C25.0518 17.8994 24.8194 17.7886 24.5167 17.7886C23.8898 17.7886 23.4035 18.2525 23.4035 18.8942C23.4035 19.536 23.8898 19.9999 24.5167 19.9999C24.841 19.9999 25.0734 19.8891 25.2139 19.6906V19.9561H25.7003V18.8942ZM23.9142 18.8942C23.9142 18.518 24.1682 18.2087 24.587 18.2087C24.9815 18.2087 25.2598 18.4973 25.2598 18.8942C25.2598 19.2705 24.9815 19.5798 24.587 19.5798C24.1682 19.5566 23.9142 19.268 23.9142 18.8942ZM7.63093 18.8942V17.8324H7.14454V18.0979C6.98241 17.8994 6.75003 17.7886 6.44738 17.7886C5.82048 17.7886 5.33409 18.2525 5.33409 18.8942C5.33409 19.536 5.82048 19.9999 6.44738 19.9999C6.77164 19.9999 7.00403 19.8891 7.14454 19.6906V19.9561H7.63093V18.8942ZM5.82319 18.8942C5.82319 18.518 6.07719 18.2087 6.49602 18.2087C6.89054 18.2087 7.16886 18.4973 7.16886 18.8942C7.16886 19.2705 6.89054 19.5798 6.49602 19.5798C6.07719 19.5566 5.82319 19.268 5.82319 18.8942Z" fill="#081D25"/>
<path d="M17.1426 1.70312H9.83594V14.2237H17.1426V1.70312Z" fill="#FF5A00"/>
<path d="M10.3223 7.96392C10.3223 5.4201 11.5761 3.16237 13.5 1.70361C12.0841 0.641753 10.2979 0 8.34968 0C3.73439 0 0 3.56186 0 7.96392C0 12.366 3.73439 15.9278 8.34968 15.9278C10.2979 15.9278 12.0841 15.2861 13.5 14.2242C11.5734 12.7861 10.3223 10.5077 10.3223 7.96392Z" fill="#EB001B"/>
<path d="M27 7.96392C27 12.366 23.2656 15.9278 18.6503 15.9278C16.7021 15.9278 14.9159 15.2861 13.5 14.2242C15.4483 12.7629 16.6777 10.5077 16.6777 7.96392C16.6777 5.4201 15.4239 3.16237 13.5 1.70361C14.9132 0.641753 16.6994 0 18.6476 0C23.2656 0 27 3.58505 27 7.96392Z" fill="#F79E1B"/>
</g>
<defs>
<clipPath id="clip0_1302_20336">
<rect width="27" height="20" fill="white"/>
</clipPath>
</defs>
</svg>
