<svg width="54" height="20" viewBox="0 0 54 20" fill="none" xmlns="http://www.w3.org/2000/svg">
<path d="M0.793945 3.29125H5.74979C6.20032 3.29125 7.55191 3.15147 8.15262 5.10839C8.60315 6.3664 9.20386 8.32332 10.1049 11.2587H10.4053C11.3063 8.18354 12.0572 6.08684 12.3576 5.10839C12.9583 3.15147 14.4601 3.29125 15.0608 3.29125H19.7162V16.7101H14.9106V8.74266H14.6102L12.0572 16.7101H8.45297L5.89996 8.74266H5.44943V16.7101H0.793945M21.6685 3.29125H26.4742V11.2587H26.9247L30.0785 4.68905C30.6792 3.43103 32.0308 3.29125 32.0308 3.29125H36.5361V16.7101H31.7304V8.74266H31.4301L28.2763 15.3123C27.6756 16.5703 26.1739 16.7101 26.1739 16.7101H21.6685M42.9937 12.6565V16.7101H38.4884V9.72112H53.2057C52.605 11.3985 50.5025 12.6565 48.0997 12.6565" fill="#0F754E"/>
<path d="M53.0947 8.81538C53.6821 6.32854 51.92 3.28906 48.1022 3.28906H38.1172C38.4109 6.19038 41.054 8.81538 43.8439 8.81538" fill="url(#paint0_linear_1302_20373)"/>
<defs>
<linearGradient id="paint0_linear_1302_20373" x1="51.3327" y1="1.49301" x2="39.5856" y2="1.49301" gradientUnits="userSpaceOnUse">
<stop stop-color="#1F5CD7"/>
<stop offset="1" stop-color="#02AEFF"/>
</linearGradient>
</defs>
</svg>
