<svg width="48" height="20" viewBox="0 0 48 20" fill="none" xmlns="http://www.w3.org/2000/svg">
<g clip-path="url(#clip0_1302_20399)">
<path fill-rule="evenodd" clip-rule="evenodd" d="M11.7158 16.6454C13.187 16.6454 14.7832 17.1668 16.5505 18.7851C16.7275 18.9471 16.9632 18.7458 16.8085 18.5444C15.0721 16.2781 13.4662 15.8466 11.8646 15.4821C9.90506 15.0355 8.89761 13.8959 8.19537 12.6449C8.0558 12.3962 7.9928 12.4401 7.9803 12.7602C7.96455 13.1511 7.99117 13.6692 8.07589 14.1788C7.9966 14.1822 7.9173 14.1816 7.83692 14.1816C5.03451 14.1816 2.76217 11.8326 2.76217 8.93519C2.76217 6.03831 5.03451 3.68988 7.83747 3.68988C10.6399 3.68988 12.9122 6.03831 12.9122 8.93519C12.9122 9.14163 12.9025 9.34581 12.8796 9.5455C12.5092 9.47631 11.7799 9.46844 11.2683 9.514C11.076 9.53144 11.1031 9.62425 11.2487 9.65125C12.9263 9.96456 14.0783 11.0395 14.3422 12.9897C14.3476 13.0347 14.4052 13.0476 14.4275 13.0088C15.1408 11.7786 15.5166 10.3702 15.5142 8.93519C15.5142 4.55331 12.0769 1 7.83747 1C3.59746 1 0.160156 4.55275 0.160156 8.93519C0.160156 13.3182 3.59746 16.8715 7.83747 16.8715C8.96169 16.8715 10.0783 16.6454 11.7158 16.6454ZM12.2871 13.7642C12.6287 14.0624 12.7325 14.4173 12.5521 14.6676C12.4517 14.8049 12.2887 14.8808 12.0932 14.8808C11.9025 14.8809 11.7178 14.8116 11.5713 14.6851C11.2606 14.4044 11.1694 13.9499 11.372 13.6917C11.4513 13.5904 11.58 13.5348 11.7342 13.5348C11.9216 13.5348 12.1182 13.6163 12.2871 13.7642ZM13.8632 13.006C13.9132 13.3536 13.8073 13.4976 13.7003 13.4976C13.5835 13.4976 13.4374 13.357 13.2652 13.0786C13.0947 12.8041 13.0323 12.4891 13.117 12.3299C13.1724 12.2247 13.2891 12.1786 13.4363 12.2365C13.7215 12.3473 13.8328 12.7984 13.8632 13.006ZM24.5048 11.1891L23.6195 10.0883C23.5987 10.0624 23.5856 10.0308 23.5815 9.99737C23.5774 9.96392 23.5827 9.92998 23.5966 9.8995C23.6105 9.86903 23.6325 9.8433 23.66 9.82533C23.6876 9.80737 23.7195 9.79791 23.752 9.79806H25.6035C25.6915 9.52694 25.7414 9.23725 25.7414 8.93575C25.7414 7.55762 24.7486 6.36906 23.3865 6.36906C22.0244 6.36906 21.0316 7.55762 21.0316 8.93575C21.0316 10.3139 22.0244 11.4861 23.3865 11.4861C23.7993 11.4861 24.1773 11.377 24.5053 11.1886L24.5048 11.1891ZM28.5096 13.0482C28.6057 13.1584 28.527 13.3351 28.382 13.3351H26.3616C26.321 13.3351 26.2809 13.3259 26.2441 13.3081C26.2073 13.2903 26.1748 13.2644 26.1487 13.2321L25.8066 12.8063C25.086 13.2903 24.2454 13.5475 23.3865 13.5466C20.9268 13.5466 18.926 11.4782 18.926 8.93575C18.926 6.39325 20.9268 4.32494 23.3865 4.32494C25.8462 4.32494 27.847 6.39325 27.847 8.93575C27.847 9.85262 27.5863 10.7065 27.1383 11.4254L28.5096 13.0482ZM47.1755 4.53812H45.5261C45.4681 4.53827 45.4125 4.5622 45.3715 4.60468C45.3305 4.64716 45.3074 4.70474 45.3073 4.76481V13.1084C45.3073 13.2338 45.405 13.3351 45.5261 13.3351H47.1755C47.2967 13.3351 47.395 13.2338 47.395 13.1084V4.76425C47.395 4.70398 47.3718 4.64618 47.3307 4.60356C47.2895 4.56094 47.2337 4.537 47.1755 4.537V4.53812ZM44.4003 4.53812H42.5559C42.5091 4.53794 42.4634 4.55329 42.4255 4.58194C42.3877 4.61058 42.3598 4.65101 42.3457 4.69731L40.8859 9.62819L39.281 4.69169C39.2663 4.64665 39.2383 4.60754 39.201 4.57988C39.1637 4.55223 39.1189 4.53742 39.073 4.53756H37.7858C37.7399 4.53739 37.695 4.55217 37.6576 4.57983C37.6202 4.60748 37.5921 4.64661 37.5773 4.69169L35.9729 9.62819L34.5131 4.69731C34.4991 4.65091 34.4712 4.61035 34.4334 4.5816C34.3956 4.55285 34.3498 4.53741 34.3029 4.53756H32.458C32.4233 4.53762 32.3892 4.54616 32.3583 4.56249C32.3275 4.57881 32.3008 4.60246 32.2804 4.6315C32.26 4.66027 32.2466 4.69367 32.2414 4.72891C32.2361 4.76415 32.239 4.80019 32.25 4.834L34.9601 13.1821C34.9899 13.2743 35.0741 13.3362 35.1681 13.3362H36.6323C36.7268 13.3362 36.8104 13.2743 36.8403 13.1826L38.4294 8.30519L40.018 13.1821C40.0479 13.2743 40.132 13.3362 40.226 13.3362H41.6907C41.7852 13.3362 41.8689 13.2743 41.8988 13.1821L44.6088 4.834C44.6198 4.80022 44.6228 4.76422 44.6176 4.729C44.6124 4.69378 44.5991 4.66036 44.579 4.6315C44.5585 4.60242 44.5317 4.57875 44.5008 4.56242C44.4698 4.5461 44.4356 4.53758 44.4008 4.53756L44.4003 4.53812ZM31.5515 4.76481V13.1084C31.5515 13.2338 31.4538 13.3351 31.3321 13.3351H29.6833C29.6252 13.3351 29.5694 13.3112 29.5283 13.2687C29.4872 13.2262 29.464 13.1685 29.4639 13.1084V4.76425C29.4639 4.63881 29.5616 4.537 29.6833 4.537H31.3321C31.4532 4.537 31.5515 4.63881 31.5515 4.76481Z" fill="#FF8C00"/>
</g>
<defs>
<clipPath id="clip0_1302_20399">
<rect width="47.25" height="18" fill="white" transform="translate(0 1)"/>
</clipPath>
</defs>
</svg>
