<svg width="65" height="32" viewBox="0 0 65 32" fill="none" xmlns="http://www.w3.org/2000/svg">
<path d="M56.2062 9.13335V16.9568H53.3571V11.4688H50.6138V16.9568H47.7646V9.13281H56.2062V9.13335Z" fill="#081D25"/>
<path fill-rule="evenodd" clip-rule="evenodd" d="M41.9133 17.2373C44.4638 17.2373 46.3578 15.704 46.3578 13.3795C46.3578 11.1296 44.9604 9.66881 42.625 9.66881C41.5472 9.66881 40.6579 10.0408 39.9881 10.6827C40.148 9.35601 41.2921 8.38748 42.5519 8.38748C42.8426 8.38748 45.0314 8.38295 45.0314 8.38295L46.2691 6.06055C46.2691 6.06055 43.5212 6.12188 42.2437 6.12188C39.325 6.17175 37.3535 8.77308 37.3535 11.9325C37.3535 15.6133 39.2763 17.2373 41.9133 17.2373ZM41.9288 11.7259C42.8758 11.7259 43.5323 12.336 43.5323 13.3792C43.5323 14.3181 42.949 15.0917 41.9288 15.0939C40.953 15.0939 40.2965 14.3771 40.2965 13.3952C40.2965 12.3517 40.953 11.7259 41.9288 11.7259Z" fill="#081D25"/>
<path d="M35.0339 14.3394C35.0339 14.3394 34.361 14.7197 33.3561 14.7917C32.2008 14.8253 31.1714 14.1098 31.1714 12.8386C31.1714 11.5986 32.0798 10.888 33.327 10.888C34.0918 10.888 35.1035 11.4077 35.1035 11.4077C35.1035 11.4077 35.8438 10.0757 36.2273 9.40956C35.5251 8.8877 34.5898 8.60156 33.5019 8.60156C30.7564 8.60156 28.6299 10.3568 28.6299 12.8229C28.6299 15.3205 30.6286 17.0349 33.5019 16.9832C34.305 16.9538 35.413 16.6773 36.0883 16.252L35.0339 14.3394Z" fill="#081D25"/>
<path d="M0 6.96484L3.95222 13.8915V18.1166L0.00462343 25.0296L0 6.96484Z" fill="#5B57A2"/>
<path d="M15.1748 11.3712L18.8782 9.14561L26.4573 9.13867L15.1748 15.9157V11.3712Z" fill="#D90751"/>
<path d="M15.1544 6.92453L15.1753 16.0952L11.2139 13.7085V0L15.1544 6.92453Z" fill="#FAB718"/>
<path d="M26.4579 9.13893L18.8784 9.14587L15.1544 6.92453L11.2139 0L26.4579 9.13893Z" fill="#ED6F26"/>
<path d="M15.1753 25.068V20.6187L11.2139 18.2773L11.216 31.9995L15.1753 25.068Z" fill="#63B22F"/>
<path d="M18.869 22.8627L3.95195 13.8915L0 6.96484L26.4414 22.8536L18.869 22.8627Z" fill="#1487C9"/>
<path d="M11.2158 31.9994L15.1746 25.0679L18.8687 22.8626L26.441 22.8535L11.2158 31.9994Z" fill="#017F36"/>
<path d="M0.00488281 25.0295L11.2461 18.2775L7.46683 16.0039L3.95248 18.1164L0.00488281 25.0295Z" fill="#984995"/>
<path d="M31.1724 22.2232C31.0854 22.332 30.9709 22.4141 30.8336 22.4696C30.6927 22.5258 30.5419 22.5544 30.3897 22.5538C30.2384 22.5558 30.088 22.5311 29.9456 22.4808C29.8177 22.4352 29.7009 22.3642 29.6024 22.2722C29.5051 22.1801 29.4288 22.0689 29.3783 21.9458C29.3236 21.8111 29.2964 21.6671 29.298 21.5221C29.298 21.3781 29.3233 21.2448 29.3758 21.1184C29.4261 20.9917 29.4993 20.8832 29.591 20.792C29.6826 20.6989 29.7925 20.628 29.916 20.5725C30.0419 20.5192 30.1792 20.4904 30.3302 20.4904C30.4928 20.4904 30.6437 20.5104 30.7811 20.5501C30.9184 20.5901 31.0351 20.6568 31.1311 20.7501L30.9641 21.0274C30.8834 20.9557 30.7882 20.9012 30.6848 20.8674C30.5865 20.8364 30.4838 20.8207 30.3805 20.821C30.2891 20.821 30.2021 20.8386 30.1175 20.872C30.0341 20.9049 29.958 20.9531 29.8931 21.0141C29.8268 21.0768 29.7746 21.1524 29.7397 21.236C29.7008 21.3224 29.6826 21.4178 29.6826 21.5242C29.6826 21.633 29.703 21.7306 29.7419 21.8149C29.7811 21.9016 29.8335 21.9749 29.8999 22.0368C29.9663 22.0992 30.0441 22.1456 30.1333 22.1768C30.2227 22.2101 30.3166 22.2256 30.4172 22.2256C30.5407 22.2256 30.653 22.201 30.749 22.1544C30.8441 22.1093 30.9296 22.0469 31.0008 21.9704L31.1724 22.2232ZM31.6438 22.5072V20.5325H32.0055V22.0037L33.1817 20.5325H33.5434V22.5074H33.1817V21.0362L32.0055 22.5074L31.6438 22.5072ZM35.9395 22.2232C35.8505 22.3329 35.7337 22.4178 35.6009 22.4696C35.4599 22.5258 35.309 22.5544 35.1567 22.5538C35.0055 22.5558 34.8552 22.5311 34.7129 22.4808C34.585 22.4352 34.468 22.3642 34.3694 22.2722C34.2721 22.1801 34.1958 22.0689 34.1453 21.9458C34.0907 21.8111 34.0634 21.6671 34.0651 21.5221C34.0651 21.3781 34.0904 21.2448 34.1429 21.1184C34.1934 20.9917 34.2666 20.8832 34.358 20.792C34.4496 20.6989 34.5595 20.628 34.683 20.5725C34.8134 20.5162 34.9547 20.4882 35.0972 20.4904C35.2598 20.4904 35.4108 20.5104 35.5481 20.5501C35.6855 20.5901 35.8021 20.6568 35.8984 20.7501L35.7311 21.0274C35.6505 20.9556 35.5555 20.9011 35.4521 20.8674C35.3538 20.8364 35.2511 20.8207 35.1478 20.821C34.966 20.8216 34.7914 20.8907 34.6601 21.0141C34.5944 21.0773 34.5423 21.1527 34.5067 21.236C34.4679 21.3224 34.4496 21.4178 34.4496 21.5242C34.4496 21.633 34.4703 21.7306 34.5092 21.8149C34.5481 21.9016 34.6006 21.9749 34.6669 22.0368C34.7333 22.0992 34.8113 22.1456 34.9006 22.1768C34.9898 22.2077 35.0836 22.2256 35.1842 22.2256C35.308 22.2256 35.4178 22.201 35.516 22.1544C35.6111 22.1093 35.6966 22.0469 35.7679 21.9704L35.9395 22.2232ZM36.1249 20.5325H37.9808V20.8832H37.2348V22.5072H36.8731V20.8832H36.1271V20.5325H36.1249Z" fill="#081D25"/>
<path fill-rule="evenodd" clip-rule="evenodd" d="M39.67 22.4875C39.8074 22.4454 39.924 22.3808 40.0247 22.2923L39.9148 22.0171C39.8484 22.075 39.7592 22.1238 39.6518 22.1638C39.5441 22.2038 39.4228 22.2235 39.2901 22.2235C39.091 22.2235 38.9262 22.1726 38.7956 22.0683C38.6654 21.9638 38.5944 21.8176 38.5783 21.631H40.1438C40.1598 21.5622 40.1666 21.4846 40.1666 21.3936C40.1666 21.2582 40.1413 21.1363 40.091 21.0254C40.0442 20.9176 39.9757 20.8202 39.8898 20.739C39.8026 20.6584 39.6999 20.5959 39.5876 20.555C39.4701 20.5103 39.3451 20.4876 39.2191 20.4883C39.0497 20.4883 38.9009 20.5171 38.7706 20.5704C38.6475 20.6212 38.5361 20.696 38.4432 20.7902C38.353 20.8838 38.2837 20.9949 38.2397 21.1163C38.1914 21.2456 38.1673 21.3824 38.1688 21.52C38.1688 21.6755 38.1962 21.8174 38.2465 21.944C38.2955 22.0667 38.3704 22.1779 38.4663 22.2702C38.5601 22.3608 38.6743 22.4299 38.8095 22.4787C38.9542 22.529 39.1069 22.5538 39.2604 22.5518C39.3995 22.5509 39.5376 22.5291 39.67 22.4875ZM38.7546 20.9675C38.8666 20.8678 39.0154 20.819 39.2031 20.819C39.3793 20.819 39.5213 20.8656 39.6243 20.959C39.7274 21.052 39.7821 21.1808 39.7913 21.3448H38.5555C38.573 21.1996 38.6438 21.0653 38.7546 20.9675Z" fill="#081D25"/>
<path d="M40.6582 20.5332H40.9878L41.7705 21.5119L42.5119 20.5332H42.8323V22.5081H42.4709V21.0681L41.7659 21.9844H41.752L41.0199 21.0679V22.5079H40.6582V20.5332Z" fill="#081D25"/>
<path fill-rule="evenodd" clip-rule="evenodd" d="M43.8168 20.54C43.7071 20.5681 43.6022 20.6121 43.5057 20.6706L43.6017 20.9506C43.6841 20.9106 43.7665 20.8773 43.8489 20.8485C43.9313 20.8194 44.0366 20.8061 44.1625 20.8061C44.2631 20.8061 44.3434 20.8218 44.4051 20.8528C44.4668 20.8816 44.5125 20.9261 44.5446 20.9794C44.5767 21.0328 44.5974 21.0992 44.6088 21.1768C44.6202 21.2544 44.6249 21.3386 44.6249 21.4298C44.5508 21.3793 44.4665 21.3451 44.3776 21.3298C44.2917 21.3131 44.2044 21.3042 44.1168 21.3032C44.0091 21.3032 43.9085 21.3189 43.8122 21.3453C43.7162 21.372 43.6338 21.412 43.5674 21.4653C43.4997 21.5185 43.445 21.586 43.4073 21.6626C43.3669 21.7466 43.3466 21.8384 43.3477 21.9312C43.3477 22.1242 43.4051 22.2752 43.5193 22.3818C43.6338 22.4882 43.7847 22.5413 43.9724 22.5413C44.1418 22.5413 44.277 22.5125 44.3798 22.4549C44.4829 22.397 44.5653 22.3306 44.6249 22.2552V22.5104H44.9635V21.2989C44.9635 21.0413 44.9063 20.8418 44.7897 20.7018C44.6752 20.5621 44.4715 20.4912 44.1832 20.4912C44.0548 20.4912 43.9335 20.5088 43.8168 20.54ZM44.4214 22.14C44.339 22.1976 44.2313 22.224 44.0986 22.224C43.9819 22.224 43.8903 22.1952 43.8264 22.1397C43.7622 22.0821 43.7301 22.0066 43.7301 21.9133C43.7301 21.8581 43.7415 21.8114 43.7668 21.7693C43.7921 21.7272 43.8264 21.6938 43.8653 21.6672C43.9078 21.6393 43.955 21.619 44.0048 21.6072C44.0575 21.5938 44.11 21.5872 44.165 21.5872C44.3436 21.5872 44.4968 21.6293 44.6227 21.7181V21.9688C44.5633 22.034 44.4957 22.0917 44.4214 22.14ZM48.1563 19.8386C48.2295 19.8056 48.298 19.7501 48.3622 19.668L48.1653 19.3906C48.115 19.4573 48.0579 19.5037 47.9937 19.5282C47.9257 19.5543 47.8552 19.5736 47.7832 19.5858L47.7147 19.5978C47.6551 19.608 47.5912 19.6192 47.5224 19.6304C47.412 19.6504 47.3045 19.6831 47.202 19.728C47.0394 19.7968 46.9091 19.8898 46.8107 20.0074C46.7122 20.125 46.6344 20.2581 46.5817 20.4048C46.5282 20.5533 46.4922 20.7074 46.4742 20.864C46.4557 21.024 46.4468 21.1768 46.4468 21.3232C46.4468 21.512 46.4718 21.6826 46.5221 21.8357C46.5727 21.989 46.6434 22.1176 46.7372 22.2218C46.831 22.3285 46.9434 22.4085 47.0761 22.4661C47.2088 22.5237 47.3576 22.5525 47.5246 22.5525C47.678 22.5525 47.8199 22.5237 47.948 22.4704C48.0715 22.4191 48.1835 22.3445 48.2776 22.2509C48.369 22.1597 48.4424 22.0509 48.4928 21.929C48.5453 21.8069 48.5705 21.676 48.5705 21.5384C48.5705 21.3898 48.5477 21.2546 48.5042 21.1346C48.4641 21.0202 48.4002 20.9152 48.3165 20.8264C48.2327 20.739 48.1303 20.6707 48.0166 20.6264C47.8913 20.578 47.7576 20.5539 47.623 20.5554C47.536 20.5554 47.4514 20.5666 47.369 20.5888C47.2888 20.6109 47.2119 20.643 47.14 20.6842C47.0702 20.7234 47.0064 20.7719 46.9502 20.8282C46.8952 20.884 46.8495 20.9461 46.8174 21.017H46.8082C46.8153 20.9261 46.8267 20.833 46.8471 20.7376C46.8678 20.6421 46.8974 20.5509 46.9366 20.4645C46.9755 20.3781 47.0258 20.3002 47.0875 20.2293C47.1537 20.1577 47.2349 20.1009 47.3255 20.0629C47.4251 20.0164 47.5305 19.9828 47.6391 19.9632L47.7109 19.9504C47.7824 19.9376 47.8506 19.9253 47.9159 19.912C48.003 19.8944 48.0829 19.8717 48.1563 19.8386ZM46.8838 21.736C46.8484 21.6239 46.8314 21.5071 46.8335 21.3898C46.8488 21.3225 46.8768 21.2586 46.9159 21.2013C46.9548 21.1413 47.0051 21.0882 47.0647 21.0413C47.1991 20.938 47.3652 20.8826 47.536 20.884C47.7489 20.884 47.9091 20.9482 48.0212 21.0749C48.1335 21.2034 48.1884 21.3632 48.1884 21.5562C48.1884 21.6517 48.1699 21.7384 48.1381 21.8181C48.1072 21.8967 48.0605 21.9685 48.0007 22.0291C47.941 22.0897 47.8694 22.1379 47.7903 22.1709C47.7079 22.2064 47.6184 22.2242 47.5178 22.2242C47.4171 22.2242 47.3255 22.2042 47.2409 22.1642C47.1568 22.125 47.0826 22.0682 47.0233 21.9978C46.9613 21.9194 46.9141 21.8307 46.8838 21.736ZM51.3443 20.5333H50.9826V22.5082H51.3443V20.5333ZM49.0922 20.5333H49.4539V21.1258H49.7881C49.9459 21.1258 50.074 21.1458 50.177 21.1834C50.2801 21.2213 50.3625 21.2722 50.4243 21.3344C50.486 21.3965 50.5295 21.4698 50.5548 21.5517C50.5798 21.6338 50.5937 21.7181 50.5937 21.8069C50.5937 21.8957 50.5798 21.9802 50.5502 22.0645C50.5227 22.1488 50.4746 22.2218 50.4104 22.2885C50.3465 22.3552 50.2595 22.4085 50.1496 22.4485C50.0397 22.4882 49.907 22.5104 49.7468 22.5104H49.09V20.5333H49.0922ZM49.4539 21.4562V22.1797H49.7172C49.898 22.1797 50.0261 22.1488 50.0993 22.0864C50.1727 22.0242 50.2091 21.9357 50.2091 21.8181C50.2091 21.6981 50.1703 21.6074 50.0971 21.545C50.0215 21.4829 49.8956 21.4517 49.7218 21.4517H49.4539V21.4562Z" fill="#081D25"/>
<path d="M53.7359 22.2232C53.6489 22.332 53.5344 22.4141 53.397 22.4696C53.2561 22.5258 53.1053 22.5544 52.9532 22.5538C52.8019 22.5558 52.6514 22.5311 52.5091 22.4808C52.3812 22.4353 52.2643 22.3643 52.1659 22.2722C52.0686 22.18 51.9922 22.0688 51.9415 21.9458C51.8871 21.811 51.8599 21.6671 51.8615 21.5221C51.8615 21.3781 51.8865 21.2448 51.9393 21.1184C51.9896 20.9917 52.0628 20.8832 52.1544 20.792C52.2461 20.6989 52.3557 20.628 52.4794 20.5725C52.6098 20.5162 52.7511 20.4881 52.8936 20.4904C53.056 20.4904 53.2072 20.5104 53.3446 20.5501C53.4819 20.5901 53.5986 20.6568 53.6946 20.7501L53.5276 21.0274C53.4468 20.9557 53.3517 20.9012 53.2483 20.8674C53.15 20.8364 53.0472 20.8207 52.9439 20.821C52.8526 20.821 52.7655 20.8386 52.6807 20.872C52.5974 20.9049 52.5214 20.9531 52.4566 21.0141C52.3908 21.0772 52.3386 21.1527 52.3032 21.236C52.2643 21.3224 52.2461 21.4178 52.2461 21.5242C52.2461 21.633 52.2665 21.7306 52.3054 21.8149C52.3443 21.9016 52.397 21.9749 52.4634 22.0368C52.5297 22.0992 52.6075 22.1456 52.6967 22.1768C52.7862 22.2077 52.88 22.2256 52.9807 22.2256C53.1041 22.2256 53.214 22.201 53.3125 22.1544C53.4076 22.1093 53.4931 22.0469 53.5643 21.9704L53.7359 22.2232ZM53.9211 20.5325H55.7773V20.8832H55.031V22.5072H54.6696V20.8832H53.9236V20.5325H53.9211Z" fill="#081D25"/>
<path fill-rule="evenodd" clip-rule="evenodd" d="M56.5325 20.533H56.1708V23.3863H56.5325V22.4167C56.6057 22.4634 56.6927 22.4967 56.7933 22.5188C56.8939 22.541 56.9992 22.5519 57.1069 22.5519C57.2671 22.5519 57.4112 22.5231 57.5418 22.47C57.667 22.4175 57.7804 22.3414 57.8757 22.246C57.9696 22.1503 58.0405 22.0394 58.0909 21.9084C58.1412 21.7778 58.1665 21.6378 58.1665 21.4892C58.1665 21.3426 58.1436 21.2074 58.1001 21.0852C58.0591 20.9692 57.9954 20.8622 57.9125 20.7703C57.8311 20.6806 57.7301 20.6101 57.6171 20.5639C57.4936 20.5118 57.3602 20.4861 57.2257 20.4884C57.084 20.4884 56.9513 20.5151 56.8254 20.5684C56.6995 20.6218 56.601 20.6858 56.5325 20.7658V20.533ZM56.7843 20.8991C56.8874 20.8458 56.9995 20.8191 57.1208 20.8191C57.226 20.8191 57.3198 20.8346 57.4047 20.8679C57.4871 20.9012 57.5556 20.9479 57.613 21.01C57.6701 21.0722 57.7136 21.1434 57.7411 21.2274C57.7708 21.3116 57.7846 21.4028 57.7846 21.5026C57.7846 21.6092 57.7661 21.7044 57.7343 21.7932C57.7043 21.8774 57.6567 21.9545 57.5945 22.0196C57.5321 22.0839 57.4564 22.1346 57.3726 22.1682C57.2791 22.2065 57.1786 22.2254 57.0772 22.2236C56.9791 22.2236 56.8874 22.2127 56.8004 22.1906C56.7051 22.1651 56.6147 22.1246 56.5328 22.0706V21.0919C56.5967 21.0167 56.6815 20.9524 56.7843 20.8991ZM60.9403 20.5327H60.5785V22.5076H60.9403V20.5327ZM58.6859 20.5327H59.0476V21.1252H59.3816C59.5396 21.1252 59.6677 21.1452 59.7708 21.1828C59.8739 21.2207 59.9563 21.2716 60.018 21.3338C60.0798 21.3959 60.1233 21.4692 60.1483 21.5511C60.1736 21.6332 60.1872 21.7175 60.1872 21.8063C60.1872 21.8951 60.1736 21.9796 60.1439 22.0639C60.1165 22.1482 60.0683 22.2212 60.0041 22.2879C59.9402 22.3546 59.8532 22.4079 59.7433 22.4479C59.6335 22.4876 59.5007 22.5098 59.3405 22.5098H58.6837V20.5327H58.6859ZM59.0501 21.4556V22.1791H59.3134C59.4939 22.1791 59.6223 22.1482 59.6955 22.0858C59.7686 22.0236 59.8053 21.9351 59.8053 21.8175C59.8053 21.6975 59.7664 21.6068 59.6933 21.5444C59.6177 21.4823 59.4918 21.4511 59.318 21.4511H59.0501V21.4556Z" fill="#081D25"/>
<path d="M62.6755 21.4852L63.449 22.5081H63.0051L62.4076 21.7092L61.8011 22.5081H61.3801L62.149 21.5028L61.4258 20.5332H61.87L62.4215 21.2788L62.982 20.5332H63.4033L62.6755 21.4852ZM30.9052 24.9489H29.7953V26.5953H29.4336V24.6207H31.2666V26.5953H30.9052V24.9489ZM33.3195 24.9711H32.6055L32.5824 25.3039C32.5574 25.5857 32.5231 25.8121 32.475 25.9849C32.4269 26.1583 32.3673 26.2913 32.2988 26.3844C32.2302 26.4777 32.15 26.542 32.0583 26.5732C31.9638 26.6068 31.8638 26.6234 31.7633 26.622L31.7358 26.2801C31.7747 26.2823 31.8204 26.2735 31.8707 26.2513C31.9213 26.2292 31.9716 26.1804 32.0195 26.1073C32.0676 26.0316 32.1111 25.9252 32.15 25.7876C32.1889 25.6479 32.2142 25.466 32.2278 25.2372L32.2645 24.6225H33.6812V26.5975H33.3195V24.9711Z" fill="#081D25"/>
<path fill-rule="evenodd" clip-rule="evenodd" d="M34.6557 24.625C34.5388 24.6559 34.4335 24.7002 34.3443 24.7556L34.4406 25.0354C34.523 24.9954 34.6054 24.962 34.6875 24.9332C34.7699 24.9044 34.8755 24.8911 35.0011 24.8911C35.102 24.8911 35.182 24.9066 35.2437 24.9375C35.3057 24.9666 35.3514 25.0108 35.3835 25.0642C35.4153 25.1175 35.436 25.1842 35.4474 25.2615C35.4588 25.3394 35.4635 25.4236 35.4635 25.5146C35.3894 25.4641 35.3051 25.43 35.2162 25.4148C35.1303 25.3981 35.043 25.3892 34.9554 25.3882C34.848 25.3882 34.7471 25.4036 34.6511 25.4303C34.5548 25.457 34.4724 25.497 34.4061 25.5503C34.3383 25.6035 34.2836 25.671 34.2459 25.7476C34.2056 25.8316 34.1854 25.9234 34.1866 26.0162C34.1866 26.209 34.2437 26.3602 34.3582 26.4666C34.4724 26.573 34.6236 26.6263 34.8113 26.6263C34.9807 26.6263 35.1156 26.5975 35.2187 26.5396C35.3215 26.482 35.4039 26.4154 35.4635 26.3399V26.5951H35.8023V25.3836C35.8023 25.1263 35.7449 24.9266 35.6283 24.7868C35.5138 24.6468 35.3101 24.5762 35.0218 24.5762C34.8981 24.5763 34.775 24.5929 34.6557 24.625ZM35.2622 26.2244C35.1801 26.2823 35.0724 26.309 34.9397 26.309C34.8205 26.309 34.7313 26.2802 34.6674 26.2244C34.6032 26.1668 34.5711 26.0914 34.5711 25.9983C34.5711 25.9428 34.5826 25.8962 34.6078 25.854C34.6329 25.8119 34.6674 25.7786 34.7063 25.7519C34.7452 25.7252 34.7931 25.7052 34.8458 25.6919C34.8981 25.6787 34.952 25.672 35.006 25.6722C35.1844 25.6722 35.3378 25.7143 35.4637 25.8028V26.0535C35.4043 26.1187 35.3366 26.1762 35.2622 26.2244Z" fill="#081D25"/>
<path d="M36.1572 24.6191H38.0134V24.9695H37.2671V26.5938H36.9057V24.9698H36.1597V24.6191H36.1572Z" fill="#081D25"/>
<path fill-rule="evenodd" clip-rule="evenodd" d="M39.7018 26.5736C39.8391 26.5315 39.9558 26.467 40.0564 26.3784L39.9465 26.1032C39.8802 26.1611 39.791 26.2099 39.6833 26.2499C39.5759 26.2899 39.4546 26.3096 39.3218 26.3096C39.1228 26.3096 38.9579 26.2587 38.8274 26.1544C38.6969 26.0502 38.6261 25.9038 38.6101 25.7171H40.1755C40.1913 25.6486 40.1984 25.5707 40.1984 25.4798C40.1984 25.3446 40.1731 25.2224 40.1228 25.1115C40.0759 25.0038 40.0074 24.9065 39.9212 24.8254C39.8343 24.7447 39.7316 24.682 39.6194 24.6411C39.5019 24.5964 39.3769 24.5738 39.2509 24.5744C39.0814 24.5744 38.9327 24.6032 38.8024 24.6566C38.6791 24.7073 38.5677 24.782 38.4749 24.8763C38.3848 24.97 38.3154 25.0811 38.2712 25.2024C38.223 25.3317 38.199 25.4685 38.2002 25.6062C38.2002 25.7616 38.2277 25.9035 38.278 26.0302C38.3286 26.1566 38.4039 26.2654 38.4978 26.3563C38.5916 26.4472 38.7061 26.516 38.8413 26.5648C38.9859 26.6153 39.1385 26.6401 39.2919 26.6382C39.4271 26.6382 39.5644 26.6158 39.7018 26.5736ZM38.7842 25.0515C38.8962 24.9518 39.045 24.903 39.2326 24.903C39.4113 24.903 39.5508 24.9518 39.6539 25.0427C39.7567 25.136 39.8116 25.2646 39.8209 25.4288H38.5851C38.6025 25.2835 38.6733 25.1494 38.7842 25.0515ZM40.3746 24.619H40.8323L41.5302 25.571L40.7842 26.5936H40.3403L41.1228 25.5707L40.3746 24.619ZM41.6194 24.619H41.9811V26.5936H41.6194V24.619ZM43.2741 26.5936L42.4777 25.5707L43.2216 24.6187H42.7728L42.0703 25.5707L42.8256 26.5936H43.2741ZM44.9265 26.5736C45.0639 26.5315 45.1805 26.467 45.2812 26.3784L45.1713 26.1032C45.1049 26.1611 45.0157 26.2099 44.9083 26.2499C44.8006 26.2899 44.6793 26.3096 44.5466 26.3096C44.3475 26.3096 44.1827 26.2587 44.0521 26.1544C43.9219 26.0502 43.8509 25.9038 43.8348 25.7171H45.4003C45.4163 25.6486 45.4231 25.5707 45.4231 25.4798C45.4231 25.3446 45.3981 25.2224 45.3475 25.1115C45.3007 25.0039 45.2322 24.9066 45.1463 24.8254C45.0592 24.7447 44.9564 24.682 44.8441 24.6411C44.7266 24.5964 44.6016 24.5738 44.4756 24.5744C44.3064 24.5744 44.1577 24.6032 44.0271 24.6566C43.904 24.7073 43.7927 24.7821 43.7 24.8763C43.6096 24.9699 43.5402 25.081 43.4963 25.2024C43.4479 25.3317 43.4239 25.4685 43.4253 25.6062C43.4253 25.7616 43.4527 25.9035 43.503 26.0302C43.5534 26.1566 43.629 26.2654 43.7228 26.3563C43.8166 26.4472 43.9309 26.516 44.066 26.5648C44.2107 26.6153 44.3634 26.6401 44.5169 26.6382C44.656 26.6372 44.7941 26.6154 44.9265 26.5736ZM44.0089 25.0515C44.1212 24.9518 44.27 24.903 44.4576 24.903C44.6339 24.903 44.7756 24.9518 44.8787 25.0427C44.9817 25.136 45.0367 25.2646 45.0456 25.4288H43.8098C43.8273 25.2835 43.898 25.1494 44.0089 25.0515ZM46.8904 23.9555C46.6774 23.9555 46.5608 23.84 46.5425 23.6094H46.2015C46.2015 23.6979 46.2175 23.7779 46.2472 23.8534C46.2771 23.9288 46.3206 23.9931 46.3777 24.0464C46.4348 24.0998 46.5083 24.1419 46.5929 24.175C46.6774 24.2083 46.7759 24.2238 46.8879 24.2238C46.991 24.2238 47.0827 24.2083 47.1651 24.175C47.2475 24.144 47.316 24.0998 47.3756 24.0464C47.4327 23.9931 47.4787 23.9288 47.5105 23.8534C47.5426 23.7779 47.5586 23.6979 47.5586 23.6094H47.22C47.204 23.84 47.0916 23.9555 46.8904 23.9555ZM45.9129 24.6187V26.5936H46.2747L47.4509 25.1224V26.5936H47.8126V24.6187H47.4509L46.2747 26.0899V24.6187H45.9129Z" fill="#081D25"/>
</svg>
