<svg width="47" height="20" viewBox="0 0 47 20" fill="none" xmlns="http://www.w3.org/2000/svg">
<g clip-path="url(#clip0_1302_20369)">
<path d="M30.6056 2.52344C27.2718 2.52344 24.2925 4.22198 24.2925 7.36016C24.2925 10.9591 29.5764 11.2076 29.5764 13.0156C29.5764 13.7769 28.6888 14.4583 27.173 14.4583C25.0216 14.4583 23.4137 13.5062 23.4137 13.5062L22.7257 16.6729C22.7257 16.6729 24.578 17.4772 27.0372 17.4772C30.6821 17.4772 33.5503 15.6953 33.5503 12.5035C33.5503 8.70057 28.2444 8.45938 28.2444 6.78127C28.2444 6.18492 28.973 5.53151 30.4846 5.53151C32.19 5.53151 33.5815 6.22402 33.5815 6.22402L34.2548 3.16545C34.2548 3.16545 32.7408 2.52344 30.6056 2.52344ZM0.104163 2.75427L0.0234375 3.21594C0.0234375 3.21594 1.42599 3.46826 2.68922 3.97157C4.31573 4.54872 4.4316 4.8847 4.70553 5.92826L7.69054 17.2392H11.692L17.8565 2.75427H13.8642L9.90316 12.6026L8.28681 4.2547C8.13858 3.29929 7.38773 2.75427 6.46865 2.75427H0.104163ZM19.4618 2.75427L16.33 17.2392H20.137L23.2578 2.75427H19.4618ZM40.6945 2.75427C39.7765 2.75427 39.2901 3.23737 38.9332 4.08158L33.3558 17.2392H37.3481L38.1205 15.0463H42.9842L43.4539 17.2392H46.9764L43.9034 2.75427H40.6945ZM41.2137 6.66765L42.3971 12.1031H39.2268L41.2137 6.66765Z" fill="#1434CB"/>
</g>
<defs>
<clipPath id="clip0_1302_20369">
<rect width="47" height="15" fill="white" transform="translate(0 2.5)"/>
</clipPath>
</defs>
</svg>
