<svg width="79" height="20" viewBox="0 0 79 20" fill="none" xmlns="http://www.w3.org/2000/svg">
<path d="M69.1863 10.0523C69.1863 7.84453 67.5621 6.05859 65.268 6.05859C63.0192 6.05859 61.418 7.77591 61.418 10.1356C61.418 12.5071 63.0646 14.2362 65.4271 14.2362C66.9261 14.2362 68.1866 13.5466 68.9703 12.1448L67.3805 11.3855C67.0059 12.0863 66.1878 12.542 65.4271 12.542C64.4619 12.542 63.349 11.7944 63.2806 10.7549H69.1295C69.1667 10.5227 69.1858 10.2877 69.1863 10.0523ZM63.3145 9.37734C63.4513 8.32603 64.1551 7.63697 65.2795 7.63697C66.3923 7.63697 67.0738 8.31197 67.1645 9.37734H63.3145Z" fill="#081D25"/>
<path d="M47.2933 6.05664C44.9877 6.05664 43.3525 7.7627 43.3525 10.1691C43.3525 12.5518 44.9877 14.2343 47.3163 14.2343C49.6558 14.2343 51.291 12.5518 51.291 10.204C51.291 7.78577 49.6104 6.05664 47.2933 6.05664ZM47.3163 12.4466C46.1575 12.4466 45.4421 11.559 45.4421 10.1803C45.4421 8.77858 46.1689 7.82064 47.3163 7.82064C48.4746 7.82064 49.2014 8.76677 49.2014 10.1803C49.2014 11.5708 48.4861 12.4466 47.3163 12.4466Z" fill="#081D25"/>
<path d="M39.0838 6.05873C38.1394 6.05873 37.4279 6.3906 36.7164 7.21354H36.4829C36.0049 6.47048 35.2251 6.05873 34.3501 6.05873C33.9132 6.05434 33.4816 6.15674 33.0907 6.35751C32.6998 6.55828 32.3609 6.85168 32.1019 7.21354H31.8684L31.8569 7.20229V6.21904H29.9023V14.0625H32.0144V10.026C32.0144 8.72273 32.5481 7.9566 33.4707 7.9566C34.3266 7.9566 34.8822 8.60854 34.8822 9.60304V14.0625H37.0052V10.026C37.0052 8.73229 37.5389 7.9566 38.473 7.9566C39.3173 7.9566 39.862 8.60854 39.862 9.61485V14.0625H41.9855V9.3516C41.9855 7.30523 40.918 6.05873 39.0838 6.05873Z" fill="#081D25"/>
<path d="M73.883 11.3417H73.7321C73.7321 11.2022 72.8111 8.71823 72.2074 7.17923L71.83 6.2168H69.7021L72.7209 14.0879L71.5314 17.0871H73.6446L77.9917 6.21961H75.8627L75.5154 7.04255L74.338 10.039C74.006 10.876 73.8699 11.2641 73.883 11.3417Z" fill="#081D25"/>
<path d="M57.1488 6.05859C56.2038 6.05859 55.3922 6.48159 54.8475 7.23647H54.625L54.6031 7.22522V6.21891H52.6475V14.0624H54.7595V10.049C54.7595 8.76872 55.3611 7.96772 56.3493 7.96772C57.2718 7.96772 57.95 8.67647 57.95 9.79697V14.0618H60.062V9.32897C60.062 7.40803 58.8392 6.05859 57.1488 6.05859Z" fill="#081D25"/>
<path d="M15.558 1.5625C10.9949 1.5625 7.32812 5.35937 7.32812 10C7.32812 14.6789 11.031 18.4375 15.557 18.4375C20.0829 18.4375 23.7891 14.6406 23.7891 10C23.7891 5.35937 20.084 1.5625 15.558 1.5625ZM15.558 13.1449C13.8748 13.1449 12.4912 11.7257 12.4912 10C12.4912 8.27425 13.8748 6.85506 15.558 6.85506C17.2413 6.85506 18.6255 8.27425 18.6255 10C18.5877 11.7257 17.2413 13.1449 15.558 13.1449Z" fill="#8B3FFD"/>
<path d="M7.32844 4.01367V16.2863H4.4125L0.671875 4.01367H7.32844Z" fill="#8B3FFD"/>
</svg>
