<svg width="114" height="114" viewBox="0 0 114 114" fill="none" xmlns="http://www.w3.org/2000/svg">
<g clip-path="url(#clip0_1302_20254)">
<path d="M45.3036 87.2702V81.7185H51.259V87.2702H45.3036Z" fill="#C1B59F"/>
<path d="M59.6105 81.7185V87.2702H65.5659V81.7185H59.6105Z" fill="#C1B59F"/>
<path fill-rule="evenodd" clip-rule="evenodd" d="M19.5541 41.8865L27.4412 49.7291C20.8656 50.7463 15.8334 56.4013 15.8334 63.225C15.8334 67.8895 18.1848 72.0079 21.7731 74.4721L29.9265 103.954C31.0817 108.13 34.9011 111.025 39.2576 111.025H74.2428C78.5992 111.025 82.4187 108.13 83.5739 103.954L91.7267 74.4739C95.3166 72.0099 97.6691 67.8906 97.6691 63.225C97.6691 55.6814 91.5191 49.5661 83.9328 49.5661H83.2171L90.9402 41.8865L85.6764 36.6523L72.6894 49.5661H37.805L24.818 36.6523L19.5541 41.8865ZM90.2249 63.225C90.2249 66.6805 87.4078 69.4817 83.9328 69.4817H78.2104V76.8839H83.3396L76.3961 101.991C76.1295 102.955 75.2481 103.623 74.2428 103.623H39.2576C38.2523 103.623 37.3708 102.955 37.1043 101.991L30.1607 76.8839H63.9043V69.4817H29.5698C26.0947 69.4817 23.2776 66.6805 23.2776 63.225C23.2776 59.7696 26.0947 56.9684 29.5698 56.9684H83.9328C87.4078 56.9684 90.2249 59.7696 90.2249 63.225Z" fill="#C1B59F"/>
<path d="M66.187 96.8087C64.9406 95.2272 63.3486 93.9404 61.5283 93.043C59.7079 92.1456 57.7057 91.6605 55.669 91.6234C53.6323 91.5863 51.613 91.9982 49.76 92.8288C47.9071 93.6594 46.2676 94.8874 44.9623 96.4224L49.2693 99.9504C50.0368 99.0478 51.0008 98.3257 52.0904 97.8373C53.18 97.349 54.3673 97.1067 55.5649 97.1285C56.7626 97.1503 57.9399 97.4356 59.0103 97.9633C60.0807 98.491 61.0168 99.2477 61.7497 100.178L66.187 96.8087Z" fill="#C1B59F"/>
<path fill-rule="evenodd" clip-rule="evenodd" d="M97.1166 75.1484H113.683V81.9863H100.023L84.8089 97.0704L79.8579 92.2597L97.1166 75.1484Z" fill="#C1B59F"/>
<path fill-rule="evenodd" clip-rule="evenodd" d="M16.5668 75.1484H0V81.9863H13.6605L28.8745 97.0704L33.8255 92.2597L16.5668 75.1484Z" fill="#C1B59F"/>
<path d="M62.1894 21.7985C68.9031 16.4167 79.1395 17.8152 79.1395 17.8152C79.1395 17.8152 78.4909 27.9392 71.7773 33.321C65.0636 38.7027 54.8272 37.3042 54.8272 37.3042C54.8272 37.3042 55.4758 27.1802 62.1894 21.7985Z" fill="#E25740"/>
<path d="M38.9141 17.3996C45.0169 23.4416 44.5821 33.5766 44.5821 33.5766C44.5821 33.5766 34.2528 33.9156 28.15 27.8736C22.0472 21.8316 22.482 11.6966 22.482 11.6966C22.482 11.6966 32.8114 11.3576 38.9141 17.3996Z" fill="#E25740"/>
</g>
<defs>
<clipPath id="clip0_1302_20254">
<rect width="114" height="114" fill="white"/>
</clipPath>
</defs>
</svg>
