<svg width="180" height="180" viewBox="0 0 180 180" fill="none" xmlns="http://www.w3.org/2000/svg">
<path d="M89.0463 14.3999C70.5155 14.4093 52.5634 20.5537 38.241 31.792C23.9284 43.0303 14.1284 58.6588 10.5282 76.0228C6.92794 93.3867 9.73357 111.398 18.4742 127.008C27.2147 142.608 41.3606 154.831 58.4886 161.595C75.6166 168.359 94.6674 169.24 112.394 164.09C130.12 158.94 145.433 148.086 155.724 133.359C166.015 118.631 170.635 100.966 168.81 83.3492C166.986 65.7413 158.824 49.2779 145.708 36.7639C130.67 22.4487 110.294 14.3999 89.0463 14.3999ZM116.279 58.5368C102.643 48.3023 52.171 43.6213 46.6775 87.0171C42.3121 121.351 82.9642 142.983 115.415 125.141C155.812 102.927 142.314 57.7113 142.314 57.7113L145.944 56.4168C145.944 56.4168 163.758 84.7657 142.569 119.447C122.4 152.43 67.2194 159.062 41.2527 126.97C13.8831 93.1522 32.0118 53.1522 59.4009 39.7751C84.2199 27.6551 122.782 31.0791 130.052 59.8408C134.505 77.4955 129.394 97.3548 110.314 109.512C93.6079 120.178 64.6786 117.843 60.3721 94.4937C84.4357 102.317 114.67 93.3398 116.279 58.4055V58.5368ZM104.124 64.5031C100.593 78.2648 86.7214 90.0565 60.8037 82.4205C67.8276 60.9102 90.9593 60.3286 104.124 64.4468V64.5031Z" fill="#E25740"/>
</svg>
