<svg width="155" height="40" viewBox="0 0 155 40" fill="none" xmlns="http://www.w3.org/2000/svg">
<g clip-path="url(#clip0_401_1980)">
<path d="M83.7319 35.8881V31.9935H84.6824C84.6696 32.251 84.5876 32.5134 84.4365 32.7783L84.7285 32.9255C85.0206 32.251 85.4997 31.915 86.1607 31.915C86.6295 31.915 86.9959 32.0769 87.2597 32.4031C87.5211 32.7293 87.6543 33.183 87.6543 33.7642V35.8905H86.7166V33.8746C86.7166 33.5018 86.6295 33.2149 86.4553 33.0187C86.2811 32.8225 86.0274 32.7244 85.6944 32.7244C85.3613 32.7244 85.1077 32.8225 84.9335 33.0187C84.7593 33.2149 84.6722 33.5018 84.6722 33.8746V35.8905H83.7319V35.8881Z" fill="#705435"/>
<path d="M90.1316 35.9759C89.6807 35.9759 89.322 35.8754 89.0581 35.6743C88.7942 35.4732 88.6636 35.2009 88.6636 34.8576C88.6636 34.5314 88.7789 34.2616 89.0094 34.0507C89.24 33.8374 89.5526 33.7147 89.9445 33.6755L91.2819 33.548C91.4407 33.5332 91.5663 33.4866 91.661 33.4106C91.7558 33.3346 91.802 33.2365 91.802 33.1212C91.802 32.9692 91.7225 32.8539 91.5663 32.7705C91.41 32.6896 91.1871 32.6479 90.9027 32.6479C90.603 32.6479 90.3596 32.6994 90.1751 32.8C89.9907 32.9005 89.8728 33.0477 89.8241 33.2389H88.8865C88.9633 32.8196 89.1785 32.4909 89.5321 32.2555C89.8856 32.0201 90.3391 31.9023 90.8899 31.9023C91.4945 31.9023 91.9608 32.047 92.2862 32.3364C92.6141 32.6258 92.7781 33.0378 92.7781 33.5725V34.7816C92.7781 34.9214 92.8165 35.0096 92.8933 35.0513C92.9702 35.0906 93.1239 35.1028 93.3519 35.0857V35.8925C92.8626 35.9416 92.5244 35.8876 92.3323 35.738C92.1401 35.586 92.0915 35.3358 92.1837 34.9851L91.8762 34.8944C91.7277 35.2475 91.5073 35.5173 91.2127 35.7037C90.9155 35.8827 90.5543 35.9759 90.1316 35.9759ZM90.293 35.2377C90.6516 35.2377 90.9719 35.1298 91.2511 34.9115C91.5304 34.6933 91.7507 34.3867 91.907 33.987L91.6457 33.8398C91.5432 33.9771 91.4228 34.0752 91.287 34.139C91.1512 34.2028 90.9693 34.2445 90.7387 34.269L90.2007 34.3229C90.0137 34.3426 89.8677 34.3965 89.7626 34.4799C89.6576 34.5657 89.6038 34.6737 89.6038 34.8036C89.6038 34.941 89.6627 35.0464 89.7831 35.1249C89.9036 35.1985 90.0726 35.2377 90.293 35.2377Z" fill="#705435"/>
<path d="M96.6802 35.8732C96.1268 35.9272 95.6989 35.9174 95.3992 35.8487C95.0994 35.78 94.8842 35.6402 94.7613 35.4342C94.6357 35.2282 94.5742 34.9241 94.5742 34.5244V32.7855H93.8057V32.0008C94.0029 32.0032 94.1592 31.9885 94.2771 31.9566C94.3923 31.9247 94.4871 31.8634 94.5589 31.7751C94.6306 31.6844 94.6793 31.5691 94.7023 31.4293C94.7254 31.2871 94.7356 31.0982 94.7331 30.8604H95.6913C95.6631 31.1546 95.6016 31.3778 95.5119 31.5274C95.4197 31.677 95.2557 31.8168 95.02 31.9468L95.1584 32.2166C95.3787 32.1185 95.5939 32.0547 95.7989 32.0228C96.0038 31.9934 96.2908 31.9836 96.6571 31.9934V32.7855H95.5145V34.5391C95.5145 34.647 95.5247 34.7353 95.5427 34.8039C95.5606 34.8726 95.5939 34.9315 95.64 34.9805C95.6861 35.0296 95.7553 35.0639 95.845 35.0811C95.9372 35.0982 96.0474 35.1081 96.1806 35.1056C96.3113 35.1031 96.4803 35.0933 96.6827 35.0737V35.8732H96.6802Z" fill="#705435"/>
<path d="M100.679 35.8872C100.692 35.6321 100.774 35.3697 100.92 35.1024L100.631 34.9553C100.339 35.6272 99.8621 35.9632 99.2011 35.9632C98.7349 35.9632 98.3711 35.8014 98.1097 35.4776C97.8484 35.1539 97.7178 34.7002 97.7178 34.119V31.9951H98.6606V34.0111C98.6606 34.3838 98.7477 34.6708 98.9193 34.8645C99.091 35.0607 99.3446 35.1588 99.6725 35.1588C100.003 35.1588 100.254 35.0607 100.426 34.8645C100.597 34.6683 100.684 34.3838 100.684 34.0111V31.9951H101.627V35.8897H100.679V35.8872Z" fill="#705435"/>
<path d="M102.957 35.8881V31.9935H103.907C103.904 32.1333 103.887 32.2633 103.853 32.3884C103.82 32.5134 103.764 32.6655 103.684 32.8445L104.025 32.977C104.14 32.5846 104.325 32.3148 104.576 32.1627C104.827 32.0107 105.188 31.9543 105.665 31.9935V32.8298C105.024 32.7808 104.568 32.8691 104.302 33.0947C104.033 33.3203 103.899 33.7152 103.899 34.2792V35.8856H102.957V35.8881Z" fill="#705435"/>
<path d="M107.537 35.9759C107.086 35.9759 106.728 35.8754 106.464 35.6743C106.2 35.4732 106.069 35.2009 106.069 34.8576C106.069 34.5314 106.185 34.2616 106.415 34.0507C106.646 33.8374 106.958 33.7147 107.35 33.6755L108.688 33.548C108.846 33.5332 108.972 33.4866 109.067 33.4106C109.162 33.3346 109.208 33.2365 109.208 33.1212C109.208 32.9692 109.128 32.8539 108.972 32.7705C108.816 32.6896 108.593 32.6479 108.308 32.6479C108.009 32.6479 107.765 32.6994 107.581 32.8C107.396 32.9005 107.279 33.0477 107.23 33.2389H106.292C106.369 32.8196 106.584 32.4909 106.938 32.2555C107.291 32.0201 107.745 31.9023 108.296 31.9023C108.9 31.9023 109.367 32.047 109.692 32.3364C110.02 32.6258 110.184 33.0378 110.184 33.5725V34.7816C110.184 34.9214 110.222 35.0096 110.299 35.0513C110.376 35.0906 110.53 35.1028 110.758 35.0857V35.8925C110.268 35.9416 109.93 35.8876 109.738 35.738C109.546 35.586 109.497 35.3358 109.589 34.9851L109.282 34.8944C109.133 35.2475 108.913 35.5173 108.618 35.7037C108.321 35.8827 107.963 35.9759 107.537 35.9759ZM107.701 35.2377C108.06 35.2377 108.38 35.1298 108.659 34.9115C108.939 34.6933 109.159 34.3867 109.315 33.987L109.054 33.8398C108.952 33.9771 108.831 34.0752 108.695 34.139C108.56 34.2028 108.378 34.2445 108.147 34.269L107.609 34.3229C107.422 34.3426 107.276 34.3965 107.171 34.4799C107.066 34.5657 107.012 34.6737 107.012 34.8036C107.012 34.941 107.071 35.0464 107.191 35.1249C107.312 35.1985 107.481 35.2377 107.701 35.2377Z" fill="#705435"/>
<path d="M113.704 35.8878C112.989 35.9516 112.48 35.8731 112.177 35.6499C111.875 35.4292 111.721 35.0368 111.721 34.4727V30.4531H112.659V34.3967C112.659 34.5022 112.664 34.5905 112.672 34.6591C112.682 34.7278 112.7 34.7916 112.728 34.848C112.756 34.9068 112.795 34.9485 112.841 34.978C112.889 35.0074 112.951 35.0295 113.03 35.0491C113.11 35.0662 113.202 35.0761 113.31 35.0736C113.417 35.0711 113.548 35.0638 113.704 35.0491V35.8878Z" fill="#705435"/>
<path d="M118.567 35.9833C117.924 35.9833 117.393 35.792 116.976 35.407C116.558 35.0219 116.351 34.5339 116.351 33.9404C116.351 33.5504 116.445 33.2022 116.635 32.8883C116.825 32.5768 117.088 32.334 117.429 32.1599C117.767 31.9858 118.149 31.8975 118.574 31.8975C119.043 31.8975 119.458 32.0029 119.819 32.2138C120.181 32.4247 120.445 32.7117 120.614 33.0747C120.783 33.4376 120.839 33.8398 120.778 34.2788H117.291C117.352 34.5633 117.496 34.7914 117.726 34.9631C117.957 35.1347 118.236 35.2181 118.564 35.2181C118.81 35.2181 119.033 35.1715 119.233 35.0759C119.433 34.9802 119.591 34.8502 119.704 34.6835H120.678C120.519 35.0808 120.25 35.3947 119.873 35.6277C119.497 35.8656 119.059 35.9833 118.567 35.9833ZM117.293 33.6167H119.878C119.817 33.3248 119.671 33.0918 119.438 32.9201C119.205 32.7485 118.92 32.6626 118.585 32.6626C118.249 32.6626 117.967 32.7485 117.734 32.9226C117.498 33.0943 117.352 33.3248 117.293 33.6167Z" fill="#705435"/>
<path d="M121.887 35.8881V31.9935H122.837C122.824 32.2142 122.74 32.4742 122.584 32.7783L122.891 32.9255C123.173 32.251 123.626 31.915 124.251 31.915C124.587 31.915 124.864 32.0058 125.081 32.1848C125.299 32.3638 125.435 32.6115 125.489 32.9279H125.773C125.817 32.6312 125.968 32.3859 126.227 32.1995C126.483 32.0107 126.795 31.9175 127.159 31.9175C127.62 31.9175 127.984 32.0745 128.251 32.3908C128.517 32.7072 128.65 33.1388 128.65 33.6857V35.8905H127.707V33.8648C127.707 33.4969 127.625 33.2149 127.459 33.0187C127.295 32.8225 127.057 32.7244 126.744 32.7244C126.421 32.7244 126.173 32.8274 125.994 33.0309C125.814 33.2345 125.725 33.5214 125.725 33.8917V35.893H124.807V33.8672C124.807 33.4993 124.725 33.2173 124.559 33.0211C124.395 32.8249 124.157 32.7268 123.844 32.7268C123.521 32.7268 123.273 32.8298 123.093 33.0334C122.914 33.2369 122.824 33.5239 122.824 33.8942V35.8954H121.887V35.8881Z" fill="#705435"/>
<path d="M131.925 35.9833C131.489 35.9833 131.097 35.895 130.751 35.7209C130.405 35.5443 130.134 35.3015 129.939 34.9925C129.744 34.681 129.647 34.3328 129.647 33.9428C129.647 33.3542 129.862 32.8662 130.295 32.4811C130.726 32.0936 131.271 31.9023 131.927 31.9023C132.363 31.9023 132.755 31.9906 133.1 32.1648C133.446 32.3413 133.718 32.5841 133.913 32.8931C134.107 33.2046 134.205 33.5529 134.205 33.9428C134.205 34.5363 133.989 35.0244 133.562 35.4094C133.129 35.792 132.586 35.9833 131.925 35.9833ZM130.959 34.8355C131.205 35.0636 131.527 35.1764 131.927 35.1764C132.324 35.1764 132.647 35.0636 132.896 34.8355C133.141 34.6074 133.264 34.3107 133.264 33.9404C133.264 33.5725 133.141 33.2733 132.896 33.0452C132.65 32.8171 132.327 32.7043 131.927 32.7043C131.53 32.7043 131.207 32.8171 130.959 33.0452C130.713 33.2733 130.59 33.57 130.59 33.9404C130.587 34.3107 130.713 34.6074 130.959 34.8355Z" fill="#705435"/>
<path d="M137.758 35.8732C137.205 35.9272 136.777 35.9174 136.477 35.8487C136.178 35.78 135.962 35.6402 135.839 35.4342C135.714 35.2282 135.652 34.9241 135.652 34.5244V32.7855H134.884V32.0008C135.081 32.0032 135.237 31.9885 135.355 31.9566C135.47 31.9247 135.565 31.8634 135.637 31.7751C135.709 31.6844 135.757 31.5691 135.78 31.4293C135.804 31.2871 135.814 31.0982 135.811 30.8604H136.769C136.741 31.1546 136.68 31.3778 136.59 31.5274C136.498 31.677 136.334 31.8168 136.098 31.9468L136.236 32.2166C136.457 32.1185 136.672 32.0547 136.877 32.0228C137.082 31.9934 137.369 31.9836 137.735 31.9934V32.7855H136.593V34.5391C136.593 34.647 136.603 34.7353 136.621 34.8039C136.639 34.8726 136.672 34.9315 136.718 34.9805C136.764 35.0296 136.833 35.0639 136.923 35.0811C137.015 35.0982 137.125 35.1081 137.259 35.1056C137.389 35.1031 137.558 35.0933 137.761 35.0737V35.8732H137.758Z" fill="#705435"/>
<path d="M138.76 31.2402V30.1709H139.959V31.2402H138.76ZM138.89 35.8876V31.9931H139.833V35.8876H138.89Z" fill="#705435"/>
<path d="M143.192 35.9833C142.757 35.9833 142.365 35.895 142.019 35.7209C141.673 35.5443 141.401 35.3015 141.207 34.9925C141.012 34.681 140.915 34.3328 140.915 33.9428C140.915 33.3542 141.13 32.8662 141.563 32.4811C141.993 32.0936 142.539 31.9023 143.195 31.9023C143.63 31.9023 144.022 31.9906 144.368 32.1648C144.714 32.3413 144.985 32.5841 145.18 32.8931C145.375 33.2046 145.472 33.5529 145.472 33.9428C145.472 34.5363 145.257 35.0244 144.829 35.4094C144.396 35.792 143.851 35.9833 143.192 35.9833ZM142.224 34.8355C142.47 35.0636 142.792 35.1764 143.192 35.1764C143.589 35.1764 143.912 35.0636 144.161 34.8355C144.406 34.6074 144.529 34.3107 144.529 33.9404C144.529 33.5725 144.406 33.2733 144.161 33.0452C143.915 32.8171 143.592 32.7043 143.192 32.7043C142.795 32.7043 142.472 32.8171 142.224 33.0452C141.978 33.2733 141.855 33.57 141.855 33.9404C141.855 34.3107 141.978 34.6074 142.224 34.8355Z" fill="#705435"/>
<path d="M146.551 35.8881V31.9935H147.501C147.488 32.251 147.406 32.5134 147.255 32.7783L147.547 32.9255C147.839 32.251 148.319 31.915 148.979 31.915C149.448 31.915 149.815 32.0769 150.079 32.4031C150.34 32.7293 150.473 33.183 150.473 33.7642V35.8905H149.535V33.8746C149.535 33.5018 149.448 33.2149 149.274 33.0187C149.1 32.8225 148.846 32.7244 148.513 32.7244C148.18 32.7244 147.927 32.8225 147.752 33.0187C147.578 33.2149 147.491 33.5018 147.491 33.8746V35.8905H146.551V35.8881Z" fill="#705435"/>
<path d="M153.284 35.9838C152.741 35.9838 152.305 35.8661 151.977 35.6282C151.649 35.3903 151.485 35.069 151.488 34.6619H152.41C152.415 34.8434 152.492 34.9856 152.643 35.0862C152.794 35.1867 153.007 35.2382 153.284 35.2382C153.532 35.2382 153.724 35.199 153.86 35.123C153.996 35.0469 154.065 34.9366 154.065 34.7943C154.065 34.684 154.019 34.5908 153.927 34.5196C153.835 34.4485 153.714 34.3921 153.566 34.3553C153.417 34.3185 153.256 34.2817 153.076 34.2499C152.897 34.218 152.72 34.1738 152.541 34.1223C152.361 34.0708 152.197 34.0071 152.049 33.931C151.9 33.855 151.78 33.7447 151.688 33.6C151.595 33.4553 151.549 33.2787 151.549 33.0751C151.549 32.8716 151.593 32.6901 151.685 32.538C151.775 32.3835 151.898 32.2609 152.054 32.1702C152.21 32.0794 152.379 32.0107 152.566 31.9666C152.753 31.9225 152.953 31.9004 153.166 31.9004C153.671 31.9004 154.081 32.0157 154.401 32.2462C154.721 32.4767 154.88 32.7784 154.882 33.1487H153.958C153.952 32.9942 153.881 32.8691 153.74 32.7735C153.599 32.6778 153.409 32.6288 153.166 32.6288C152.958 32.6288 152.789 32.6656 152.664 32.7416C152.538 32.8152 152.474 32.9182 152.474 33.0457C152.474 33.1389 152.51 33.2198 152.582 33.2836C152.654 33.3498 152.751 33.3989 152.869 33.4332C152.987 33.4675 153.122 33.5019 153.274 33.5362C153.425 33.5705 153.578 33.6024 153.737 33.6318C153.893 33.6588 154.047 33.703 154.201 33.7618C154.352 33.8207 154.488 33.8869 154.606 33.9654C154.724 34.0414 154.821 34.1493 154.893 34.2842C154.964 34.4191 155 34.576 155 34.7551C155 35.1303 154.847 35.4295 154.537 35.6502C154.229 35.8734 153.812 35.9838 153.284 35.9838Z" fill="#705435"/>
<path d="M124.1 19.2712C119.445 19.2712 114.895 19.2712 110.283 19.2712C110.599 21.113 111.552 22.4128 113.327 23.0014C115.874 23.8451 118.062 23.2638 119.832 21.1964C120.89 21.8856 121.943 22.5722 123.027 23.281C122.061 24.7035 120.854 25.8144 119.227 26.3736C115.835 27.5385 112.533 27.4085 109.548 25.3019C106.994 23.4993 105.915 20.9438 105.869 17.964C105.818 14.69 107.007 11.9554 109.874 10.0499C112.123 8.55631 114.667 8.26691 117.298 8.75005C121.131 9.45391 123.949 12.6814 124.097 16.4508C124.131 17.3534 124.1 18.2608 124.1 19.2712ZM119.755 15.7519C119.591 13.6599 117.741 12.1394 115.356 12.083C112.876 12.0241 110.696 13.6403 110.453 15.7519C113.54 15.7519 116.624 15.7519 119.755 15.7519Z" fill="#705435"/>
<path d="M55.7348 26.5607C54.2232 26.5607 52.7911 26.5607 51.3359 26.5607C51.3359 20.7067 51.3359 14.8845 51.3359 9.02059C52.7911 9.02059 54.2181 9.02059 55.7143 9.02059C55.7143 10.1046 55.4325 11.3946 55.1609 12.5693C55.4325 12.5693 55.9013 12.5693 56.114 12.5693C56.324 12.1475 56.6468 11.4387 56.9005 11.0439C57.8586 9.54542 59.3804 8.67234 61.2327 8.59631C61.9142 8.56933 62.6213 8.60367 63.2848 8.75082C65.7648 9.30508 67.0227 10.9728 67.5402 13.2413C67.6555 13.7514 67.6811 14.291 67.6811 14.8158C67.6914 18.5706 67.6888 22.3253 67.6862 26.0801C67.6862 26.2272 67.6734 26.3768 67.6657 26.5583C66.2157 26.5583 64.7887 26.5583 63.2669 26.5583C63.2669 26.3449 63.2669 26.1291 63.2669 25.9108C63.2669 22.779 63.2669 19.6472 63.2669 16.5154C63.2669 15.5736 63.1132 14.6785 62.4599 13.9182C61.4607 12.7557 60.1362 12.4614 58.681 12.7336C57.1695 13.0157 56.2292 13.9599 55.868 15.3897C55.7578 15.8238 55.7425 16.2873 55.7425 16.7386C55.7322 19.7943 55.7373 22.8526 55.7373 25.9084C55.7348 26.1119 55.7348 26.3155 55.7348 26.5607Z" fill="#705435"/>
<path d="M93.9869 12.5592C92.875 12.5592 91.817 12.5592 90.7153 12.5592C90.7153 11.3599 90.7153 10.2219 90.7153 9.00796C91.8093 9.00796 92.9032 9.00796 94.0638 9.00796C94.0638 7.664 94.0638 6.39116 94.0638 5.08398C95.542 5.08398 96.9511 5.08398 98.4293 5.08398C98.4293 6.37644 98.4293 7.64928 98.4293 8.98343C100.166 8.98343 101.834 8.98343 103.561 8.98343C103.561 10.1778 103.561 11.3133 103.561 12.5346C101.873 12.5346 100.192 12.5346 98.478 12.5346C98.4626 12.7823 98.4421 12.9466 98.4421 13.1085C98.4396 15.6763 98.437 18.2416 98.4421 20.8093C98.4447 22.244 98.9622 22.7247 100.484 22.7345C101.406 22.7394 102.326 22.7345 103.284 22.7345C103.284 24.0417 103.284 25.2753 103.284 26.58C101.314 26.5089 99.3568 26.786 97.4379 26.3225C95.4191 25.8369 94.0971 24.1815 94.0612 22.0478C94.0125 19.1244 94.033 16.1986 94.0202 13.2728C94.0254 13.0546 94.0023 12.8338 93.9869 12.5592Z" fill="#705435"/>
<path d="M89.1835 23.0166C89.1835 23.1613 89.2117 23.2716 89.2117 23.3795V26.4795C87.9307 26.4795 87.0187 26.5751 85.8607 26.1631C83.8854 25.4568 83.8649 23.3354 83.8649 23.0239H82.8196C82.7786 23.149 82.0972 26.0405 79.133 26.6634C77.2833 27.0656 74.9545 26.8424 73.1458 25.3489C71.2986 23.8063 70.8707 21.7903 71.483 19.6076C72.0928 17.4249 73.7683 16.3139 75.9664 15.8578C76.8221 15.7008 77.6932 15.6248 78.5668 15.6297C80.1322 15.5929 81.6975 15.6297 83.2398 15.6297C83.4038 14.8939 83.268 14.1239 82.8606 13.4789C82.4533 12.8339 81.8051 12.363 81.0468 12.157C79.2227 11.6959 77.0168 11.8357 76.0023 14.4893L72.0902 13.447C72.3464 12.363 72.9024 11.3648 73.6991 10.558C75.2875 8.96875 77.291 8.33355 79.5429 8.33355C82.1612 8.31148 84.4798 8.95403 86.1963 11.0043C87.1903 12.1717 87.736 13.6309 87.7386 15.1367C87.7565 17.2925 87.7386 19.4458 87.7386 21.6064C87.7334 22.8841 87.7693 22.9038 89.1835 23.0166ZM83.2577 18.8228H80.911C79.8427 18.8473 78.7667 18.8228 77.7086 18.943C77.2372 18.9724 76.7888 19.1588 76.4455 19.4703C76.1022 19.7817 75.8845 20.1987 75.8281 20.6475C75.6821 21.7609 76.1227 22.6561 77.1962 23.0166C77.9238 23.2471 78.6872 23.3477 79.4507 23.3158C80.0246 23.2986 80.5856 23.1613 81.098 22.9185C81.6104 22.6732 82.0639 22.3274 82.42 21.9007C82.7786 21.474 83.04 20.9786 83.1809 20.4488C83.3218 19.9191 83.3423 19.3648 83.2398 18.8253H83.2577V18.8228Z" fill="#705435"/>
<path d="M143.743 12.3284C143.953 11.578 144.542 10.7441 145.162 10.1531C147.078 8.326 149.743 8.34807 151.423 9.04457C153.665 9.97406 154.615 11.7374 154.902 13.9299C154.972 14.4523 154.972 14.9869 154.972 15.5142C154.977 18.9918 154.974 22.467 154.974 25.9446C154.974 26.1506 154.974 26.3542 154.974 26.6068C153.488 26.6068 152.041 26.6068 150.514 26.6068C150.514 26.4106 150.514 26.2095 150.514 26.0108C150.514 22.7981 150.516 19.5853 150.511 16.375C150.509 15.3033 150.286 14.2929 149.417 13.54C148.308 12.5811 146.981 12.456 145.649 12.9293C144.355 13.3904 143.696 14.4131 143.54 15.7129C143.486 16.1617 143.471 16.6178 143.471 17.0691C143.466 20.0366 143.468 23.0017 143.468 25.9692C143.468 26.1727 143.468 26.3763 143.468 26.6289C141.949 26.6289 140.532 26.6289 139.044 26.6289C139.031 26.391 139.011 26.1727 139.011 25.9544C139.006 22.6093 139.018 19.2641 138.988 15.9213C138.975 14.7294 138.432 13.7558 137.322 13.1598C135.209 12.0243 132.201 12.8582 131.901 16.0636C131.876 16.326 131.878 16.5933 131.878 16.8557C131.876 19.8968 131.878 22.9403 131.878 25.9814C131.878 26.185 131.878 26.3861 131.878 26.6191C130.385 26.6191 128.95 26.6191 127.472 26.6191C127.472 20.765 127.472 14.9207 127.472 9.04457C128.95 9.04457 130.382 9.04457 131.876 9.04457C131.876 10.1506 131.45 11.7055 131.292 12.6546C131.561 12.6546 132.006 12.6546 132.242 12.6546C133.216 10.2733 134.996 8.58105 137.699 8.59086C140.417 8.60067 142.052 10.4032 142.713 12.3235H143.743V12.3284Z" fill="#705435"/>
<path d="M20.9054 0C16.0659 0.00245248 11.3775 1.60883 7.63707 4.5469C3.89919 7.48498 1.33982 11.5708 0.399583 16.1104C-0.540649 20.6499 0.192066 25.3587 2.47476 29.4396C4.75745 33.5181 8.45177 36.7137 12.9249 38.4819C17.3981 40.2502 22.3734 40.4807 27.0028 39.1343C31.6322 37.7879 35.6314 34.9503 38.3189 31.0999C41.0064 27.2495 42.213 22.6315 41.7365 18.0258C41.26 13.4224 39.1284 9.11833 35.7031 5.84672C31.7757 2.10423 26.4545 0 20.9054 0ZM28.0173 11.5389C24.4562 8.86327 11.275 7.63949 9.84034 18.9847C8.70027 27.9608 19.317 33.6162 27.7919 28.9516C38.3419 23.1441 34.8167 11.3231 34.8167 11.3231L35.7646 10.9847C35.7646 10.9847 40.4171 18.3961 34.8833 27.4629C29.616 36.0858 15.205 37.8197 8.42358 29.4298C1.27577 20.5886 6.01023 10.1312 13.1632 6.63397C19.6449 3.46536 29.7159 4.36051 31.6143 11.8798C32.7774 16.4954 31.4426 21.6873 26.4597 24.8657C22.0967 27.6542 14.5415 27.0435 13.4168 20.9393C19.7012 22.9847 27.5972 20.6376 28.0173 11.5046V11.5389ZM24.8431 13.0987C23.9208 16.6965 20.2982 19.7793 13.5295 17.783C15.3639 12.1594 21.4049 12.0074 24.8431 13.084V13.0987Z" fill="#E25740"/>
</g>
<defs>
<clipPath id="clip0_401_1980">
<rect width="155" height="40" fill="white"/>
</clipPath>
</defs>
</svg>
