<svg width="155" height="40" viewBox="0 0 155 40" fill="none" xmlns="http://www.w3.org/2000/svg">
<path d="M80.676 35.8871V31.9925H81.5918C81.5794 32.2501 81.5005 32.5125 81.3548 32.7773L81.6362 32.9245C81.9176 32.2501 82.3792 31.9141 83.0161 31.9141C83.4678 31.9141 83.8208 32.0759 84.075 32.4021C84.3268 32.7283 84.4552 33.182 84.4552 33.7632V35.8895H83.5517V33.8736C83.5517 33.5008 83.4678 33.2139 83.2999 33.0177C83.1321 32.8215 82.8877 32.7234 82.5668 32.7234C82.2459 32.7234 82.0015 32.8215 81.8337 33.0177C81.6658 33.2139 81.5819 33.5008 81.5819 33.8736V35.8895H80.676V35.8871Z" fill="#76634D"/>
<path d="M86.8422 35.9754C86.4077 35.9754 86.0621 35.8749 85.8079 35.6738C85.5536 35.4727 85.4277 35.2004 85.4277 34.8571C85.4277 34.5309 85.5388 34.2611 85.761 34.0502C85.9831 33.8369 86.2843 33.7142 86.662 33.675L87.9505 33.5475C88.1035 33.5328 88.2245 33.4862 88.3158 33.4101C88.4071 33.3341 88.4516 33.236 88.4516 33.1207C88.4516 32.9687 88.3751 32.8534 88.2245 32.77C88.0739 32.6891 87.8592 32.6474 87.5852 32.6474C87.2963 32.6474 87.0618 32.6989 86.8841 32.7995C86.7064 32.9 86.5928 33.0472 86.5459 33.2385H85.6425C85.7165 32.8191 85.9239 32.4905 86.2645 32.255C86.6052 32.0196 87.0421 31.9019 87.5728 31.9019C88.1554 31.9019 88.6046 32.0466 88.9181 32.3359C89.2341 32.6253 89.3921 33.0374 89.3921 33.572V34.7811C89.3921 34.9209 89.4291 35.0092 89.5031 35.0508C89.5772 35.0901 89.7253 35.1023 89.945 35.0852V35.892C89.4735 35.9411 89.1477 35.8871 88.9625 35.7375C88.7774 35.5855 88.7305 35.3353 88.8194 34.9846L88.5232 34.8939C88.38 35.247 88.1677 35.5168 87.8838 35.7032C87.5975 35.8822 87.2494 35.9754 86.8422 35.9754ZM86.9977 35.2372C87.3432 35.2372 87.6518 35.1293 87.9209 34.9111C88.1899 34.6928 88.4022 34.3862 88.5528 33.9865L88.301 33.8393C88.2023 33.9767 88.0862 34.0748 87.9554 34.1385C87.8246 34.2023 87.6493 34.244 87.4272 34.2685L86.9088 34.3225C86.7286 34.3421 86.5879 34.396 86.4867 34.4794C86.3855 34.5653 86.3337 34.6732 86.3337 34.8031C86.3337 34.9405 86.3904 35.0459 86.5064 35.1244C86.6225 35.198 86.7854 35.2372 86.9977 35.2372Z" fill="#76634D"/>
<path d="M93.1515 35.8725C92.6183 35.9265 92.2061 35.9166 91.9173 35.848C91.6285 35.7793 91.4211 35.6395 91.3026 35.4335C91.1817 35.2275 91.1224 34.9234 91.1224 34.5236V32.7848H90.3819V32C90.572 32.0025 90.7225 31.9878 90.8361 31.9559C90.9472 31.924 91.0385 31.8627 91.1076 31.7744C91.1767 31.6837 91.2236 31.5684 91.2458 31.4286C91.2681 31.2863 91.2779 31.0975 91.2755 30.8596H92.1987C92.1715 31.1539 92.1123 31.3771 92.0259 31.5267C91.937 31.6763 91.779 31.8161 91.5519 31.9461L91.6852 32.2158C91.8975 32.1177 92.1049 32.054 92.3023 32.0221C92.4998 31.9927 92.7763 31.9829 93.1293 31.9927V32.7848H92.0283V34.5383C92.0283 34.6463 92.0382 34.7345 92.0555 34.8032C92.0728 34.8719 92.1049 34.9307 92.1493 34.9798C92.1937 35.0288 92.2604 35.0632 92.3468 35.0803C92.4356 35.0975 92.5418 35.1073 92.6701 35.1049C92.796 35.1024 92.9589 35.0926 93.154 35.073V35.8725H93.1515Z" fill="#76634D"/>
<path d="M97.0047 35.8872C97.0171 35.6321 97.0961 35.3697 97.2368 35.1024L96.9578 34.9553C96.6764 35.6272 96.2173 35.9632 95.5804 35.9632C95.1312 35.9632 94.7807 35.8014 94.5289 35.4776C94.2771 35.1539 94.1512 34.7002 94.1512 34.119V31.9951H95.0596V34.0111C95.0596 34.3838 95.1435 34.6708 95.3089 34.8645C95.4743 35.0607 95.7187 35.1588 96.0346 35.1588C96.3531 35.1588 96.595 35.0607 96.7603 34.8645C96.9257 34.6683 97.0097 34.3838 97.0097 34.0111V31.9951H97.918V35.8897H97.0047V35.8872Z" fill="#76634D"/>
<path d="M99.1992 35.8871V31.9925H100.115C100.112 32.1323 100.095 32.2623 100.063 32.3874C100.031 32.5125 99.9767 32.6645 99.9002 32.8436L100.229 32.976C100.34 32.5836 100.517 32.3138 100.759 32.1618C101.001 32.0097 101.349 31.9533 101.808 31.9925V32.8288C101.191 32.7798 100.752 32.8681 100.495 33.0937C100.236 33.3193 100.108 33.7142 100.108 34.2783V35.8846H99.1992V35.8871Z" fill="#76634D"/>
<path d="M103.613 35.9754C103.178 35.9754 102.833 35.8749 102.578 35.6738C102.324 35.4727 102.198 35.2004 102.198 34.8571C102.198 34.5309 102.309 34.2611 102.532 34.0502C102.754 33.8369 103.055 33.7142 103.433 33.675L104.721 33.5475C104.874 33.5328 104.995 33.4862 105.086 33.4101C105.178 33.3341 105.222 33.236 105.222 33.1207C105.222 32.9687 105.146 32.8534 104.995 32.77C104.844 32.6891 104.63 32.6474 104.356 32.6474C104.067 32.6474 103.832 32.6989 103.655 32.7995C103.477 32.9 103.363 33.0472 103.317 33.2385H102.413C102.487 32.8191 102.694 32.4905 103.035 32.255C103.376 32.0196 103.813 31.9019 104.343 31.9019C104.926 31.9019 105.375 32.0466 105.689 32.3359C106.005 32.6253 106.163 33.0374 106.163 33.572V34.7811C106.163 34.9209 106.2 35.0092 106.274 35.0508C106.348 35.0901 106.496 35.1023 106.716 35.0852V35.892C106.244 35.9411 105.918 35.8871 105.733 35.7375C105.548 35.5855 105.501 35.3353 105.59 34.9846L105.294 34.8939C105.151 35.247 104.938 35.5168 104.654 35.7032C104.368 35.8822 104.022 35.9754 103.613 35.9754ZM103.771 35.2372C104.116 35.2372 104.425 35.1293 104.694 34.9111C104.963 34.6928 105.175 34.3862 105.326 33.9865L105.074 33.8393C104.975 33.9767 104.859 34.0748 104.728 34.1385C104.598 34.2023 104.422 34.244 104.2 34.2685L103.682 34.3225C103.502 34.3421 103.361 34.396 103.26 34.4794C103.159 34.5653 103.107 34.6732 103.107 34.8031C103.107 34.9405 103.163 35.0459 103.279 35.1244C103.396 35.198 103.558 35.2372 103.771 35.2372Z" fill="#76634D"/>
<path d="M109.554 35.8871C108.866 35.9509 108.374 35.8724 108.083 35.6492C107.792 35.4285 107.644 35.0361 107.644 34.472V30.4524H108.547V34.396C108.547 34.5014 108.552 34.5897 108.56 34.6584C108.569 34.7271 108.587 34.7908 108.614 34.8472C108.641 34.9061 108.678 34.9478 108.722 34.9772C108.769 35.0067 108.829 35.0287 108.905 35.0483C108.982 35.0655 109.07 35.0753 109.174 35.0729C109.278 35.0704 109.404 35.0631 109.554 35.0483V35.8871Z" fill="#76634D"/>
<path d="M114.239 35.9828C113.62 35.9828 113.109 35.7915 112.706 35.4065C112.304 35.0214 112.104 34.5334 112.104 33.9399C112.104 33.5499 112.196 33.2017 112.378 32.8878C112.561 32.5763 112.815 32.3335 113.143 32.1594C113.469 31.9853 113.837 31.897 114.247 31.897C114.699 31.897 115.098 32.0024 115.446 32.2133C115.794 32.4243 116.049 32.7112 116.212 33.0742C116.375 33.4371 116.429 33.8393 116.37 34.2783H113.01C113.069 34.5628 113.208 34.7909 113.43 34.9626C113.652 35.1342 113.921 35.2176 114.237 35.2176C114.474 35.2176 114.689 35.171 114.881 35.0754C115.074 34.9797 115.227 34.8498 115.335 34.683H116.273C116.12 35.0803 115.861 35.3942 115.498 35.6272C115.135 35.8651 114.713 35.9828 114.239 35.9828ZM113.013 33.6162H115.503C115.444 33.3243 115.303 33.0913 115.079 32.9197C114.854 32.748 114.58 32.6621 114.257 32.6621C113.933 32.6621 113.662 32.748 113.437 32.9221C113.21 33.0938 113.069 33.3243 113.013 33.6162Z" fill="#76634D"/>
<path d="M117.438 35.8871V31.9925H118.354C118.342 32.2133 118.26 32.4732 118.11 32.7773L118.406 32.9245C118.678 32.2501 119.115 31.9141 119.717 31.9141C120.04 31.9141 120.307 32.0048 120.517 32.1838C120.726 32.3629 120.857 32.6106 120.909 32.9269H121.183C121.225 32.6302 121.371 32.3849 121.62 32.1985C121.867 32.0097 122.168 31.9165 122.519 31.9165C122.963 31.9165 123.313 32.0735 123.57 32.3898C123.827 32.7062 123.955 33.1379 123.955 33.6848V35.8895H123.047V33.8638C123.047 33.4959 122.968 33.2139 122.807 33.0177C122.649 32.8215 122.42 32.7234 122.119 32.7234C121.808 32.7234 121.568 32.8264 121.395 33.0299C121.223 33.2335 121.136 33.5204 121.136 33.8908V35.892H120.252V33.8662C120.252 33.4984 120.174 33.2163 120.013 33.0201C119.855 32.8239 119.626 32.7258 119.324 32.7258C119.013 32.7258 118.774 32.8288 118.601 33.0324C118.428 33.236 118.342 33.5229 118.342 33.8932V35.8944H117.438V35.8871Z" fill="#76634D"/>
<path d="M127.11 35.9828C126.69 35.9828 126.313 35.8945 125.979 35.7204C125.646 35.5438 125.384 35.301 125.197 34.992C125.009 34.6805 124.915 34.3323 124.915 33.9423C124.915 33.3537 125.123 32.8657 125.54 32.4806C125.955 32.0931 126.48 31.9019 127.112 31.9019C127.532 31.9019 127.91 31.9901 128.243 32.1643C128.576 32.3408 128.838 32.5836 129.025 32.8927C129.213 33.2041 129.307 33.5524 129.307 33.9423C129.307 34.5358 129.099 35.0239 128.687 35.4089C128.27 35.7915 127.747 35.9828 127.11 35.9828ZM126.179 34.835C126.416 35.0631 126.727 35.1759 127.112 35.1759C127.495 35.1759 127.806 35.0631 128.045 34.835C128.282 34.6069 128.401 34.3102 128.401 33.9399C128.401 33.572 128.282 33.2728 128.045 33.0447C127.808 32.8166 127.497 32.7038 127.112 32.7038C126.73 32.7038 126.419 32.8166 126.179 33.0447C125.942 33.2728 125.824 33.5695 125.824 33.9399C125.821 34.3102 125.942 34.6069 126.179 34.835Z" fill="#76634D"/>
<path d="M132.73 35.8725C132.197 35.9265 131.785 35.9166 131.496 35.848C131.207 35.7793 131 35.6395 130.882 35.4335C130.761 35.2275 130.701 34.9234 130.701 34.5236V32.7848H129.961V32C130.151 32.0025 130.302 31.9878 130.415 31.9559C130.526 31.924 130.617 31.8627 130.687 31.7744C130.756 31.6837 130.803 31.5684 130.825 31.4286C130.847 31.2863 130.857 31.0975 130.854 30.8596H131.778C131.75 31.1539 131.691 31.3771 131.605 31.5267C131.516 31.6763 131.358 31.8161 131.131 31.9461L131.264 32.2158C131.477 32.1177 131.684 32.054 131.881 32.0221C132.079 31.9927 132.355 31.9829 132.708 31.9927V32.7848H131.607V34.5383C131.607 34.6463 131.617 34.7345 131.634 34.8032C131.652 34.8719 131.684 34.9307 131.728 34.9798C131.773 35.0288 131.839 35.0632 131.926 35.0803C132.015 35.0975 132.121 35.1073 132.249 35.1049C132.375 35.1024 132.538 35.0926 132.733 35.073V35.8725H132.73Z" fill="#76634D"/>
<path d="M133.696 31.2397V30.1704H134.851V31.2397H133.696ZM133.822 35.8871V31.9926H134.73V35.8871H133.822Z" fill="#76634D"/>
<path d="M137.966 35.9828C137.546 35.9828 137.169 35.8945 136.835 35.7204C136.502 35.5438 136.241 35.301 136.053 34.992C135.865 34.6805 135.772 34.3323 135.772 33.9423C135.772 33.3537 135.979 32.8657 136.396 32.4806C136.811 32.0931 137.337 31.9019 137.968 31.9019C138.388 31.9019 138.766 31.9901 139.099 32.1643C139.432 32.3408 139.694 32.5836 139.882 32.8927C140.069 33.2041 140.163 33.5524 140.163 33.9423C140.163 34.5358 139.956 35.0239 139.543 35.4089C139.126 35.7915 138.6 35.9828 137.966 35.9828ZM137.033 34.835C137.27 35.0631 137.581 35.1759 137.966 35.1759C138.349 35.1759 138.66 35.0631 138.899 34.835C139.136 34.6069 139.255 34.3102 139.255 33.9399C139.255 33.572 139.136 33.2728 138.899 33.0447C138.662 32.8166 138.351 32.7038 137.966 32.7038C137.583 32.7038 137.272 32.8166 137.033 33.0447C136.796 33.2728 136.677 33.5695 136.677 33.9399C136.677 34.3102 136.796 34.6069 137.033 34.835Z" fill="#76634D"/>
<path d="M141.202 35.8871V31.9925H142.118C142.106 32.2501 142.027 32.5125 141.881 32.7773L142.162 32.9245C142.444 32.2501 142.905 31.9141 143.542 31.9141C143.994 31.9141 144.347 32.0759 144.601 32.4021C144.853 32.7283 144.981 33.182 144.981 33.7632V35.8895H144.078V33.8736C144.078 33.5008 143.994 33.2139 143.826 33.0177C143.658 32.8215 143.414 32.7234 143.093 32.7234C142.772 32.7234 142.528 32.8215 142.36 33.0177C142.192 33.2139 142.108 33.5008 142.108 33.8736V35.8895H141.202V35.8871Z" fill="#76634D"/>
<path d="M147.689 35.9828C147.166 35.9828 146.746 35.8651 146.43 35.6272C146.114 35.3893 145.956 35.068 145.959 34.6609H146.847C146.852 34.8424 146.926 34.9846 147.072 35.0852C147.218 35.1857 147.423 35.2372 147.689 35.2372C147.929 35.2372 148.114 35.198 148.245 35.122C148.375 35.0459 148.442 34.9356 148.442 34.7933C148.442 34.683 148.398 34.5898 148.309 34.5187C148.22 34.4475 148.104 34.3911 147.961 34.3543C147.818 34.3176 147.662 34.2808 147.489 34.2489C147.316 34.217 147.146 34.1729 146.973 34.1214C146.801 34.0699 146.643 34.0061 146.499 33.9301C146.356 33.854 146.24 33.7437 146.151 33.599C146.063 33.4543 146.018 33.2777 146.018 33.0742C146.018 32.8706 146.06 32.6891 146.149 32.5371C146.235 32.3826 146.354 32.2599 146.504 32.1692C146.655 32.0784 146.818 32.0098 146.998 31.9656C147.178 31.9215 147.371 31.8994 147.576 31.8994C148.062 31.8994 148.457 32.0147 148.765 32.2452C149.074 32.4757 149.227 32.7774 149.23 33.1477H148.338C148.333 32.9932 148.264 32.8681 148.129 32.7725C147.993 32.6769 147.81 32.6278 147.576 32.6278C147.376 32.6278 147.213 32.6646 147.092 32.7406C146.971 32.8142 146.909 32.9172 146.909 33.0447C146.909 33.1379 146.944 33.2188 147.013 33.2826C147.082 33.3488 147.176 33.3979 147.289 33.4322C147.403 33.4666 147.534 33.5009 147.679 33.5352C147.825 33.5696 147.973 33.6014 148.126 33.6309C148.277 33.6578 148.425 33.702 148.573 33.7608C148.719 33.8197 148.849 33.8859 148.963 33.9644C149.076 34.0404 149.17 34.1483 149.239 34.2832C149.309 34.4181 149.343 34.5751 149.343 34.7541C149.343 35.1293 149.195 35.4285 148.896 35.6493C148.6 35.8724 148.198 35.9828 147.689 35.9828Z" fill="#76634D"/>
<path d="M119.571 19.2717C115.086 19.2717 110.702 19.2717 106.259 19.2717C106.563 21.1135 107.481 22.4133 109.191 23.0019C111.645 23.8456 113.753 23.2643 115.459 21.1969C116.478 21.886 117.493 22.5727 118.537 23.2815C117.606 24.7039 116.444 25.8149 114.876 26.3741C111.608 27.539 108.426 27.409 105.55 25.3023C103.089 23.4998 102.05 20.9443 102.006 17.9645C101.956 14.6905 103.102 11.9559 105.864 10.0504C108.031 8.55679 110.482 8.2674 113.018 8.75054C116.71 9.4544 119.426 12.6819 119.569 16.4513C119.601 17.3539 119.571 18.2613 119.571 19.2717ZM115.385 15.7524C115.227 13.6604 113.445 12.1399 111.146 12.0835C108.757 12.0246 106.656 13.6408 106.422 15.7524C109.396 15.7524 112.368 15.7524 115.385 15.7524Z" fill="#76634D"/>
<path d="M53.7009 26.5603C52.2445 26.5603 50.8647 26.5603 49.4626 26.5603C49.4626 20.7062 49.4626 14.884 49.4626 9.0201C50.8647 9.0201 52.2396 9.0201 53.6812 9.0201C53.6812 10.1041 53.4096 11.3941 53.148 12.5688C53.4096 12.5688 53.8614 12.5688 54.0662 12.5688C54.2686 12.147 54.5797 11.4382 54.824 11.0434C55.7472 9.54493 57.2135 8.67185 58.9982 8.59582C59.6548 8.56884 60.3361 8.60318 60.9754 8.75033C63.3648 9.30459 64.5768 10.9723 65.0755 13.2408C65.1866 13.7509 65.2112 14.2905 65.2112 14.8153C65.2211 18.5701 65.2186 22.3248 65.2162 26.0796C65.2162 26.2267 65.2038 26.3763 65.1964 26.5578C63.7993 26.5578 62.4244 26.5578 60.9581 26.5578C60.9581 26.3444 60.9581 26.1286 60.9581 25.9104C60.9581 22.7785 60.9581 19.6467 60.9581 16.5149C60.9581 15.5731 60.81 14.678 60.1806 13.9177C59.2179 12.7552 57.9417 12.4609 56.5396 12.7332C55.0832 13.0152 54.1773 13.9594 53.8293 15.3892C53.7231 15.8233 53.7083 16.2868 53.7083 16.7381C53.6984 19.7939 53.7034 22.8521 53.7034 25.9079C53.7009 26.1115 53.7009 26.315 53.7009 26.5603Z" fill="#76634D"/>
<path d="M90.5572 12.5592C89.4859 12.5592 88.4664 12.5592 87.405 12.5592C87.405 11.3599 87.405 10.2219 87.405 9.00796C88.459 9.00796 89.513 9.00796 90.6312 9.00796C90.6312 7.664 90.6312 6.39116 90.6312 5.08398C92.0555 5.08398 93.4132 5.08398 94.8375 5.08398C94.8375 6.37644 94.8375 7.64928 94.8375 8.98343C96.5111 8.98343 98.118 8.98343 99.7817 8.98343C99.7817 10.1778 99.7817 11.3133 99.7817 12.5346C98.155 12.5346 96.5357 12.5346 94.8844 12.5346C94.8696 12.7823 94.8498 12.9466 94.8498 13.1085C94.8473 15.6763 94.8449 18.2416 94.8498 20.8093C94.8523 22.244 95.3509 22.7247 96.8171 22.7345C97.7058 22.7394 98.592 22.7345 99.5151 22.7345C99.5151 24.0417 99.5151 25.2753 99.5151 26.58C97.6169 26.5089 95.731 26.786 93.8822 26.3225C91.937 25.8369 90.6633 24.1815 90.6288 22.0478C90.5819 19.1244 90.6016 16.1986 90.5893 13.2728C90.5942 13.0546 90.572 12.8338 90.5572 12.5592Z" fill="#76634D"/>
<path d="M85.9289 23.0166C85.9289 23.1613 85.956 23.2716 85.956 23.3795V26.4795C84.7218 26.4795 83.843 26.5751 82.7273 26.1631C80.8241 25.4568 80.8044 23.3354 80.8044 23.0239H79.7972C79.7578 23.149 79.1012 26.0405 76.2452 26.6634C74.463 27.0656 72.2191 26.8424 70.4764 25.3489C68.6967 23.8063 68.2844 21.7903 68.8744 19.6076C69.4619 17.4249 71.0763 16.3139 73.1942 15.8578C74.0186 15.7008 74.8579 15.6248 75.6996 15.6297C77.2079 15.5929 78.7161 15.6297 80.2021 15.6297C80.3601 14.8939 80.2292 14.1239 79.8367 13.4789C79.4443 12.8339 78.8198 12.363 78.0891 12.157C76.3316 11.6959 74.2062 11.8357 73.2287 14.4893L69.4594 13.447C69.7063 12.363 70.2419 11.3648 71.0096 10.558C72.54 8.96875 74.4704 8.33355 76.6401 8.33355C79.1629 8.31148 81.3968 8.95403 83.0507 11.0043C84.0084 12.1717 84.5342 13.6309 84.5367 15.1367C84.5539 17.2925 84.5367 19.4458 84.5367 21.6064C84.5317 22.8841 84.5663 22.9038 85.9289 23.0166ZM80.2194 18.8228H77.9583C76.9289 18.8473 75.8922 18.8228 74.8727 18.943C74.4185 18.9724 73.9865 19.1588 73.6558 19.4703C73.325 19.7817 73.1152 20.1987 73.0609 20.6475C72.9202 21.7609 73.3448 22.6561 74.379 23.0166C75.0801 23.2471 75.8157 23.3477 76.5513 23.3158C77.1042 23.2986 77.6448 23.1613 78.1385 22.9185C78.6321 22.6732 79.0691 22.3274 79.4122 21.9007C79.7578 21.474 80.0095 20.9786 80.1453 20.4488C80.2811 19.9191 80.3008 19.3648 80.2021 18.8253H80.2194V18.8228Z" fill="#76634D"/>
<path d="M138.497 12.3287C138.699 11.5782 139.267 10.7444 139.864 10.1533C141.711 8.32624 144.278 8.34831 145.897 9.04482C148.057 9.97431 148.973 11.7376 149.249 13.9302C149.316 14.4525 149.316 14.9872 149.316 15.5145C149.321 18.9921 149.318 22.4673 149.318 25.9449C149.318 26.1509 149.318 26.3544 149.318 26.607C147.887 26.607 146.492 26.607 145.021 26.607C145.021 26.4108 145.021 26.2097 145.021 26.0111C145.021 22.7983 145.023 19.5856 145.018 16.3753C145.016 15.3036 144.801 14.2931 143.964 13.5402C142.895 12.5813 141.617 12.4562 140.333 12.9295C139.087 13.3906 138.452 14.4133 138.302 15.7131C138.25 16.1619 138.235 16.6181 138.235 17.0693C138.23 20.0368 138.233 23.0019 138.233 25.9694C138.233 26.173 138.233 26.3765 138.233 26.6291C136.769 26.6291 135.404 26.6291 133.97 26.6291C133.957 26.3912 133.938 26.173 133.938 25.9547C133.933 22.6095 133.945 19.2643 133.915 15.9216C133.903 14.7297 133.38 13.756 132.311 13.1601C130.274 12.0246 127.376 12.8584 127.088 16.0638C127.063 16.3262 127.065 16.5936 127.065 16.856C127.063 19.8971 127.065 22.9406 127.065 25.9817C127.065 26.1852 127.065 26.3863 127.065 26.6193C125.626 26.6193 124.244 26.6193 122.82 26.6193C122.82 20.7652 122.82 14.921 122.82 9.04482C124.244 9.04482 125.624 9.04482 127.063 9.04482C127.063 10.1509 126.653 11.7058 126.5 12.6549C126.759 12.6549 127.189 12.6549 127.416 12.6549C128.354 10.2735 130.069 8.5813 132.674 8.59111C135.293 8.60092 136.868 10.4035 137.504 12.3238H138.497V12.3287Z" fill="#76634D"/>
<path d="M20.1426 0C15.4797 0.00245248 10.9624 1.60883 7.35852 4.5469C3.75707 7.48498 1.2911 11.5708 0.385178 16.1104C-0.520739 20.6499 0.185234 25.3587 2.38461 29.4396C4.58399 33.5181 8.14348 36.7137 12.4534 38.4819C16.7633 40.2502 21.557 40.4807 26.0175 39.1343C30.4779 37.7879 34.3312 34.9503 36.9206 31.0999C39.5099 27.2495 40.6726 22.6315 40.2135 18.0258C39.7543 13.4224 37.7006 9.11833 34.4003 5.84672C30.6162 2.10423 25.4892 0 20.1426 0ZM26.995 11.5389C23.5638 8.86327 10.8637 7.63949 9.48138 18.9847C8.38292 27.9608 18.6121 33.6162 26.7777 28.9516C36.9428 23.1441 33.5462 11.3231 33.5462 11.3231L34.4595 10.9847C34.4595 10.9847 38.9422 18.3961 33.6104 27.4629C28.5353 36.0858 14.6503 37.8197 8.11633 29.4298C1.22938 20.5886 5.79106 10.1312 12.6829 6.63397C18.9281 3.46536 28.6315 4.36051 30.4606 11.8798C31.5813 16.4954 30.2953 21.6873 25.4941 24.8657C21.2904 27.6542 14.011 27.0435 12.9273 20.9393C18.9824 22.9847 26.5901 20.6376 26.995 11.5046V11.5389ZM23.9366 13.0987C23.0479 16.6965 19.5575 19.7793 13.0359 17.783C14.8033 12.1594 20.6239 12.0074 23.9366 13.084V13.0987Z" fill="#E25740"/>
<path d="M152.782 8.91726C152.328 9.09038 151.838 9.17694 151.31 9.17694C150.783 9.17694 150.293 9.09038 149.839 8.91726C149.385 8.74414 148.998 8.50499 148.676 8.19983C148.358 7.89173 148.108 7.52055 147.925 7.08627C147.745 6.652 147.656 6.18252 147.656 5.67782C147.656 5.00294 147.81 4.39995 148.12 3.86884C148.429 3.33774 148.861 2.92401 149.415 2.62765C149.971 2.33129 150.603 2.18311 151.31 2.18311C151.838 2.18311 152.328 2.26967 152.782 2.44279C153.239 2.61591 153.626 2.85505 153.944 3.16022C154.266 3.46538 154.516 3.8351 154.696 4.26937C154.878 4.70365 154.97 5.17313 154.97 5.67782C154.97 6.18252 154.878 6.652 154.696 7.08627C154.516 7.52055 154.266 7.89173 153.944 8.19983C153.626 8.50499 153.239 8.74414 152.782 8.91726ZM149.331 7.58803C149.843 8.08099 150.503 8.32747 151.31 8.32747C152.118 8.32747 152.778 8.08099 153.29 7.58803C153.806 7.09214 154.064 6.45541 154.064 5.67782C154.064 4.90024 153.806 4.26497 153.29 3.77201C152.778 3.27612 152.118 3.02818 151.31 3.02818C150.503 3.02818 149.843 3.27612 149.331 3.77201C148.818 4.26497 148.562 4.90024 148.562 5.67782C148.562 6.45541 148.818 7.09214 149.331 7.58803ZM151.337 7.4912C150.789 7.4912 150.334 7.31955 149.971 6.97624C149.609 6.63293 149.428 6.20012 149.428 5.67782C149.428 5.15552 149.609 4.72419 149.971 4.38381C150.334 4.0405 150.789 3.86884 151.337 3.86884C151.803 3.86884 152.206 3.99942 152.548 4.26057C152.893 4.51879 153.111 4.85623 153.202 5.27289H152.424C152.348 5.06163 152.214 4.89437 152.022 4.77113C151.83 4.64789 151.608 4.58627 151.355 4.58627C151.025 4.58627 150.755 4.68751 150.546 4.88997C150.34 5.09244 150.237 5.35505 150.237 5.67782C150.237 6.00059 150.34 6.26468 150.546 6.47008C150.755 6.67548 151.025 6.77818 151.355 6.77818C151.626 6.77818 151.858 6.71069 152.053 6.57571C152.247 6.4378 152.377 6.25294 152.442 6.02113H153.211C153.134 6.45541 152.924 6.80899 152.579 7.08187C152.234 7.35476 151.82 7.4912 151.337 7.4912Z" fill="#76634D"/>
</svg>
